{"glyphs":{"0":{"ha":1215,"x_min":7,"x_max":1035,"o":"m 861 1208 l 861 1049 l 701 1049 l 701 1208 l 861 1208 m 340 167 l 340 7 l 181 7 l 181 167 l 340 167 m 167 340 l 167 181 l 7 181 l 7 340 l 167 340 m 167 514 l 167 354 l 7 354 l 7 514 l 167 514 m 167 688 l 167 528 l 7 528 l 7 688 l 167 688 m 167 861 l 167 701 l 7 701 l 7 861 l 167 861 m 167 1035 l 167 875 l 7 875 l 7 1035 l 167 1035 m 340 1208 l 340 1049 l 181 1049 l 181 1208 l 340 1208 m 514 167 l 514 7 l 354 7 l 354 167 l 514 167 m 340 340 l 340 181 l 181 181 l 181 340 l 340 340 m 688 167 l 688 7 l 528 7 l 528 167 l 688 167 m 514 340 l 514 181 l 354 181 l 354 340 l 514 340 m 340 514 l 340 354 l 181 354 l 181 514 l 340 514 m 514 514 l 514 354 l 354 354 l 354 514 l 514 514 m 340 688 l 340 528 l 181 528 l 181 688 l 340 688 m 861 167 l 861 7 l 701 7 l 701 167 l 861 167 m 514 688 l 514 528 l 354 528 l 354 688 l 514 688 m 340 861 l 340 701 l 181 701 l 181 861 l 340 861 m 861 340 l 861 181 l 701 181 l 701 340 l 861 340 m 514 861 l 514 701 l 354 701 l 354 861 l 514 861 m 340 1035 l 340 875 l 181 875 l 181 1035 l 340 1035 m 1035 340 l 1035 181 l 875 181 l 875 340 l 1035 340 m 861 514 l 861 354 l 701 354 l 701 514 l 861 514 m 514 1035 l 514 875 l 354 875 l 354 1035 l 514 1035 m 1035 514 l 1035 354 l 875 354 l 875 514 l 1035 514 m 861 688 l 861 528 l 701 528 l 701 688 l 861 688 m 514 1208 l 514 1049 l 354 1049 l 354 1208 l 514 1208 m 1035 688 l 1035 528 l 875 528 l 875 688 l 1035 688 m 861 861 l 861 701 l 701 701 l 701 861 l 861 861 m 688 1208 l 688 1049 l 528 1049 l 528 1208 l 688 1208 m 861 1035 l 861 875 l 701 875 l 701 1035 l 861 1035 m 1035 861 l 1035 701 l 875 701 l 875 861 l 1035 861 m 1035 1035 l 1035 875 l 875 875 l 875 1035 l 1035 1035 z "},"1":{"ha":1215,"x_min":7,"x_max":861,"o":"m 861 1208 l 861 1049 l 701 1049 l 701 1208 l 861 1208 m 340 861 l 340 701 l 181 701 l 181 861 l 340 861 m 514 1208 l 514 1049 l 354 1049 l 354 1208 l 514 1208 m 514 861 l 514 701 l 354 701 l 354 861 l 514 861 m 514 688 l 514 528 l 354 528 l 354 688 l 514 688 m 514 514 l 514 354 l 354 354 l 354 514 l 514 514 m 514 340 l 514 181 l 354 181 l 354 340 l 514 340 m 514 167 l 514 7 l 354 7 l 354 167 l 514 167 m 688 167 l 688 7 l 528 7 l 528 167 l 688 167 m 167 861 l 167 701 l 7 701 l 7 861 l 167 861 m 861 167 l 861 7 l 701 7 l 701 167 l 861 167 m 688 340 l 688 181 l 528 181 l 528 340 l 688 340 m 861 340 l 861 181 l 701 181 l 701 340 l 861 340 m 688 514 l 688 354 l 528 354 l 528 514 l 688 514 m 340 1035 l 340 875 l 181 875 l 181 1035 l 340 1035 m 861 514 l 861 354 l 701 354 l 701 514 l 861 514 m 688 688 l 688 528 l 528 528 l 528 688 l 688 688 m 861 688 l 861 528 l 701 528 l 701 688 l 861 688 m 688 861 l 688 701 l 528 701 l 528 861 l 688 861 m 514 1035 l 514 875 l 354 875 l 354 1035 l 514 1035 m 861 861 l 861 701 l 701 701 l 701 861 l 861 861 m 688 1035 l 688 875 l 528 875 l 528 1035 l 688 1035 m 861 1035 l 861 875 l 701 875 l 701 1035 l 861 1035 m 688 1208 l 688 1049 l 528 1049 l 528 1208 l 688 1208 z "},"2":{"ha":1215,"x_min":7,"x_max":1035,"o":"m 861 1208 l 861 1049 l 701 1049 l 701 1208 l 861 1208 m 340 688 l 340 528 l 181 528 l 181 688 l 340 688 m 167 514 l 167 354 l 7 354 l 7 514 l 167 514 m 514 340 l 514 181 l 354 181 l 354 340 l 514 340 m 1035 340 l 1035 181 l 875 181 l 875 340 l 1035 340 m 688 1035 l 688 875 l 528 875 l 528 1035 l 688 1035 m 688 861 l 688 701 l 528 701 l 528 861 l 688 861 m 861 340 l 861 181 l 701 181 l 701 340 l 861 340 m 167 1035 l 167 875 l 7 875 l 7 1035 l 167 1035 m 340 1035 l 340 875 l 181 875 l 181 1035 l 340 1035 m 167 167 l 167 7 l 7 7 l 7 167 l 167 167 m 340 167 l 340 7 l 181 7 l 181 167 l 340 167 m 167 340 l 167 181 l 7 181 l 7 340 l 167 340 m 514 167 l 514 7 l 354 7 l 354 167 l 514 167 m 340 340 l 340 181 l 181 181 l 181 340 l 340 340 m 688 167 l 688 7 l 528 7 l 528 167 l 688 167 m 340 514 l 340 354 l 181 354 l 181 514 l 340 514 m 861 167 l 861 7 l 701 7 l 701 167 l 861 167 m 688 340 l 688 181 l 528 181 l 528 340 l 688 340 m 1035 167 l 1035 7 l 875 7 l 875 167 l 1035 167 m 514 688 l 514 528 l 354 528 l 354 688 l 514 688 m 688 688 l 688 528 l 528 528 l 528 688 l 688 688 m 167 1208 l 167 1049 l 7 1049 l 7 1208 l 167 1208 m 861 688 l 861 528 l 701 528 l 701 688 l 861 688 m 340 1208 l 340 1049 l 181 1049 l 181 1208 l 340 1208 m 861 861 l 861 701 l 701 701 l 701 861 l 861 861 m 514 1208 l 514 1049 l 354 1049 l 354 1208 l 514 1208 m 1035 861 l 1035 701 l 875 701 l 875 861 l 1035 861 m 861 1035 l 861 875 l 701 875 l 701 1035 l 861 1035 m 688 1208 l 688 1049 l 528 1049 l 528 1208 l 688 1208 m 1035 1035 l 1035 875 l 875 875 l 875 1035 l 1035 1035 z "},"3":{"ha":1215,"x_min":7,"x_max":1035,"o":"m 861 1208 l 861 1049 l 701 1049 l 701 1208 l 861 1208 m 340 340 l 340 181 l 181 181 l 181 340 l 340 340 m 167 340 l 167 181 l 7 181 l 7 340 l 167 340 m 861 167 l 861 7 l 701 7 l 701 167 l 861 167 m 1035 340 l 1035 181 l 875 181 l 875 340 l 1035 340 m 1035 514 l 1035 354 l 875 354 l 875 514 l 1035 514 m 861 688 l 861 528 l 701 528 l 701 688 l 861 688 m 1035 1208 l 1035 1049 l 875 1049 l 875 1208 l 1035 1208 m 861 1035 l 861 875 l 701 875 l 701 1035 l 861 1035 m 167 1035 l 167 875 l 7 875 l 7 1035 l 167 1035 m 340 1035 l 340 875 l 181 875 l 181 1035 l 340 1035 m 167 167 l 167 7 l 7 7 l 7 167 l 167 167 m 340 167 l 340 7 l 181 7 l 181 167 l 340 167 m 514 167 l 514 7 l 354 7 l 354 167 l 514 167 m 688 167 l 688 7 l 528 7 l 528 167 l 688 167 m 688 340 l 688 181 l 528 181 l 528 340 l 688 340 m 340 688 l 340 528 l 181 528 l 181 688 l 340 688 m 861 340 l 861 181 l 701 181 l 701 340 l 861 340 m 688 514 l 688 354 l 528 354 l 528 514 l 688 514 m 514 688 l 514 528 l 354 528 l 354 688 l 514 688 m 688 861 l 688 701 l 528 701 l 528 861 l 688 861 m 861 514 l 861 354 l 701 354 l 701 514 l 861 514 m 688 688 l 688 528 l 528 528 l 528 688 l 688 688 m 514 861 l 514 701 l 354 701 l 354 861 l 514 861 m 167 1208 l 167 1049 l 7 1049 l 7 1208 l 167 1208 m 514 1035 l 514 875 l 354 875 l 354 1035 l 514 1035 m 340 1208 l 340 1049 l 181 1049 l 181 1208 l 340 1208 m 688 1035 l 688 875 l 528 875 l 528 1035 l 688 1035 m 514 1208 l 514 1049 l 354 1049 l 354 1208 l 514 1208 m 688 1208 l 688 1049 l 528 1049 l 528 1208 l 688 1208 z "},"4":{"ha":1215,"x_min":7,"x_max":1035,"o":"m 1035 1208 l 1035 1049 l 875 1049 l 875 1208 l 1035 1208 m 688 167 l 688 7 l 528 7 l 528 167 l 688 167 m 688 340 l 688 181 l 528 181 l 528 340 l 688 340 m 688 688 l 688 528 l 528 528 l 528 688 l 688 688 m 688 861 l 688 701 l 528 701 l 528 861 l 688 861 m 688 1035 l 688 875 l 528 875 l 528 1035 l 688 1035 m 167 514 l 167 354 l 7 354 l 7 514 l 167 514 m 340 514 l 340 354 l 181 354 l 181 514 l 340 514 m 167 688 l 167 528 l 7 528 l 7 688 l 167 688 m 861 167 l 861 7 l 701 7 l 701 167 l 861 167 m 514 514 l 514 354 l 354 354 l 354 514 l 514 514 m 1035 167 l 1035 7 l 875 7 l 875 167 l 1035 167 m 861 340 l 861 181 l 701 181 l 701 340 l 861 340 m 688 514 l 688 354 l 528 354 l 528 514 l 688 514 m 340 861 l 340 701 l 181 701 l 181 861 l 340 861 m 1035 340 l 1035 181 l 875 181 l 875 340 l 1035 340 m 861 514 l 861 354 l 701 354 l 701 514 l 861 514 m 1035 514 l 1035 354 l 875 354 l 875 514 l 1035 514 m 861 688 l 861 528 l 701 528 l 701 688 l 861 688 m 514 1035 l 514 875 l 354 875 l 354 1035 l 514 1035 m 1035 688 l 1035 528 l 875 528 l 875 688 l 1035 688 m 861 861 l 861 701 l 701 701 l 701 861 l 861 861 m 1035 861 l 1035 701 l 875 701 l 875 861 l 1035 861 m 861 1035 l 861 875 l 701 875 l 701 1035 l 861 1035 m 688 1208 l 688 1049 l 528 1049 l 528 1208 l 688 1208 m 1035 1035 l 1035 875 l 875 875 l 875 1035 l 1035 1035 m 861 1208 l 861 1049 l 701 1049 l 701 1208 l 861 1208 z "},"5":{"ha":1215,"x_min":7,"x_max":1035,"o":"m 1035 1208 l 1035 1049 l 875 1049 l 875 1208 l 1035 1208 m 688 1035 l 688 875 l 528 875 l 528 1035 l 688 1035 m 861 1035 l 861 875 l 701 875 l 701 1035 l 861 1035 m 167 340 l 167 181 l 7 181 l 7 340 l 167 340 m 340 340 l 340 181 l 181 181 l 181 340 l 340 340 m 688 340 l 688 181 l 528 181 l 528 340 l 688 340 m 688 514 l 688 354 l 528 354 l 528 514 l 688 514 m 1035 1035 l 1035 875 l 875 875 l 875 1035 l 1035 1035 m 514 1035 l 514 875 l 354 875 l 354 1035 l 514 1035 m 167 167 l 167 7 l 7 7 l 7 167 l 167 167 m 340 167 l 340 7 l 181 7 l 181 167 l 340 167 m 514 167 l 514 7 l 354 7 l 354 167 l 514 167 m 688 167 l 688 7 l 528 7 l 528 167 l 688 167 m 167 688 l 167 528 l 7 528 l 7 688 l 167 688 m 861 167 l 861 7 l 701 7 l 701 167 l 861 167 m 340 688 l 340 528 l 181 528 l 181 688 l 340 688 m 167 861 l 167 701 l 7 701 l 7 861 l 167 861 m 861 340 l 861 181 l 701 181 l 701 340 l 861 340 m 514 688 l 514 528 l 354 528 l 354 688 l 514 688 m 340 861 l 340 701 l 181 701 l 181 861 l 340 861 m 167 1035 l 167 875 l 7 875 l 7 1035 l 167 1035 m 1035 340 l 1035 181 l 875 181 l 875 340 l 1035 340 m 861 514 l 861 354 l 701 354 l 701 514 l 861 514 m 688 688 l 688 528 l 528 528 l 528 688 l 688 688 m 340 1035 l 340 875 l 181 875 l 181 1035 l 340 1035 m 167 1208 l 167 1049 l 7 1049 l 7 1208 l 167 1208 m 1035 514 l 1035 354 l 875 354 l 875 514 l 1035 514 m 861 688 l 861 528 l 701 528 l 701 688 l 861 688 m 340 1208 l 340 1049 l 181 1049 l 181 1208 l 340 1208 m 514 1208 l 514 1049 l 354 1049 l 354 1208 l 514 1208 m 688 1208 l 688 1049 l 528 1049 l 528 1208 l 688 1208 m 861 1208 l 861 1049 l 701 1049 l 701 1208 l 861 1208 z "},"6":{"ha":1215,"x_min":7,"x_max":1035,"o":"m 1035 1208 l 1035 1049 l 875 1049 l 875 1208 l 1035 1208 m 167 1035 l 167 875 l 7 875 l 7 1035 l 167 1035 m 340 1208 l 340 1049 l 181 1049 l 181 1208 l 340 1208 m 861 1035 l 861 875 l 701 875 l 701 1035 l 861 1035 m 1035 1035 l 1035 875 l 875 875 l 875 1035 l 1035 1035 m 514 340 l 514 181 l 354 181 l 354 340 l 514 340 m 514 514 l 514 354 l 354 354 l 354 514 l 514 514 m 514 861 l 514 701 l 354 701 l 354 861 l 514 861 m 340 167 l 340 7 l 181 7 l 181 167 l 340 167 m 167 340 l 167 181 l 7 181 l 7 340 l 167 340 m 514 167 l 514 7 l 354 7 l 354 167 l 514 167 m 340 340 l 340 181 l 181 181 l 181 340 l 340 340 m 167 514 l 167 354 l 7 354 l 7 514 l 167 514 m 688 167 l 688 7 l 528 7 l 528 167 l 688 167 m 340 514 l 340 354 l 181 354 l 181 514 l 340 514 m 167 688 l 167 528 l 7 528 l 7 688 l 167 688 m 861 167 l 861 7 l 701 7 l 701 167 l 861 167 m 340 688 l 340 528 l 181 528 l 181 688 l 340 688 m 167 861 l 167 701 l 7 701 l 7 861 l 167 861 m 861 340 l 861 181 l 701 181 l 701 340 l 861 340 m 514 688 l 514 528 l 354 528 l 354 688 l 514 688 m 340 861 l 340 701 l 181 701 l 181 861 l 340 861 m 688 688 l 688 528 l 528 528 l 528 688 l 688 688 m 340 1035 l 340 875 l 181 875 l 181 1035 l 340 1035 m 861 514 l 861 354 l 701 354 l 701 514 l 861 514 m 1035 340 l 1035 181 l 875 181 l 875 340 l 1035 340 m 861 688 l 861 528 l 701 528 l 701 688 l 861 688 m 514 1035 l 514 875 l 354 875 l 354 1035 l 514 1035 m 1035 514 l 1035 354 l 875 354 l 875 514 l 1035 514 m 514 1208 l 514 1049 l 354 1049 l 354 1208 l 514 1208 m 688 1208 l 688 1049 l 528 1049 l 528 1208 l 688 1208 m 861 1208 l 861 1049 l 701 1049 l 701 1208 l 861 1208 z "},"7":{"ha":1215,"x_min":7,"x_max":1035,"o":"m 1035 1208 l 1035 1049 l 875 1049 l 875 1208 l 1035 1208 m 1035 861 l 1035 701 l 875 701 l 875 861 l 1035 861 m 861 688 l 861 528 l 701 528 l 701 688 l 861 688 m 688 167 l 688 7 l 528 7 l 528 167 l 688 167 m 688 340 l 688 181 l 528 181 l 528 340 l 688 340 m 688 514 l 688 354 l 528 354 l 528 514 l 688 514 m 167 1035 l 167 875 l 7 875 l 7 1035 l 167 1035 m 340 1035 l 340 875 l 181 875 l 181 1035 l 340 1035 m 514 1035 l 514 875 l 354 875 l 354 1035 l 514 1035 m 340 167 l 340 7 l 181 7 l 181 167 l 340 167 m 514 167 l 514 7 l 354 7 l 354 167 l 514 167 m 340 340 l 340 181 l 181 181 l 181 340 l 340 340 m 514 340 l 514 181 l 354 181 l 354 340 l 514 340 m 340 514 l 340 354 l 181 354 l 181 514 l 340 514 m 514 514 l 514 354 l 354 354 l 354 514 l 514 514 m 514 688 l 514 528 l 354 528 l 354 688 l 514 688 m 688 688 l 688 528 l 528 528 l 528 688 l 688 688 m 167 1208 l 167 1049 l 7 1049 l 7 1208 l 167 1208 m 688 1035 l 688 875 l 528 875 l 528 1035 l 688 1035 m 340 1208 l 340 1049 l 181 1049 l 181 1208 l 340 1208 m 861 861 l 861 701 l 701 701 l 701 861 l 861 861 m 514 1208 l 514 1049 l 354 1049 l 354 1208 l 514 1208 m 861 1035 l 861 875 l 701 875 l 701 1035 l 861 1035 m 688 1208 l 688 1049 l 528 1049 l 528 1208 l 688 1208 m 1035 1035 l 1035 875 l 875 875 l 875 1035 l 1035 1035 m 861 1208 l 861 1049 l 701 1049 l 701 1208 l 861 1208 z "},"8":{"ha":1215,"x_min":7,"x_max":1035,"o":"m 861 1208 l 861 1049 l 701 1049 l 701 1208 l 861 1208 m 514 514 l 514 354 l 354 354 l 354 514 l 514 514 m 688 861 l 688 701 l 528 701 l 528 861 l 688 861 m 688 340 l 688 181 l 528 181 l 528 340 l 688 340 m 688 514 l 688 354 l 528 354 l 528 514 l 688 514 m 514 861 l 514 701 l 354 701 l 354 861 l 514 861 m 514 1035 l 514 875 l 354 875 l 354 1035 l 514 1035 m 861 514 l 861 354 l 701 354 l 701 514 l 861 514 m 340 167 l 340 7 l 181 7 l 181 167 l 340 167 m 167 340 l 167 181 l 7 181 l 7 340 l 167 340 m 514 167 l 514 7 l 354 7 l 354 167 l 514 167 m 167 514 l 167 354 l 7 354 l 7 514 l 167 514 m 688 167 l 688 7 l 528 7 l 528 167 l 688 167 m 861 167 l 861 7 l 701 7 l 701 167 l 861 167 m 340 688 l 340 528 l 181 528 l 181 688 l 340 688 m 167 861 l 167 701 l 7 701 l 7 861 l 167 861 m 861 340 l 861 181 l 701 181 l 701 340 l 861 340 m 514 688 l 514 528 l 354 528 l 354 688 l 514 688 m 340 861 l 340 701 l 181 701 l 181 861 l 340 861 m 167 1035 l 167 875 l 7 875 l 7 1035 l 167 1035 m 1035 340 l 1035 181 l 875 181 l 875 340 l 1035 340 m 688 688 l 688 528 l 528 528 l 528 688 l 688 688 m 340 1035 l 340 875 l 181 875 l 181 1035 l 340 1035 m 1035 514 l 1035 354 l 875 354 l 875 514 l 1035 514 m 861 688 l 861 528 l 701 528 l 701 688 l 861 688 m 340 1208 l 340 1049 l 181 1049 l 181 1208 l 340 1208 m 514 1208 l 514 1049 l 354 1049 l 354 1208 l 514 1208 m 1035 861 l 1035 701 l 875 701 l 875 861 l 1035 861 m 688 1208 l 688 1049 l 528 1049 l 528 1208 l 688 1208 m 1035 1035 l 1035 875 l 875 875 l 875 1035 l 1035 1035 z "},"9":{"ha":1215,"x_min":7,"x_max":1035,"o":"m 861 1208 l 861 1049 l 701 1049 l 701 1208 l 861 1208 m 861 167 l 861 7 l 701 7 l 701 167 l 861 167 m 1035 340 l 1035 181 l 875 181 l 875 340 l 1035 340 m 167 340 l 167 181 l 7 181 l 7 340 l 167 340 m 340 340 l 340 181 l 181 181 l 181 340 l 340 340 m 688 514 l 688 354 l 528 354 l 528 514 l 688 514 m 688 861 l 688 701 l 528 701 l 528 861 l 688 861 m 688 1035 l 688 875 l 528 875 l 528 1035 l 688 1035 m 167 167 l 167 7 l 7 7 l 7 167 l 167 167 m 340 167 l 340 7 l 181 7 l 181 167 l 340 167 m 514 167 l 514 7 l 354 7 l 354 167 l 514 167 m 688 167 l 688 7 l 528 7 l 528 167 l 688 167 m 688 340 l 688 181 l 528 181 l 528 340 l 688 340 m 340 688 l 340 528 l 181 528 l 181 688 l 340 688 m 167 861 l 167 701 l 7 701 l 7 861 l 167 861 m 861 340 l 861 181 l 701 181 l 701 340 l 861 340 m 514 688 l 514 528 l 354 528 l 354 688 l 514 688 m 340 861 l 340 701 l 181 701 l 181 861 l 340 861 m 167 1035 l 167 875 l 7 875 l 7 1035 l 167 1035 m 861 514 l 861 354 l 701 354 l 701 514 l 861 514 m 688 688 l 688 528 l 528 528 l 528 688 l 688 688 m 340 1035 l 340 875 l 181 875 l 181 1035 l 340 1035 m 1035 514 l 1035 354 l 875 354 l 875 514 l 1035 514 m 861 688 l 861 528 l 701 528 l 701 688 l 861 688 m 340 1208 l 340 1049 l 181 1049 l 181 1208 l 340 1208 m 1035 688 l 1035 528 l 875 528 l 875 688 l 1035 688 m 861 861 l 861 701 l 701 701 l 701 861 l 861 861 m 514 1208 l 514 1049 l 354 1049 l 354 1208 l 514 1208 m 1035 861 l 1035 701 l 875 701 l 875 861 l 1035 861 m 861 1035 l 861 875 l 701 875 l 701 1035 l 861 1035 m 688 1208 l 688 1049 l 528 1049 l 528 1208 l 688 1208 m 1035 1035 l 1035 875 l 875 875 l 875 1035 l 1035 1035 z "}," ":{"ha":521,"x_min":0,"x_max":0,"o":""},"!":{"ha":1042,"x_min":181,"x_max":688,"o":"m 688 1382 l 688 1222 l 528 1222 l 528 1382 l 688 1382 m 340 1382 l 340 1222 l 181 1222 l 181 1382 l 340 1382 m 340 1208 l 340 1049 l 181 1049 l 181 1208 l 340 1208 m 340 1035 l 340 875 l 181 875 l 181 1035 l 340 1035 m 340 861 l 340 701 l 181 701 l 181 861 l 340 861 m 340 688 l 340 528 l 181 528 l 181 688 l 340 688 m 340 167 l 340 7 l 181 7 l 181 167 l 340 167 m 340 340 l 340 181 l 181 181 l 181 340 l 340 340 m 514 167 l 514 7 l 354 7 l 354 167 l 514 167 m 688 167 l 688 7 l 528 7 l 528 167 l 688 167 m 514 340 l 514 181 l 354 181 l 354 340 l 514 340 m 688 340 l 688 181 l 528 181 l 528 340 l 688 340 m 514 688 l 514 528 l 354 528 l 354 688 l 514 688 m 514 861 l 514 701 l 354 701 l 354 861 l 514 861 m 688 861 l 688 701 l 528 701 l 528 861 l 688 861 m 514 1035 l 514 875 l 354 875 l 354 1035 l 514 1035 m 688 1035 l 688 875 l 528 875 l 528 1035 l 688 1035 m 514 1208 l 514 1049 l 354 1049 l 354 1208 l 514 1208 m 688 1208 l 688 1049 l 528 1049 l 528 1208 l 688 1208 m 514 1382 l 514 1222 l 354 1222 l 354 1382 l 514 1382 z "},"\"":{"ha":1389,"x_min":181,"x_max":1035,"o":"m 340 1382 l 340 1222 l 181 1222 l 181 1382 l 340 1382 m 1035 861 l 1035 701 l 875 701 l 875 861 l 1035 861 m 1035 1035 l 1035 875 l 875 875 l 875 1035 l 1035 1035 m 1035 1208 l 1035 1049 l 875 1049 l 875 1208 l 1035 1208 m 1035 1382 l 1035 1222 l 875 1222 l 875 1382 l 1035 1382 m 861 861 l 861 701 l 701 701 l 701 861 l 861 861 m 861 1382 l 861 1222 l 701 1222 l 701 1382 l 861 1382 m 861 1208 l 861 1049 l 701 1049 l 701 1208 l 861 1208 m 861 1035 l 861 875 l 701 875 l 701 1035 l 861 1035 m 340 861 l 340 701 l 181 701 l 181 861 l 340 861 m 514 861 l 514 701 l 354 701 l 354 861 l 514 861 m 514 1382 l 514 1222 l 354 1222 l 354 1382 l 514 1382 m 514 1208 l 514 1049 l 354 1049 l 354 1208 l 514 1208 m 514 1035 l 514 875 l 354 875 l 354 1035 l 514 1035 m 340 1035 l 340 875 l 181 875 l 181 1035 l 340 1035 m 340 1208 l 340 1049 l 181 1049 l 181 1208 l 340 1208 z "},"#":{"ha":1215,"x_min":7,"x_max":1035,"o":"m 861 1208 l 861 1049 l 701 1049 l 701 1208 l 861 1208 m 340 1208 l 340 1049 l 181 1049 l 181 1208 l 340 1208 m 167 1035 l 167 875 l 7 875 l 7 1035 l 167 1035 m 340 861 l 340 701 l 181 701 l 181 861 l 340 861 m 167 688 l 167 528 l 7 528 l 7 688 l 167 688 m 340 514 l 340 354 l 181 354 l 181 514 l 340 514 m 340 688 l 340 528 l 181 528 l 181 688 l 340 688 m 514 688 l 514 528 l 354 528 l 354 688 l 514 688 m 340 1035 l 340 875 l 181 875 l 181 1035 l 340 1035 m 861 514 l 861 354 l 701 354 l 701 514 l 861 514 m 688 688 l 688 528 l 528 528 l 528 688 l 688 688 m 514 1035 l 514 875 l 354 875 l 354 1035 l 514 1035 m 861 688 l 861 528 l 701 528 l 701 688 l 861 688 m 861 861 l 861 701 l 701 701 l 701 861 l 861 861 m 688 1035 l 688 875 l 528 875 l 528 1035 l 688 1035 m 1035 688 l 1035 528 l 875 528 l 875 688 l 1035 688 m 861 1035 l 861 875 l 701 875 l 701 1035 l 861 1035 m 1035 1035 l 1035 875 l 875 875 l 875 1035 l 1035 1035 z "},"$":{"ha":1215,"x_min":7,"x_max":1035,"o":"m 1035 1035 l 1035 875 l 875 875 l 875 1035 l 1035 1035 m 688 1556 l 688 1396 l 528 1396 l 528 1556 l 688 1556 m 688 1382 l 688 1222 l 528 1222 l 528 1382 l 688 1382 m 688 -181 l 688 -340 l 528 -340 l 528 -181 l 688 -181 m 688 -7 l 688 -167 l 528 -167 l 528 -7 l 688 -7 m 340 340 l 340 181 l 181 181 l 181 340 l 340 340 m 167 340 l 167 181 l 7 181 l 7 340 l 167 340 m 167 167 l 167 7 l 7 7 l 7 167 l 167 167 m 340 167 l 340 7 l 181 7 l 181 167 l 340 167 m 514 167 l 514 7 l 354 7 l 354 167 l 514 167 m 688 167 l 688 7 l 528 7 l 528 167 l 688 167 m 861 167 l 861 7 l 701 7 l 701 167 l 861 167 m 1035 340 l 1035 181 l 875 181 l 875 340 l 1035 340 m 861 340 l 861 181 l 701 181 l 701 340 l 861 340 m 688 340 l 688 181 l 528 181 l 528 340 l 688 340 m 1035 514 l 1035 354 l 875 354 l 875 514 l 1035 514 m 861 514 l 861 354 l 701 354 l 701 514 l 861 514 m 688 514 l 688 354 l 528 354 l 528 514 l 688 514 m 514 514 l 514 354 l 354 354 l 354 514 l 514 514 m 861 688 l 861 528 l 701 528 l 701 688 l 861 688 m 688 688 l 688 528 l 528 528 l 528 688 l 688 688 m 514 688 l 514 528 l 354 528 l 354 688 l 514 688 m 340 688 l 340 528 l 181 528 l 181 688 l 340 688 m 688 861 l 688 701 l 528 701 l 528 861 l 688 861 m 514 861 l 514 701 l 354 701 l 354 861 l 514 861 m 340 861 l 340 701 l 181 701 l 181 861 l 340 861 m 167 861 l 167 701 l 7 701 l 7 861 l 167 861 m 514 1035 l 514 875 l 354 875 l 354 1035 l 514 1035 m 167 1035 l 167 875 l 7 875 l 7 1035 l 167 1035 m 340 1035 l 340 875 l 181 875 l 181 1035 l 340 1035 m 340 1208 l 340 1049 l 181 1049 l 181 1208 l 340 1208 m 514 1208 l 514 1049 l 354 1049 l 354 1208 l 514 1208 m 688 1208 l 688 1049 l 528 1049 l 528 1208 l 688 1208 m 861 1208 l 861 1049 l 701 1049 l 701 1208 l 861 1208 m 1035 1208 l 1035 1049 l 875 1049 l 875 1208 l 1035 1208 m 861 1035 l 861 875 l 701 875 l 701 1035 l 861 1035 z "},"%":{"ha":1215,"x_min":7,"x_max":1035,"o":"m 1035 1208 l 1035 1049 l 875 1049 l 875 1208 l 1035 1208 m 514 1208 l 514 1049 l 354 1049 l 354 1208 l 514 1208 m 514 688 l 514 528 l 354 528 l 354 688 l 514 688 m 340 514 l 340 354 l 181 354 l 181 514 l 340 514 m 167 340 l 167 181 l 7 181 l 7 340 l 167 340 m 167 167 l 167 7 l 7 7 l 7 167 l 167 167 m 1035 167 l 1035 7 l 875 7 l 875 167 l 1035 167 m 1035 340 l 1035 181 l 875 181 l 875 340 l 1035 340 m 167 1208 l 167 1049 l 7 1049 l 7 1208 l 167 1208 m 167 1035 l 167 875 l 7 875 l 7 1035 l 167 1035 m 340 167 l 340 7 l 181 7 l 181 167 l 340 167 m 340 340 l 340 181 l 181 181 l 181 340 l 340 340 m 688 167 l 688 7 l 528 7 l 528 167 l 688 167 m 514 514 l 514 354 l 354 354 l 354 514 l 514 514 m 861 167 l 861 7 l 701 7 l 701 167 l 861 167 m 861 340 l 861 181 l 701 181 l 701 340 l 861 340 m 688 688 l 688 528 l 528 528 l 528 688 l 688 688 m 340 1035 l 340 875 l 181 875 l 181 1035 l 340 1035 m 688 861 l 688 701 l 528 701 l 528 861 l 688 861 m 340 1208 l 340 1049 l 181 1049 l 181 1208 l 340 1208 m 861 861 l 861 701 l 701 701 l 701 861 l 861 861 m 861 1035 l 861 875 l 701 875 l 701 1035 l 861 1035 m 1035 1035 l 1035 875 l 875 875 l 875 1035 l 1035 1035 m 861 1208 l 861 1049 l 701 1049 l 701 1208 l 861 1208 z "},"&":{"ha":1736,"x_min":7,"x_max":1556,"o":"m 1556 688 l 1556 528 l 1396 528 l 1396 688 l 1556 688 m 688 688 l 688 528 l 528 528 l 528 688 l 688 688 m 1035 1208 l 1035 1049 l 875 1049 l 875 1208 l 1035 1208 m 1035 1035 l 1035 875 l 875 875 l 875 1035 l 1035 1035 m 861 1035 l 861 875 l 701 875 l 701 1035 l 861 1035 m 861 167 l 861 7 l 701 7 l 701 167 l 861 167 m 861 1208 l 861 1049 l 701 1049 l 701 1208 l 861 1208 m 514 340 l 514 181 l 354 181 l 354 340 l 514 340 m 514 514 l 514 354 l 354 354 l 354 514 l 514 514 m 514 861 l 514 701 l 354 701 l 354 861 l 514 861 m 514 1035 l 514 875 l 354 875 l 354 1035 l 514 1035 m 340 167 l 340 7 l 181 7 l 181 167 l 340 167 m 167 340 l 167 181 l 7 181 l 7 340 l 167 340 m 514 167 l 514 7 l 354 7 l 354 167 l 514 167 m 340 340 l 340 181 l 181 181 l 181 340 l 340 340 m 167 514 l 167 354 l 7 354 l 7 514 l 167 514 m 688 167 l 688 7 l 528 7 l 528 167 l 688 167 m 340 514 l 340 354 l 181 354 l 181 514 l 340 514 m 1035 167 l 1035 7 l 875 7 l 875 167 l 1035 167 m 340 688 l 340 528 l 181 528 l 181 688 l 340 688 m 167 861 l 167 701 l 7 701 l 7 861 l 167 861 m 514 688 l 514 528 l 354 528 l 354 688 l 514 688 m 340 861 l 340 701 l 181 701 l 181 861 l 340 861 m 167 1035 l 167 875 l 7 875 l 7 1035 l 167 1035 m 1035 340 l 1035 181 l 875 181 l 875 340 l 1035 340 m 1035 514 l 1035 354 l 875 354 l 875 514 l 1035 514 m 340 1035 l 340 875 l 181 875 l 181 1035 l 340 1035 m 1208 340 l 1208 181 l 1049 181 l 1049 340 l 1208 340 m 1035 688 l 1035 528 l 875 528 l 875 688 l 1035 688 m 1208 514 l 1208 354 l 1049 354 l 1049 514 l 1208 514 m 340 1208 l 340 1049 l 181 1049 l 181 1208 l 340 1208 m 514 1208 l 514 1049 l 354 1049 l 354 1208 l 514 1208 m 1208 688 l 1208 528 l 1049 528 l 1049 688 l 1208 688 m 1382 688 l 1382 528 l 1222 528 l 1222 688 l 1382 688 m 688 1208 l 688 1049 l 528 1049 l 528 1208 l 688 1208 z "},"'":{"ha":868,"x_min":181,"x_max":514,"o":"m 340 1035 l 340 875 l 181 875 l 181 1035 l 340 1035 m 514 861 l 514 701 l 354 701 l 354 861 l 514 861 m 514 1035 l 514 875 l 354 875 l 354 1035 l 514 1035 m 514 1208 l 514 1049 l 354 1049 l 354 1208 l 514 1208 m 514 1382 l 514 1222 l 354 1222 l 354 1382 l 514 1382 m 340 861 l 340 701 l 181 701 l 181 861 l 340 861 m 340 1382 l 340 1222 l 181 1222 l 181 1382 l 340 1382 m 340 1208 l 340 1049 l 181 1049 l 181 1208 l 340 1208 z "},"(":{"ha":1215,"x_min":181,"x_max":861,"o":"m 688 1382 l 688 1222 l 528 1222 l 528 1382 l 688 1382 m 340 -7 l 340 -167 l 181 -167 l 181 -7 l 340 -7 m 514 -181 l 514 -340 l 354 -340 l 354 -181 l 514 -181 m 861 -181 l 861 -340 l 701 -340 l 701 -181 l 861 -181 m 861 1382 l 861 1222 l 701 1222 l 701 1382 l 861 1382 m 340 1208 l 340 1049 l 181 1049 l 181 1208 l 340 1208 m 514 1382 l 514 1222 l 354 1222 l 354 1382 l 514 1382 m 688 -181 l 688 -340 l 528 -340 l 528 -181 l 688 -181 m 514 -7 l 514 -167 l 354 -167 l 354 -7 l 514 -7 m 340 167 l 340 7 l 181 7 l 181 167 l 340 167 m 340 340 l 340 181 l 181 181 l 181 340 l 340 340 m 514 167 l 514 7 l 354 7 l 354 167 l 514 167 m 340 514 l 340 354 l 181 354 l 181 514 l 340 514 m 514 340 l 514 181 l 354 181 l 354 340 l 514 340 m 340 688 l 340 528 l 181 528 l 181 688 l 340 688 m 514 514 l 514 354 l 354 354 l 354 514 l 514 514 m 340 861 l 340 701 l 181 701 l 181 861 l 340 861 m 514 688 l 514 528 l 354 528 l 354 688 l 514 688 m 340 1035 l 340 875 l 181 875 l 181 1035 l 340 1035 m 514 861 l 514 701 l 354 701 l 354 861 l 514 861 m 514 1035 l 514 875 l 354 875 l 354 1035 l 514 1035 m 514 1208 l 514 1049 l 354 1049 l 354 1208 l 514 1208 z "},")":{"ha":1215,"x_min":181,"x_max":861,"o":"m 514 1382 l 514 1222 l 354 1222 l 354 1382 l 514 1382 m 340 -181 l 340 -340 l 181 -340 l 181 -181 l 340 -181 m 688 -181 l 688 -340 l 528 -340 l 528 -181 l 688 -181 m 861 -7 l 861 -167 l 701 -167 l 701 -7 l 861 -7 m 861 1208 l 861 1049 l 701 1049 l 701 1208 l 861 1208 m 688 1382 l 688 1222 l 528 1222 l 528 1382 l 688 1382 m 340 1382 l 340 1222 l 181 1222 l 181 1382 l 340 1382 m 514 -181 l 514 -340 l 354 -340 l 354 -181 l 514 -181 m 688 -7 l 688 -167 l 528 -167 l 528 -7 l 688 -7 m 688 167 l 688 7 l 528 7 l 528 167 l 688 167 m 861 167 l 861 7 l 701 7 l 701 167 l 861 167 m 688 340 l 688 181 l 528 181 l 528 340 l 688 340 m 861 340 l 861 181 l 701 181 l 701 340 l 861 340 m 688 514 l 688 354 l 528 354 l 528 514 l 688 514 m 861 514 l 861 354 l 701 354 l 701 514 l 861 514 m 688 688 l 688 528 l 528 528 l 528 688 l 688 688 m 861 688 l 861 528 l 701 528 l 701 688 l 861 688 m 688 861 l 688 701 l 528 701 l 528 861 l 688 861 m 861 861 l 861 701 l 701 701 l 701 861 l 861 861 m 688 1035 l 688 875 l 528 875 l 528 1035 l 688 1035 m 861 1035 l 861 875 l 701 875 l 701 1035 l 861 1035 m 688 1208 l 688 1049 l 528 1049 l 528 1208 l 688 1208 z "},"*":{"ha":1910,"x_min":181,"x_max":1556,"o":"m 1382 1035 l 1382 875 l 1222 875 l 1222 1035 l 1382 1035 m 1035 1382 l 1035 1222 l 875 1222 l 875 1382 l 1035 1382 m 1035 1208 l 1035 1049 l 875 1049 l 875 1208 l 1035 1208 m 1556 1035 l 1556 875 l 1396 875 l 1396 1035 l 1556 1035 m 1208 861 l 1208 701 l 1049 701 l 1049 861 l 1208 861 m 1208 688 l 1208 528 l 1049 528 l 1049 688 l 1208 688 m 1382 514 l 1382 354 l 1222 354 l 1222 514 l 1382 514 m 514 514 l 514 354 l 354 354 l 354 514 l 514 514 m 688 688 l 688 528 l 528 528 l 528 688 l 688 688 m 340 1035 l 340 875 l 181 875 l 181 1035 l 340 1035 m 688 861 l 688 701 l 528 701 l 528 861 l 688 861 m 514 1035 l 514 875 l 354 875 l 354 1035 l 514 1035 m 1208 514 l 1208 354 l 1049 354 l 1049 514 l 1208 514 m 1035 688 l 1035 528 l 875 528 l 875 688 l 1035 688 m 861 861 l 861 701 l 701 701 l 701 861 l 861 861 m 688 1035 l 688 875 l 528 875 l 528 1035 l 688 1035 m 1035 861 l 1035 701 l 875 701 l 875 861 l 1035 861 m 861 1035 l 861 875 l 701 875 l 701 1035 l 861 1035 m 1035 1035 l 1035 875 l 875 875 l 875 1035 l 1035 1035 m 861 1208 l 861 1049 l 701 1049 l 701 1208 l 861 1208 m 1208 1035 l 1208 875 l 1049 875 l 1049 1035 l 1208 1035 m 861 1382 l 861 1222 l 701 1222 l 701 1382 l 861 1382 z "},"+":{"ha":1215,"x_min":7,"x_max":1035,"o":"m 688 1035 l 688 875 l 528 875 l 528 1035 l 688 1035 m 514 340 l 514 181 l 354 181 l 354 340 l 514 340 m 167 688 l 167 528 l 7 528 l 7 688 l 167 688 m 688 340 l 688 181 l 528 181 l 528 340 l 688 340 m 514 514 l 514 354 l 354 354 l 354 514 l 514 514 m 340 688 l 340 528 l 181 528 l 181 688 l 340 688 m 688 514 l 688 354 l 528 354 l 528 514 l 688 514 m 514 688 l 514 528 l 354 528 l 354 688 l 514 688 m 688 688 l 688 528 l 528 528 l 528 688 l 688 688 m 514 861 l 514 701 l 354 701 l 354 861 l 514 861 m 861 688 l 861 528 l 701 528 l 701 688 l 861 688 m 688 861 l 688 701 l 528 701 l 528 861 l 688 861 m 514 1035 l 514 875 l 354 875 l 354 1035 l 514 1035 m 1035 688 l 1035 528 l 875 528 l 875 688 l 1035 688 z "},",":{"ha":1042,"x_min":181,"x_max":688,"o":"m 688 340 l 688 181 l 528 181 l 528 340 l 688 340 m 340 167 l 340 7 l 181 7 l 181 167 l 340 167 m 340 340 l 340 181 l 181 181 l 181 340 l 340 340 m 340 -181 l 340 -340 l 181 -340 l 181 -181 l 340 -181 m 514 -181 l 514 -340 l 354 -340 l 354 -181 l 514 -181 m 514 -7 l 514 -167 l 354 -167 l 354 -7 l 514 -7 m 688 -7 l 688 -167 l 528 -167 l 528 -7 l 688 -7 m 514 167 l 514 7 l 354 7 l 354 167 l 514 167 m 688 167 l 688 7 l 528 7 l 528 167 l 688 167 m 514 340 l 514 181 l 354 181 l 354 340 l 514 340 z "},"-":{"ha":1042,"x_min":7,"x_max":861,"o":"m 861 514 l 861 354 l 701 354 l 701 514 l 861 514 m 167 514 l 167 354 l 7 354 l 7 514 l 167 514 m 340 514 l 340 354 l 181 354 l 181 514 l 340 514 m 514 514 l 514 354 l 354 354 l 354 514 l 514 514 m 688 514 l 688 354 l 528 354 l 528 514 l 688 514 z "},".":{"ha":1042,"x_min":181,"x_max":688,"o":"m 688 340 l 688 181 l 528 181 l 528 340 l 688 340 m 340 167 l 340 7 l 181 7 l 181 167 l 340 167 m 340 340 l 340 181 l 181 181 l 181 340 l 340 340 m 514 167 l 514 7 l 354 7 l 354 167 l 514 167 m 688 167 l 688 7 l 528 7 l 528 167 l 688 167 m 514 340 l 514 181 l 354 181 l 354 340 l 514 340 z "},"/":{"ha":1215,"x_min":7,"x_max":1035,"o":"m 1035 1208 l 1035 1049 l 875 1049 l 875 1208 l 1035 1208 m 167 167 l 167 7 l 7 7 l 7 167 l 167 167 m 340 167 l 340 7 l 181 7 l 181 167 l 340 167 m 167 340 l 167 181 l 7 181 l 7 340 l 167 340 m 340 514 l 340 354 l 181 354 l 181 514 l 340 514 m 340 340 l 340 181 l 181 181 l 181 340 l 340 340 m 514 514 l 514 354 l 354 354 l 354 514 l 514 514 m 514 688 l 514 528 l 354 528 l 354 688 l 514 688 m 861 1035 l 861 875 l 701 875 l 701 1035 l 861 1035 m 688 688 l 688 528 l 528 528 l 528 688 l 688 688 m 861 861 l 861 701 l 701 701 l 701 861 l 861 861 m 1035 1035 l 1035 875 l 875 875 l 875 1035 l 1035 1035 m 861 1208 l 861 1049 l 701 1049 l 701 1208 l 861 1208 m 688 861 l 688 701 l 528 701 l 528 861 l 688 861 z "},":":{"ha":1042,"x_min":181,"x_max":688,"o":"m 688 861 l 688 701 l 528 701 l 528 861 l 688 861 m 340 167 l 340 7 l 181 7 l 181 167 l 340 167 m 340 340 l 340 181 l 181 181 l 181 340 l 340 340 m 340 688 l 340 528 l 181 528 l 181 688 l 340 688 m 340 861 l 340 701 l 181 701 l 181 861 l 340 861 m 514 167 l 514 7 l 354 7 l 354 167 l 514 167 m 688 167 l 688 7 l 528 7 l 528 167 l 688 167 m 514 340 l 514 181 l 354 181 l 354 340 l 514 340 m 688 340 l 688 181 l 528 181 l 528 340 l 688 340 m 514 688 l 514 528 l 354 528 l 354 688 l 514 688 m 688 688 l 688 528 l 528 528 l 528 688 l 688 688 m 514 861 l 514 701 l 354 701 l 354 861 l 514 861 z "},";":{"ha":1042,"x_min":181,"x_max":688,"o":"m 688 861 l 688 701 l 528 701 l 528 861 l 688 861 m 340 167 l 340 7 l 181 7 l 181 167 l 340 167 m 340 340 l 340 181 l 181 181 l 181 340 l 340 340 m 340 688 l 340 528 l 181 528 l 181 688 l 340 688 m 340 861 l 340 701 l 181 701 l 181 861 l 340 861 m 340 -181 l 340 -340 l 181 -340 l 181 -181 l 340 -181 m 514 -181 l 514 -340 l 354 -340 l 354 -181 l 514 -181 m 514 -7 l 514 -167 l 354 -167 l 354 -7 l 514 -7 m 688 -7 l 688 -167 l 528 -167 l 528 -7 l 688 -7 m 514 167 l 514 7 l 354 7 l 354 167 l 514 167 m 688 167 l 688 7 l 528 7 l 528 167 l 688 167 m 514 340 l 514 181 l 354 181 l 354 340 l 514 340 m 688 340 l 688 181 l 528 181 l 528 340 l 688 340 m 514 688 l 514 528 l 354 528 l 354 688 l 514 688 m 688 688 l 688 528 l 528 528 l 528 688 l 688 688 m 514 861 l 514 701 l 354 701 l 354 861 l 514 861 z "},"<":{"ha":1389,"x_min":181,"x_max":1035,"o":"m 1035 1208 l 1035 1049 l 875 1049 l 875 1208 l 1035 1208 m 861 167 l 861 7 l 701 7 l 701 167 l 861 167 m 688 340 l 688 181 l 528 181 l 528 340 l 688 340 m 514 514 l 514 354 l 354 354 l 354 514 l 514 514 m 340 688 l 340 528 l 181 528 l 181 688 l 340 688 m 1035 167 l 1035 7 l 875 7 l 875 167 l 1035 167 m 861 340 l 861 181 l 701 181 l 701 340 l 861 340 m 688 514 l 688 354 l 528 354 l 528 514 l 688 514 m 514 688 l 514 528 l 354 528 l 354 688 l 514 688 m 514 861 l 514 701 l 354 701 l 354 861 l 514 861 m 688 861 l 688 701 l 528 701 l 528 861 l 688 861 m 688 1035 l 688 875 l 528 875 l 528 1035 l 688 1035 m 861 1035 l 861 875 l 701 875 l 701 1035 l 861 1035 m 861 1208 l 861 1049 l 701 1049 l 701 1208 l 861 1208 z "},"=":{"ha":1215,"x_min":7,"x_max":1035,"o":"m 1035 861 l 1035 701 l 875 701 l 875 861 l 1035 861 m 167 514 l 167 354 l 7 354 l 7 514 l 167 514 m 340 514 l 340 354 l 181 354 l 181 514 l 340 514 m 514 514 l 514 354 l 354 354 l 354 514 l 514 514 m 167 861 l 167 701 l 7 701 l 7 861 l 167 861 m 688 514 l 688 354 l 528 354 l 528 514 l 688 514 m 340 861 l 340 701 l 181 701 l 181 861 l 340 861 m 861 514 l 861 354 l 701 354 l 701 514 l 861 514 m 514 861 l 514 701 l 354 701 l 354 861 l 514 861 m 1035 514 l 1035 354 l 875 354 l 875 514 l 1035 514 m 688 861 l 688 701 l 528 701 l 528 861 l 688 861 m 861 861 l 861 701 l 701 701 l 701 861 l 861 861 z "},">":{"ha":1389,"x_min":181,"x_max":1035,"o":"m 514 1208 l 514 1049 l 354 1049 l 354 1208 l 514 1208 m 340 167 l 340 7 l 181 7 l 181 167 l 340 167 m 514 167 l 514 7 l 354 7 l 354 167 l 514 167 m 514 340 l 514 181 l 354 181 l 354 340 l 514 340 m 688 340 l 688 181 l 528 181 l 528 340 l 688 340 m 688 514 l 688 354 l 528 354 l 528 514 l 688 514 m 861 514 l 861 354 l 701 354 l 701 514 l 861 514 m 861 688 l 861 528 l 701 528 l 701 688 l 861 688 m 688 861 l 688 701 l 528 701 l 528 861 l 688 861 m 514 1035 l 514 875 l 354 875 l 354 1035 l 514 1035 m 340 1208 l 340 1049 l 181 1049 l 181 1208 l 340 1208 m 1035 688 l 1035 528 l 875 528 l 875 688 l 1035 688 m 861 861 l 861 701 l 701 701 l 701 861 l 861 861 m 688 1035 l 688 875 l 528 875 l 528 1035 l 688 1035 z "},"?":{"ha":1215,"x_min":7,"x_max":1035,"o":"m 861 1382 l 861 1222 l 701 1222 l 701 1382 l 861 1382 m 340 167 l 340 7 l 181 7 l 181 167 l 340 167 m 340 340 l 340 181 l 181 181 l 181 340 l 340 340 m 340 688 l 340 528 l 181 528 l 181 688 l 340 688 m 340 861 l 340 701 l 181 701 l 181 861 l 340 861 m 514 861 l 514 701 l 354 701 l 354 861 l 514 861 m 167 1208 l 167 1049 l 7 1049 l 7 1208 l 167 1208 m 167 1382 l 167 1222 l 7 1222 l 7 1382 l 167 1382 m 514 167 l 514 7 l 354 7 l 354 167 l 514 167 m 688 167 l 688 7 l 528 7 l 528 167 l 688 167 m 514 340 l 514 181 l 354 181 l 354 340 l 514 340 m 688 340 l 688 181 l 528 181 l 528 340 l 688 340 m 514 688 l 514 528 l 354 528 l 354 688 l 514 688 m 688 861 l 688 701 l 528 701 l 528 861 l 688 861 m 340 1208 l 340 1049 l 181 1049 l 181 1208 l 340 1208 m 861 861 l 861 701 l 701 701 l 701 861 l 861 861 m 514 1208 l 514 1049 l 354 1049 l 354 1208 l 514 1208 m 340 1382 l 340 1222 l 181 1222 l 181 1382 l 340 1382 m 861 1035 l 861 875 l 701 875 l 701 1035 l 861 1035 m 688 1208 l 688 1049 l 528 1049 l 528 1208 l 688 1208 m 514 1382 l 514 1222 l 354 1222 l 354 1382 l 514 1382 m 1035 1035 l 1035 875 l 875 875 l 875 1035 l 1035 1035 m 861 1208 l 861 1049 l 701 1049 l 701 1208 l 861 1208 m 688 1382 l 688 1222 l 528 1222 l 528 1382 l 688 1382 m 1035 1208 l 1035 1049 l 875 1049 l 875 1208 l 1035 1208 z "},"@":{"ha":1563,"x_min":7,"x_max":1382,"o":"m 514 -7 l 514 -167 l 354 -167 l 354 -7 l 514 -7 m 167 340 l 167 181 l 7 181 l 7 340 l 167 340 m 167 514 l 167 354 l 7 354 l 7 514 l 167 514 m 167 688 l 167 528 l 7 528 l 7 688 l 167 688 m 167 861 l 167 701 l 7 701 l 7 861 l 167 861 m 340 167 l 340 7 l 181 7 l 181 167 l 340 167 m 340 340 l 340 181 l 181 181 l 181 340 l 340 340 m 340 514 l 340 354 l 181 354 l 181 514 l 340 514 m 688 340 l 688 181 l 528 181 l 528 340 l 688 340 m 340 688 l 340 528 l 181 528 l 181 688 l 340 688 m 861 340 l 861 181 l 701 181 l 701 340 l 861 340 m 688 514 l 688 354 l 528 354 l 528 514 l 688 514 m 340 861 l 340 701 l 181 701 l 181 861 l 340 861 m 861 514 l 861 354 l 701 354 l 701 514 l 861 514 m 340 1035 l 340 875 l 181 875 l 181 1035 l 340 1035 m 861 688 l 861 528 l 701 528 l 701 688 l 861 688 m 1035 688 l 1035 528 l 875 528 l 875 688 l 1035 688 m 1208 688 l 1208 528 l 1049 528 l 1049 688 l 1208 688 m 1208 861 l 1208 701 l 1049 701 l 1049 861 l 1208 861 m 167 167 l 167 7 l 7 7 l 7 167 l 167 167 m 340 -7 l 340 -167 l 181 -167 l 181 -7 l 340 -7 m 688 861 l 688 701 l 528 701 l 528 861 l 688 861 m 688 1035 l 688 875 l 528 875 l 528 1035 l 688 1035 m 514 1035 l 514 875 l 354 875 l 354 1035 l 514 1035 m 1035 1035 l 1035 875 l 875 875 l 875 1035 l 1035 1035 m 861 1035 l 861 875 l 701 875 l 701 1035 l 861 1035 m 861 -7 l 861 -167 l 701 -167 l 701 -7 l 861 -7 m 688 -7 l 688 -167 l 528 -167 l 528 -7 l 688 -7 m 1035 -7 l 1035 -167 l 875 -167 l 875 -7 l 1035 -7 m 1035 340 l 1035 181 l 875 181 l 875 340 l 1035 340 m 1035 514 l 1035 354 l 875 354 l 875 514 l 1035 514 m 688 688 l 688 528 l 528 528 l 528 688 l 688 688 m 861 861 l 861 701 l 701 701 l 701 861 l 861 861 m 1035 861 l 1035 701 l 875 701 l 875 861 l 1035 861 m 1208 514 l 1208 354 l 1049 354 l 1049 514 l 1208 514 m 1382 688 l 1382 528 l 1222 528 l 1222 688 l 1382 688 m 1382 861 l 1382 701 l 1222 701 l 1222 861 l 1382 861 m 1208 1035 l 1208 875 l 1049 875 l 1049 1035 l 1208 1035 m 1208 -7 l 1208 -167 l 1049 -167 l 1049 -7 l 1208 -7 m 1208 340 l 1208 181 l 1049 181 l 1049 340 l 1208 340 m 1382 514 l 1382 354 l 1222 354 l 1222 514 l 1382 514 z "},"A":{"ha":1389,"x_min":7,"x_max":1208,"o":"m 1208 1035 l 1208 875 l 1049 875 l 1049 1035 l 1208 1035 m 167 1035 l 167 875 l 7 875 l 7 1035 l 167 1035 m 688 1208 l 688 1049 l 528 1049 l 528 1208 l 688 1208 m 688 514 l 688 354 l 528 354 l 528 514 l 688 514 m 861 1035 l 861 875 l 701 875 l 701 1035 l 861 1035 m 861 861 l 861 701 l 701 701 l 701 861 l 861 861 m 861 688 l 861 528 l 701 528 l 701 688 l 861 688 m 861 340 l 861 181 l 701 181 l 701 340 l 861 340 m 861 167 l 861 7 l 701 7 l 701 167 l 861 167 m 167 167 l 167 7 l 7 7 l 7 167 l 167 167 m 340 167 l 340 7 l 181 7 l 181 167 l 340 167 m 167 340 l 167 181 l 7 181 l 7 340 l 167 340 m 340 340 l 340 181 l 181 181 l 181 340 l 340 340 m 167 514 l 167 354 l 7 354 l 7 514 l 167 514 m 340 514 l 340 354 l 181 354 l 181 514 l 340 514 m 167 688 l 167 528 l 7 528 l 7 688 l 167 688 m 514 514 l 514 354 l 354 354 l 354 514 l 514 514 m 340 688 l 340 528 l 181 528 l 181 688 l 340 688 m 167 861 l 167 701 l 7 701 l 7 861 l 167 861 m 1035 167 l 1035 7 l 875 7 l 875 167 l 1035 167 m 861 514 l 861 354 l 701 354 l 701 514 l 861 514 m 340 861 l 340 701 l 181 701 l 181 861 l 340 861 m 1208 167 l 1208 7 l 1049 7 l 1049 167 l 1208 167 m 1035 340 l 1035 181 l 875 181 l 875 340 l 1035 340 m 340 1035 l 340 875 l 181 875 l 181 1035 l 340 1035 m 1208 340 l 1208 181 l 1049 181 l 1049 340 l 1208 340 m 1035 514 l 1035 354 l 875 354 l 875 514 l 1035 514 m 1208 514 l 1208 354 l 1049 354 l 1049 514 l 1208 514 m 1035 688 l 1035 528 l 875 528 l 875 688 l 1035 688 m 340 1208 l 340 1049 l 181 1049 l 181 1208 l 340 1208 m 1208 688 l 1208 528 l 1049 528 l 1049 688 l 1208 688 m 1035 861 l 1035 701 l 875 701 l 875 861 l 1035 861 m 514 1208 l 514 1049 l 354 1049 l 354 1208 l 514 1208 m 1035 1035 l 1035 875 l 875 875 l 875 1035 l 1035 1035 m 861 1208 l 861 1049 l 701 1049 l 701 1208 l 861 1208 m 1208 861 l 1208 701 l 1049 701 l 1049 861 l 1208 861 m 1035 1208 l 1035 1049 l 875 1049 l 875 1208 l 1035 1208 z "},"B":{"ha":1563,"x_min":7,"x_max":1382,"o":"m 1208 1035 l 1208 875 l 1049 875 l 1049 1035 l 1208 1035 m 514 1208 l 514 1049 l 354 1049 l 354 1208 l 514 1208 m 1382 1035 l 1382 875 l 1222 875 l 1222 1035 l 1382 1035 m 340 1208 l 340 1049 l 181 1049 l 181 1208 l 340 1208 m 1382 514 l 1382 354 l 1222 354 l 1222 514 l 1382 514 m 167 1208 l 167 1049 l 7 1049 l 7 1208 l 167 1208 m 340 1035 l 340 875 l 181 875 l 181 1035 l 340 1035 m 1382 340 l 1382 181 l 1222 181 l 1222 340 l 1382 340 m 1208 514 l 1208 354 l 1049 354 l 1049 514 l 1208 514 m 167 1035 l 167 875 l 7 875 l 7 1035 l 167 1035 m 340 861 l 340 701 l 181 701 l 181 861 l 340 861 m 514 688 l 514 528 l 354 528 l 354 688 l 514 688 m 1208 340 l 1208 181 l 1049 181 l 1049 340 l 1208 340 m 167 861 l 167 701 l 7 701 l 7 861 l 167 861 m 340 688 l 340 528 l 181 528 l 181 688 l 340 688 m 1208 167 l 1208 7 l 1049 7 l 1049 167 l 1208 167 m 167 688 l 167 528 l 7 528 l 7 688 l 167 688 m 340 514 l 340 354 l 181 354 l 181 514 l 340 514 m 167 514 l 167 354 l 7 354 l 7 514 l 167 514 m 340 340 l 340 181 l 181 181 l 181 340 l 340 340 m 514 167 l 514 7 l 354 7 l 354 167 l 514 167 m 167 340 l 167 181 l 7 181 l 7 340 l 167 340 m 340 167 l 340 7 l 181 7 l 181 167 l 340 167 m 167 167 l 167 7 l 7 7 l 7 167 l 167 167 m 514 1035 l 514 875 l 354 875 l 354 1035 l 514 1035 m 514 861 l 514 701 l 354 701 l 354 861 l 514 861 m 514 514 l 514 354 l 354 354 l 354 514 l 514 514 m 514 340 l 514 181 l 354 181 l 354 340 l 514 340 m 861 167 l 861 7 l 701 7 l 701 167 l 861 167 m 861 688 l 861 528 l 701 528 l 701 688 l 861 688 m 861 1208 l 861 1049 l 701 1049 l 701 1208 l 861 1208 m 688 688 l 688 528 l 528 528 l 528 688 l 688 688 m 688 1208 l 688 1049 l 528 1049 l 528 1208 l 688 1208 m 688 167 l 688 7 l 528 7 l 528 167 l 688 167 m 1035 1208 l 1035 1049 l 875 1049 l 875 1208 l 1035 1208 m 1035 1035 l 1035 875 l 875 875 l 875 1035 l 1035 1035 m 1035 861 l 1035 701 l 875 701 l 875 861 l 1035 861 m 1035 688 l 1035 528 l 875 528 l 875 688 l 1035 688 m 1035 514 l 1035 354 l 875 354 l 875 514 l 1035 514 m 1035 340 l 1035 181 l 875 181 l 875 340 l 1035 340 m 1035 167 l 1035 7 l 875 7 l 875 167 l 1035 167 m 1208 1208 l 1208 1049 l 1049 1049 l 1049 1208 l 1208 1208 m 1208 861 l 1208 701 l 1049 701 l 1049 861 l 1208 861 z "},"C":{"ha":1389,"x_min":7,"x_max":1208,"o":"m 1035 1208 l 1035 1049 l 875 1049 l 875 1208 l 1035 1208 m 1035 1035 l 1035 875 l 875 875 l 875 1035 l 1035 1035 m 1208 340 l 1208 181 l 1049 181 l 1049 340 l 1208 340 m 861 1208 l 861 1049 l 701 1049 l 701 1208 l 861 1208 m 1208 1035 l 1208 875 l 1049 875 l 1049 1035 l 1208 1035 m 1035 167 l 1035 7 l 875 7 l 875 167 l 1035 167 m 1208 1208 l 1208 1049 l 1049 1049 l 1049 1208 l 1208 1208 m 514 1035 l 514 875 l 354 875 l 354 1035 l 514 1035 m 514 861 l 514 701 l 354 701 l 354 861 l 514 861 m 514 688 l 514 528 l 354 528 l 354 688 l 514 688 m 514 514 l 514 354 l 354 354 l 354 514 l 514 514 m 514 340 l 514 181 l 354 181 l 354 340 l 514 340 m 340 167 l 340 7 l 181 7 l 181 167 l 340 167 m 167 340 l 167 181 l 7 181 l 7 340 l 167 340 m 514 167 l 514 7 l 354 7 l 354 167 l 514 167 m 340 340 l 340 181 l 181 181 l 181 340 l 340 340 m 167 514 l 167 354 l 7 354 l 7 514 l 167 514 m 688 167 l 688 7 l 528 7 l 528 167 l 688 167 m 340 514 l 340 354 l 181 354 l 181 514 l 340 514 m 167 688 l 167 528 l 7 528 l 7 688 l 167 688 m 861 167 l 861 7 l 701 7 l 701 167 l 861 167 m 340 688 l 340 528 l 181 528 l 181 688 l 340 688 m 167 861 l 167 701 l 7 701 l 7 861 l 167 861 m 340 861 l 340 701 l 181 701 l 181 861 l 340 861 m 167 1035 l 167 875 l 7 875 l 7 1035 l 167 1035 m 340 1035 l 340 875 l 181 875 l 181 1035 l 340 1035 m 340 1208 l 340 1049 l 181 1049 l 181 1208 l 340 1208 m 514 1208 l 514 1049 l 354 1049 l 354 1208 l 514 1208 m 688 1208 l 688 1049 l 528 1049 l 528 1208 l 688 1208 z "},"D":{"ha":1563,"x_min":7,"x_max":1382,"o":"m 1035 1208 l 1035 1049 l 875 1049 l 875 1208 l 1035 1208 m 861 340 l 861 181 l 701 181 l 701 340 l 861 340 m 861 1035 l 861 875 l 701 875 l 701 1035 l 861 1035 m 1035 861 l 1035 701 l 875 701 l 875 861 l 1035 861 m 1035 688 l 1035 528 l 875 528 l 875 688 l 1035 688 m 1035 514 l 1035 354 l 875 354 l 875 514 l 1035 514 m 688 167 l 688 7 l 528 7 l 528 167 l 688 167 m 688 1208 l 688 1049 l 528 1049 l 528 1208 l 688 1208 m 861 1208 l 861 1049 l 701 1049 l 701 1208 l 861 1208 m 861 167 l 861 7 l 701 7 l 701 167 l 861 167 m 514 340 l 514 181 l 354 181 l 354 340 l 514 340 m 514 514 l 514 354 l 354 354 l 354 514 l 514 514 m 514 688 l 514 528 l 354 528 l 354 688 l 514 688 m 514 861 l 514 701 l 354 701 l 354 861 l 514 861 m 514 1035 l 514 875 l 354 875 l 354 1035 l 514 1035 m 167 167 l 167 7 l 7 7 l 7 167 l 167 167 m 340 167 l 340 7 l 181 7 l 181 167 l 340 167 m 167 340 l 167 181 l 7 181 l 7 340 l 167 340 m 514 167 l 514 7 l 354 7 l 354 167 l 514 167 m 340 340 l 340 181 l 181 181 l 181 340 l 340 340 m 167 514 l 167 354 l 7 354 l 7 514 l 167 514 m 1035 167 l 1035 7 l 875 7 l 875 167 l 1035 167 m 340 514 l 340 354 l 181 354 l 181 514 l 340 514 m 167 688 l 167 528 l 7 528 l 7 688 l 167 688 m 1035 340 l 1035 181 l 875 181 l 875 340 l 1035 340 m 340 688 l 340 528 l 181 528 l 181 688 l 340 688 m 167 861 l 167 701 l 7 701 l 7 861 l 167 861 m 1208 340 l 1208 181 l 1049 181 l 1049 340 l 1208 340 m 340 861 l 340 701 l 181 701 l 181 861 l 340 861 m 167 1035 l 167 875 l 7 875 l 7 1035 l 167 1035 m 1208 514 l 1208 354 l 1049 354 l 1049 514 l 1208 514 m 340 1035 l 340 875 l 181 875 l 181 1035 l 340 1035 m 167 1208 l 167 1049 l 7 1049 l 7 1208 l 167 1208 m 1382 514 l 1382 354 l 1222 354 l 1222 514 l 1382 514 m 1208 688 l 1208 528 l 1049 528 l 1049 688 l 1208 688 m 340 1208 l 340 1049 l 181 1049 l 181 1208 l 340 1208 m 1208 861 l 1208 701 l 1049 701 l 1049 861 l 1208 861 m 1035 1035 l 1035 875 l 875 875 l 875 1035 l 1035 1035 m 514 1208 l 514 1049 l 354 1049 l 354 1208 l 514 1208 m 1382 688 l 1382 528 l 1222 528 l 1222 688 l 1382 688 m 1208 1035 l 1208 875 l 1049 875 l 1049 1035 l 1208 1035 m 1382 861 l 1382 701 l 1222 701 l 1222 861 l 1382 861 z "},"E":{"ha":1389,"x_min":7,"x_max":1208,"o":"m 1035 1208 l 1035 1049 l 875 1049 l 875 1208 l 1035 1208 m 1035 1035 l 1035 875 l 875 875 l 875 1035 l 1035 1035 m 1035 340 l 1035 181 l 875 181 l 875 340 l 1035 340 m 1208 1035 l 1208 875 l 1049 875 l 1049 1035 l 1208 1035 m 1208 340 l 1208 181 l 1049 181 l 1049 340 l 1208 340 m 1035 688 l 1035 528 l 875 528 l 875 688 l 1035 688 m 1208 167 l 1208 7 l 1049 7 l 1049 167 l 1208 167 m 1208 1208 l 1208 1049 l 1049 1049 l 1049 1208 l 1208 1208 m 514 1035 l 514 875 l 354 875 l 354 1035 l 514 1035 m 514 861 l 514 701 l 354 701 l 354 861 l 514 861 m 514 514 l 514 354 l 354 354 l 354 514 l 514 514 m 514 340 l 514 181 l 354 181 l 354 340 l 514 340 m 167 167 l 167 7 l 7 7 l 7 167 l 167 167 m 340 167 l 340 7 l 181 7 l 181 167 l 340 167 m 167 340 l 167 181 l 7 181 l 7 340 l 167 340 m 514 167 l 514 7 l 354 7 l 354 167 l 514 167 m 340 340 l 340 181 l 181 181 l 181 340 l 340 340 m 167 514 l 167 354 l 7 354 l 7 514 l 167 514 m 688 167 l 688 7 l 528 7 l 528 167 l 688 167 m 340 514 l 340 354 l 181 354 l 181 514 l 340 514 m 167 688 l 167 528 l 7 528 l 7 688 l 167 688 m 861 167 l 861 7 l 701 7 l 701 167 l 861 167 m 340 688 l 340 528 l 181 528 l 181 688 l 340 688 m 167 861 l 167 701 l 7 701 l 7 861 l 167 861 m 1035 167 l 1035 7 l 875 7 l 875 167 l 1035 167 m 514 688 l 514 528 l 354 528 l 354 688 l 514 688 m 340 861 l 340 701 l 181 701 l 181 861 l 340 861 m 167 1035 l 167 875 l 7 875 l 7 1035 l 167 1035 m 688 688 l 688 528 l 528 528 l 528 688 l 688 688 m 340 1035 l 340 875 l 181 875 l 181 1035 l 340 1035 m 167 1208 l 167 1049 l 7 1049 l 7 1208 l 167 1208 m 861 688 l 861 528 l 701 528 l 701 688 l 861 688 m 340 1208 l 340 1049 l 181 1049 l 181 1208 l 340 1208 m 514 1208 l 514 1049 l 354 1049 l 354 1208 l 514 1208 m 688 1208 l 688 1049 l 528 1049 l 528 1208 l 688 1208 m 861 1208 l 861 1049 l 701 1049 l 701 1208 l 861 1208 z "},"F":{"ha":1215,"x_min":7,"x_max":1035,"o":"m 861 1208 l 861 1049 l 701 1049 l 701 1208 l 861 1208 m 688 514 l 688 354 l 528 354 l 528 514 l 688 514 m 861 514 l 861 354 l 701 354 l 701 514 l 861 514 m 1035 1208 l 1035 1049 l 875 1049 l 875 1208 l 1035 1208 m 1035 1035 l 1035 875 l 875 875 l 875 1035 l 1035 1035 m 861 1035 l 861 875 l 701 875 l 701 1035 l 861 1035 m 514 167 l 514 7 l 354 7 l 354 167 l 514 167 m 514 340 l 514 181 l 354 181 l 354 340 l 514 340 m 514 514 l 514 354 l 354 354 l 354 514 l 514 514 m 514 861 l 514 701 l 354 701 l 354 861 l 514 861 m 514 1035 l 514 875 l 354 875 l 354 1035 l 514 1035 m 167 167 l 167 7 l 7 7 l 7 167 l 167 167 m 340 167 l 340 7 l 181 7 l 181 167 l 340 167 m 167 340 l 167 181 l 7 181 l 7 340 l 167 340 m 340 340 l 340 181 l 181 181 l 181 340 l 340 340 m 167 514 l 167 354 l 7 354 l 7 514 l 167 514 m 340 514 l 340 354 l 181 354 l 181 514 l 340 514 m 167 688 l 167 528 l 7 528 l 7 688 l 167 688 m 340 688 l 340 528 l 181 528 l 181 688 l 340 688 m 167 861 l 167 701 l 7 701 l 7 861 l 167 861 m 514 688 l 514 528 l 354 528 l 354 688 l 514 688 m 340 861 l 340 701 l 181 701 l 181 861 l 340 861 m 167 1035 l 167 875 l 7 875 l 7 1035 l 167 1035 m 340 1035 l 340 875 l 181 875 l 181 1035 l 340 1035 m 167 1208 l 167 1049 l 7 1049 l 7 1208 l 167 1208 m 340 1208 l 340 1049 l 181 1049 l 181 1208 l 340 1208 m 514 1208 l 514 1049 l 354 1049 l 354 1208 l 514 1208 m 688 1208 l 688 1049 l 528 1049 l 528 1208 l 688 1208 z "},"G":{"ha":1389,"x_min":7,"x_max":1208,"o":"m 861 1208 l 861 1049 l 701 1049 l 701 1208 l 861 1208 m 1208 1035 l 1208 875 l 1049 875 l 1049 1035 l 1208 1035 m 1208 1208 l 1208 1049 l 1049 1049 l 1049 1208 l 1208 1208 m 1035 340 l 1035 181 l 875 181 l 875 340 l 1035 340 m 1035 1035 l 1035 875 l 875 875 l 875 1035 l 1035 1035 m 1035 1208 l 1035 1049 l 875 1049 l 875 1208 l 1035 1208 m 861 167 l 861 7 l 701 7 l 701 167 l 861 167 m 340 1208 l 340 1049 l 181 1049 l 181 1208 l 340 1208 m 167 1035 l 167 875 l 7 875 l 7 1035 l 167 1035 m 167 861 l 167 701 l 7 701 l 7 861 l 167 861 m 167 688 l 167 528 l 7 528 l 7 688 l 167 688 m 167 514 l 167 354 l 7 354 l 7 514 l 167 514 m 167 340 l 167 181 l 7 181 l 7 340 l 167 340 m 340 167 l 340 7 l 181 7 l 181 167 l 340 167 m 514 167 l 514 7 l 354 7 l 354 167 l 514 167 m 340 340 l 340 181 l 181 181 l 181 340 l 340 340 m 688 167 l 688 7 l 528 7 l 528 167 l 688 167 m 514 340 l 514 181 l 354 181 l 354 340 l 514 340 m 340 514 l 340 354 l 181 354 l 181 514 l 340 514 m 1035 167 l 1035 7 l 875 7 l 875 167 l 1035 167 m 514 514 l 514 354 l 354 354 l 354 514 l 514 514 m 340 688 l 340 528 l 181 528 l 181 688 l 340 688 m 861 514 l 861 354 l 701 354 l 701 514 l 861 514 m 514 688 l 514 528 l 354 528 l 354 688 l 514 688 m 340 861 l 340 701 l 181 701 l 181 861 l 340 861 m 1208 340 l 1208 181 l 1049 181 l 1049 340 l 1208 340 m 1035 514 l 1035 354 l 875 354 l 875 514 l 1035 514 m 514 861 l 514 701 l 354 701 l 354 861 l 514 861 m 340 1035 l 340 875 l 181 875 l 181 1035 l 340 1035 m 514 1035 l 514 875 l 354 875 l 354 1035 l 514 1035 m 1208 514 l 1208 354 l 1049 354 l 1049 514 l 1208 514 m 514 1208 l 514 1049 l 354 1049 l 354 1208 l 514 1208 m 688 1208 l 688 1049 l 528 1049 l 528 1208 l 688 1208 z "},"H":{"ha":1563,"x_min":7,"x_max":1382,"o":"m 1208 1208 l 1208 1049 l 1049 1049 l 1049 1208 l 1208 1208 m 861 688 l 861 528 l 701 528 l 701 688 l 861 688 m 1382 1208 l 1382 1049 l 1222 1049 l 1222 1208 l 1382 1208 m 1382 1035 l 1382 875 l 1222 875 l 1222 1035 l 1382 1035 m 1382 861 l 1382 701 l 1222 701 l 1222 861 l 1382 861 m 1382 688 l 1382 528 l 1222 528 l 1222 688 l 1382 688 m 1382 514 l 1382 354 l 1222 354 l 1222 514 l 1382 514 m 1382 340 l 1382 181 l 1222 181 l 1222 340 l 1382 340 m 1382 167 l 1382 7 l 1222 7 l 1222 167 l 1382 167 m 514 167 l 514 7 l 354 7 l 354 167 l 514 167 m 514 340 l 514 181 l 354 181 l 354 340 l 514 340 m 514 514 l 514 354 l 354 354 l 354 514 l 514 514 m 514 861 l 514 701 l 354 701 l 354 861 l 514 861 m 514 1035 l 514 875 l 354 875 l 354 1035 l 514 1035 m 514 1208 l 514 1049 l 354 1049 l 354 1208 l 514 1208 m 167 167 l 167 7 l 7 7 l 7 167 l 167 167 m 340 167 l 340 7 l 181 7 l 181 167 l 340 167 m 167 340 l 167 181 l 7 181 l 7 340 l 167 340 m 340 340 l 340 181 l 181 181 l 181 340 l 340 340 m 167 514 l 167 354 l 7 354 l 7 514 l 167 514 m 340 514 l 340 354 l 181 354 l 181 514 l 340 514 m 167 688 l 167 528 l 7 528 l 7 688 l 167 688 m 1035 167 l 1035 7 l 875 7 l 875 167 l 1035 167 m 340 688 l 340 528 l 181 528 l 181 688 l 340 688 m 167 861 l 167 701 l 7 701 l 7 861 l 167 861 m 1208 167 l 1208 7 l 1049 7 l 1049 167 l 1208 167 m 1035 340 l 1035 181 l 875 181 l 875 340 l 1035 340 m 514 688 l 514 528 l 354 528 l 354 688 l 514 688 m 340 861 l 340 701 l 181 701 l 181 861 l 340 861 m 167 1035 l 167 875 l 7 875 l 7 1035 l 167 1035 m 1208 340 l 1208 181 l 1049 181 l 1049 340 l 1208 340 m 1035 514 l 1035 354 l 875 354 l 875 514 l 1035 514 m 688 688 l 688 528 l 528 528 l 528 688 l 688 688 m 340 1035 l 340 875 l 181 875 l 181 1035 l 340 1035 m 167 1208 l 167 1049 l 7 1049 l 7 1208 l 167 1208 m 1208 514 l 1208 354 l 1049 354 l 1049 514 l 1208 514 m 1035 688 l 1035 528 l 875 528 l 875 688 l 1035 688 m 340 1208 l 340 1049 l 181 1049 l 181 1208 l 340 1208 m 1208 688 l 1208 528 l 1049 528 l 1049 688 l 1208 688 m 1035 861 l 1035 701 l 875 701 l 875 861 l 1035 861 m 1208 861 l 1208 701 l 1049 701 l 1049 861 l 1208 861 m 1035 1035 l 1035 875 l 875 875 l 875 1035 l 1035 1035 m 1208 1035 l 1208 875 l 1049 875 l 1049 1035 l 1208 1035 m 1035 1208 l 1035 1049 l 875 1049 l 875 1208 l 1035 1208 z "},"I":{"ha":1042,"x_min":7,"x_max":861,"o":"m 688 1208 l 688 1049 l 528 1049 l 528 1208 l 688 1208 m 861 167 l 861 7 l 701 7 l 701 167 l 861 167 m 688 340 l 688 181 l 528 181 l 528 340 l 688 340 m 688 514 l 688 354 l 528 354 l 528 514 l 688 514 m 688 688 l 688 528 l 528 528 l 528 688 l 688 688 m 688 861 l 688 701 l 528 701 l 528 861 l 688 861 m 688 1035 l 688 875 l 528 875 l 528 1035 l 688 1035 m 861 1208 l 861 1049 l 701 1049 l 701 1208 l 861 1208 m 167 167 l 167 7 l 7 7 l 7 167 l 167 167 m 340 167 l 340 7 l 181 7 l 181 167 l 340 167 m 514 167 l 514 7 l 354 7 l 354 167 l 514 167 m 340 340 l 340 181 l 181 181 l 181 340 l 340 340 m 688 167 l 688 7 l 528 7 l 528 167 l 688 167 m 514 340 l 514 181 l 354 181 l 354 340 l 514 340 m 340 514 l 340 354 l 181 354 l 181 514 l 340 514 m 514 514 l 514 354 l 354 354 l 354 514 l 514 514 m 340 688 l 340 528 l 181 528 l 181 688 l 340 688 m 514 688 l 514 528 l 354 528 l 354 688 l 514 688 m 340 861 l 340 701 l 181 701 l 181 861 l 340 861 m 514 861 l 514 701 l 354 701 l 354 861 l 514 861 m 340 1035 l 340 875 l 181 875 l 181 1035 l 340 1035 m 167 1208 l 167 1049 l 7 1049 l 7 1208 l 167 1208 m 514 1035 l 514 875 l 354 875 l 354 1035 l 514 1035 m 340 1208 l 340 1049 l 181 1049 l 181 1208 l 340 1208 m 514 1208 l 514 1049 l 354 1049 l 354 1208 l 514 1208 z "},"J":{"ha":1389,"x_min":7,"x_max":1208,"o":"m 1208 1208 l 1208 1049 l 1049 1049 l 1049 1208 l 1208 1208 m 688 1208 l 688 1049 l 528 1049 l 528 1208 l 688 1208 m 688 167 l 688 7 l 528 7 l 528 167 l 688 167 m 340 340 l 340 181 l 181 181 l 181 340 l 340 340 m 340 514 l 340 354 l 181 354 l 181 514 l 340 514 m 861 1035 l 861 875 l 701 875 l 701 1035 l 861 1035 m 861 861 l 861 701 l 701 701 l 701 861 l 861 861 m 861 688 l 861 528 l 701 528 l 701 688 l 861 688 m 861 514 l 861 354 l 701 354 l 701 514 l 861 514 m 861 340 l 861 181 l 701 181 l 701 340 l 861 340 m 340 167 l 340 7 l 181 7 l 181 167 l 340 167 m 167 340 l 167 181 l 7 181 l 7 340 l 167 340 m 514 167 l 514 7 l 354 7 l 354 167 l 514 167 m 167 514 l 167 354 l 7 354 l 7 514 l 167 514 m 861 167 l 861 7 l 701 7 l 701 167 l 861 167 m 1035 167 l 1035 7 l 875 7 l 875 167 l 1035 167 m 1035 340 l 1035 181 l 875 181 l 875 340 l 1035 340 m 1208 340 l 1208 181 l 1049 181 l 1049 340 l 1208 340 m 1035 514 l 1035 354 l 875 354 l 875 514 l 1035 514 m 1208 514 l 1208 354 l 1049 354 l 1049 514 l 1208 514 m 1035 688 l 1035 528 l 875 528 l 875 688 l 1035 688 m 1208 688 l 1208 528 l 1049 528 l 1049 688 l 1208 688 m 1035 861 l 1035 701 l 875 701 l 875 861 l 1035 861 m 514 1208 l 514 1049 l 354 1049 l 354 1208 l 514 1208 m 1208 861 l 1208 701 l 1049 701 l 1049 861 l 1208 861 m 1035 1035 l 1035 875 l 875 875 l 875 1035 l 1035 1035 m 861 1208 l 861 1049 l 701 1049 l 701 1208 l 861 1208 m 1208 1035 l 1208 875 l 1049 875 l 1049 1035 l 1208 1035 m 1035 1208 l 1035 1049 l 875 1049 l 875 1208 l 1035 1208 z "},"K":{"ha":1563,"x_min":7,"x_max":1382,"o":"m 1208 1208 l 1208 1049 l 1049 1049 l 1049 1208 l 1208 1208 m 688 688 l 688 528 l 528 528 l 528 688 l 688 688 m 1035 861 l 1035 701 l 875 701 l 875 861 l 1035 861 m 1035 1035 l 1035 875 l 875 875 l 875 1035 l 1035 1035 m 1382 1208 l 1382 1049 l 1222 1049 l 1222 1208 l 1382 1208 m 1382 1035 l 1382 875 l 1222 875 l 1222 1035 l 1382 1035 m 1208 861 l 1208 701 l 1049 701 l 1049 861 l 1208 861 m 1035 688 l 1035 528 l 875 528 l 875 688 l 1035 688 m 1208 514 l 1208 354 l 1049 354 l 1049 514 l 1208 514 m 1382 340 l 1382 181 l 1222 181 l 1222 340 l 1382 340 m 1382 167 l 1382 7 l 1222 7 l 1222 167 l 1382 167 m 514 1035 l 514 875 l 354 875 l 354 1035 l 514 1035 m 514 1208 l 514 1049 l 354 1049 l 354 1208 l 514 1208 m 514 861 l 514 701 l 354 701 l 354 861 l 514 861 m 514 514 l 514 354 l 354 354 l 354 514 l 514 514 m 514 340 l 514 181 l 354 181 l 354 340 l 514 340 m 514 167 l 514 7 l 354 7 l 354 167 l 514 167 m 167 167 l 167 7 l 7 7 l 7 167 l 167 167 m 340 167 l 340 7 l 181 7 l 181 167 l 340 167 m 167 340 l 167 181 l 7 181 l 7 340 l 167 340 m 340 340 l 340 181 l 181 181 l 181 340 l 340 340 m 167 514 l 167 354 l 7 354 l 7 514 l 167 514 m 340 514 l 340 354 l 181 354 l 181 514 l 340 514 m 167 688 l 167 528 l 7 528 l 7 688 l 167 688 m 1035 167 l 1035 7 l 875 7 l 875 167 l 1035 167 m 340 688 l 340 528 l 181 528 l 181 688 l 340 688 m 167 861 l 167 701 l 7 701 l 7 861 l 167 861 m 861 514 l 861 354 l 701 354 l 701 514 l 861 514 m 514 688 l 514 528 l 354 528 l 354 688 l 514 688 m 340 861 l 340 701 l 181 701 l 181 861 l 340 861 m 1208 167 l 1208 7 l 1049 7 l 1049 167 l 1208 167 m 1035 340 l 1035 181 l 875 181 l 875 340 l 1035 340 m 167 1035 l 167 875 l 7 875 l 7 1035 l 167 1035 m 861 688 l 861 528 l 701 528 l 701 688 l 861 688 m 340 1035 l 340 875 l 181 875 l 181 1035 l 340 1035 m 1208 340 l 1208 181 l 1049 181 l 1049 340 l 1208 340 m 1035 514 l 1035 354 l 875 354 l 875 514 l 1035 514 m 167 1208 l 167 1049 l 7 1049 l 7 1208 l 167 1208 m 340 1208 l 340 1049 l 181 1049 l 181 1208 l 340 1208 m 1035 1208 l 1035 1049 l 875 1049 l 875 1208 l 1035 1208 m 1208 1035 l 1208 875 l 1049 875 l 1049 1035 l 1208 1035 z "},"L":{"ha":1215,"x_min":7,"x_max":1035,"o":"m 340 1208 l 340 1049 l 181 1049 l 181 1208 l 340 1208 m 861 340 l 861 181 l 701 181 l 701 340 l 861 340 m 1035 340 l 1035 181 l 875 181 l 875 340 l 1035 340 m 1035 167 l 1035 7 l 875 7 l 875 167 l 1035 167 m 167 167 l 167 7 l 7 7 l 7 167 l 167 167 m 514 340 l 514 181 l 354 181 l 354 340 l 514 340 m 514 514 l 514 354 l 354 354 l 354 514 l 514 514 m 514 688 l 514 528 l 354 528 l 354 688 l 514 688 m 514 861 l 514 701 l 354 701 l 354 861 l 514 861 m 514 1035 l 514 875 l 354 875 l 354 1035 l 514 1035 m 514 1208 l 514 1049 l 354 1049 l 354 1208 l 514 1208 m 340 167 l 340 7 l 181 7 l 181 167 l 340 167 m 167 340 l 167 181 l 7 181 l 7 340 l 167 340 m 514 167 l 514 7 l 354 7 l 354 167 l 514 167 m 340 340 l 340 181 l 181 181 l 181 340 l 340 340 m 167 514 l 167 354 l 7 354 l 7 514 l 167 514 m 340 514 l 340 354 l 181 354 l 181 514 l 340 514 m 688 167 l 688 7 l 528 7 l 528 167 l 688 167 m 167 688 l 167 528 l 7 528 l 7 688 l 167 688 m 340 688 l 340 528 l 181 528 l 181 688 l 340 688 m 167 861 l 167 701 l 7 701 l 7 861 l 167 861 m 861 167 l 861 7 l 701 7 l 701 167 l 861 167 m 340 861 l 340 701 l 181 701 l 181 861 l 340 861 m 167 1035 l 167 875 l 7 875 l 7 1035 l 167 1035 m 340 1035 l 340 875 l 181 875 l 181 1035 l 340 1035 m 167 1208 l 167 1049 l 7 1049 l 7 1208 l 167 1208 z "},"M":{"ha":1736,"x_min":7,"x_max":1556,"o":"m 1208 1208 l 1208 1049 l 1049 1049 l 1049 1208 l 1208 1208 m 861 514 l 861 354 l 701 354 l 701 514 l 861 514 m 861 861 l 861 701 l 701 701 l 701 861 l 861 861 m 688 1035 l 688 875 l 528 875 l 528 1035 l 688 1035 m 514 1208 l 514 1049 l 354 1049 l 354 1208 l 514 1208 m 340 514 l 340 354 l 181 354 l 181 514 l 340 514 m 340 340 l 340 181 l 181 181 l 181 340 l 340 340 m 340 167 l 340 7 l 181 7 l 181 167 l 340 167 m 1382 167 l 1382 7 l 1222 7 l 1222 167 l 1382 167 m 1382 340 l 1382 181 l 1222 181 l 1222 340 l 1382 340 m 1382 514 l 1382 354 l 1222 354 l 1222 514 l 1382 514 m 1382 688 l 1382 528 l 1222 528 l 1222 688 l 1382 688 m 1382 861 l 1382 701 l 1222 701 l 1222 861 l 1382 861 m 1382 1035 l 1382 875 l 1222 875 l 1222 1035 l 1382 1035 m 1382 1208 l 1382 1049 l 1222 1049 l 1222 1208 l 1382 1208 m 1556 1208 l 1556 1049 l 1396 1049 l 1396 1208 l 1556 1208 m 1556 1035 l 1556 875 l 1396 875 l 1396 1035 l 1556 1035 m 1556 861 l 1556 701 l 1396 701 l 1396 861 l 1556 861 m 1556 688 l 1556 528 l 1396 528 l 1396 688 l 1556 688 m 1556 514 l 1556 354 l 1396 354 l 1396 514 l 1556 514 m 1556 340 l 1556 181 l 1396 181 l 1396 340 l 1556 340 m 1556 167 l 1556 7 l 1396 7 l 1396 167 l 1556 167 m 340 688 l 340 528 l 181 528 l 181 688 l 340 688 m 1035 688 l 1035 528 l 875 528 l 875 688 l 1035 688 m 1035 1035 l 1035 875 l 875 875 l 875 1035 l 1035 1035 m 167 167 l 167 7 l 7 7 l 7 167 l 167 167 m 167 340 l 167 181 l 7 181 l 7 340 l 167 340 m 167 514 l 167 354 l 7 354 l 7 514 l 167 514 m 167 688 l 167 528 l 7 528 l 7 688 l 167 688 m 167 861 l 167 701 l 7 701 l 7 861 l 167 861 m 688 514 l 688 354 l 528 354 l 528 514 l 688 514 m 514 688 l 514 528 l 354 528 l 354 688 l 514 688 m 340 861 l 340 701 l 181 701 l 181 861 l 340 861 m 167 1035 l 167 875 l 7 875 l 7 1035 l 167 1035 m 688 688 l 688 528 l 528 528 l 528 688 l 688 688 m 514 861 l 514 701 l 354 701 l 354 861 l 514 861 m 340 1035 l 340 875 l 181 875 l 181 1035 l 340 1035 m 167 1208 l 167 1049 l 7 1049 l 7 1208 l 167 1208 m 1208 167 l 1208 7 l 1049 7 l 1049 167 l 1208 167 m 861 688 l 861 528 l 701 528 l 701 688 l 861 688 m 688 861 l 688 701 l 528 701 l 528 861 l 688 861 m 514 1035 l 514 875 l 354 875 l 354 1035 l 514 1035 m 340 1208 l 340 1049 l 181 1049 l 181 1208 l 340 1208 m 1208 340 l 1208 181 l 1049 181 l 1049 340 l 1208 340 m 1208 514 l 1208 354 l 1049 354 l 1049 514 l 1208 514 m 1035 861 l 1035 701 l 875 701 l 875 861 l 1035 861 m 1208 688 l 1208 528 l 1049 528 l 1049 688 l 1208 688 m 1208 861 l 1208 701 l 1049 701 l 1049 861 l 1208 861 m 1208 1035 l 1208 875 l 1049 875 l 1049 1035 l 1208 1035 z "},"N":{"ha":1563,"x_min":7,"x_max":1382,"o":"m 1208 1208 l 1208 1049 l 1049 1049 l 1049 1208 l 1208 1208 m 1382 1208 l 1382 1049 l 1222 1049 l 1222 1208 l 1382 1208 m 1382 1035 l 1382 875 l 1222 875 l 1222 1035 l 1382 1035 m 1382 861 l 1382 701 l 1222 701 l 1222 861 l 1382 861 m 1382 688 l 1382 528 l 1222 528 l 1222 688 l 1382 688 m 1382 514 l 1382 354 l 1222 354 l 1222 514 l 1382 514 m 1382 340 l 1382 181 l 1222 181 l 1222 340 l 1382 340 m 1382 167 l 1382 7 l 1222 7 l 1222 167 l 1382 167 m 1035 167 l 1035 7 l 875 7 l 875 167 l 1035 167 m 861 340 l 861 181 l 701 181 l 701 340 l 861 340 m 688 514 l 688 354 l 528 354 l 528 514 l 688 514 m 514 688 l 514 528 l 354 528 l 354 688 l 514 688 m 167 167 l 167 7 l 7 7 l 7 167 l 167 167 m 167 340 l 167 181 l 7 181 l 7 340 l 167 340 m 167 514 l 167 354 l 7 354 l 7 514 l 167 514 m 167 688 l 167 528 l 7 528 l 7 688 l 167 688 m 167 861 l 167 701 l 7 701 l 7 861 l 167 861 m 167 1035 l 167 875 l 7 875 l 7 1035 l 167 1035 m 167 1208 l 167 1049 l 7 1049 l 7 1208 l 167 1208 m 340 167 l 340 7 l 181 7 l 181 167 l 340 167 m 340 340 l 340 181 l 181 181 l 181 340 l 340 340 m 340 514 l 340 354 l 181 354 l 181 514 l 340 514 m 340 688 l 340 528 l 181 528 l 181 688 l 340 688 m 340 861 l 340 701 l 181 701 l 181 861 l 340 861 m 1208 167 l 1208 7 l 1049 7 l 1049 167 l 1208 167 m 1035 340 l 1035 181 l 875 181 l 875 340 l 1035 340 m 861 514 l 861 354 l 701 354 l 701 514 l 861 514 m 688 688 l 688 528 l 528 528 l 528 688 l 688 688 m 514 861 l 514 701 l 354 701 l 354 861 l 514 861 m 340 1035 l 340 875 l 181 875 l 181 1035 l 340 1035 m 1035 514 l 1035 354 l 875 354 l 875 514 l 1035 514 m 861 688 l 861 528 l 701 528 l 701 688 l 861 688 m 688 861 l 688 701 l 528 701 l 528 861 l 688 861 m 514 1035 l 514 875 l 354 875 l 354 1035 l 514 1035 m 1208 340 l 1208 181 l 1049 181 l 1049 340 l 1208 340 m 340 1208 l 340 1049 l 181 1049 l 181 1208 l 340 1208 m 1035 688 l 1035 528 l 875 528 l 875 688 l 1035 688 m 861 861 l 861 701 l 701 701 l 701 861 l 861 861 m 688 1035 l 688 875 l 528 875 l 528 1035 l 688 1035 m 514 1208 l 514 1049 l 354 1049 l 354 1208 l 514 1208 m 1208 514 l 1208 354 l 1049 354 l 1049 514 l 1208 514 m 1208 688 l 1208 528 l 1049 528 l 1049 688 l 1208 688 m 1208 861 l 1208 701 l 1049 701 l 1049 861 l 1208 861 m 1208 1035 l 1208 875 l 1049 875 l 1049 1035 l 1208 1035 z "},"O":{"ha":1563,"x_min":7,"x_max":1382,"o":"m 1035 1208 l 1035 1049 l 875 1049 l 875 1208 l 1035 1208 m 861 167 l 861 7 l 701 7 l 701 167 l 861 167 m 861 1208 l 861 1049 l 701 1049 l 701 1208 l 861 1208 m 514 1035 l 514 875 l 354 875 l 354 1035 l 514 1035 m 514 861 l 514 701 l 354 701 l 354 861 l 514 861 m 514 688 l 514 528 l 354 528 l 354 688 l 514 688 m 514 514 l 514 354 l 354 354 l 354 514 l 514 514 m 514 340 l 514 181 l 354 181 l 354 340 l 514 340 m 1208 167 l 1208 7 l 1049 7 l 1049 167 l 1208 167 m 1382 340 l 1382 181 l 1222 181 l 1222 340 l 1382 340 m 1382 514 l 1382 354 l 1222 354 l 1222 514 l 1382 514 m 1382 688 l 1382 528 l 1222 528 l 1222 688 l 1382 688 m 1382 861 l 1382 701 l 1222 701 l 1222 861 l 1382 861 m 1382 1035 l 1382 875 l 1222 875 l 1222 1035 l 1382 1035 m 1208 1208 l 1208 1049 l 1049 1049 l 1049 1208 l 1208 1208 m 340 167 l 340 7 l 181 7 l 181 167 l 340 167 m 167 340 l 167 181 l 7 181 l 7 340 l 167 340 m 514 167 l 514 7 l 354 7 l 354 167 l 514 167 m 340 340 l 340 181 l 181 181 l 181 340 l 340 340 m 167 514 l 167 354 l 7 354 l 7 514 l 167 514 m 688 167 l 688 7 l 528 7 l 528 167 l 688 167 m 340 514 l 340 354 l 181 354 l 181 514 l 340 514 m 167 688 l 167 528 l 7 528 l 7 688 l 167 688 m 1035 167 l 1035 7 l 875 7 l 875 167 l 1035 167 m 340 688 l 340 528 l 181 528 l 181 688 l 340 688 m 167 861 l 167 701 l 7 701 l 7 861 l 167 861 m 340 861 l 340 701 l 181 701 l 181 861 l 340 861 m 167 1035 l 167 875 l 7 875 l 7 1035 l 167 1035 m 1035 340 l 1035 181 l 875 181 l 875 340 l 1035 340 m 340 1035 l 340 875 l 181 875 l 181 1035 l 340 1035 m 1208 340 l 1208 181 l 1049 181 l 1049 340 l 1208 340 m 1035 514 l 1035 354 l 875 354 l 875 514 l 1035 514 m 1208 514 l 1208 354 l 1049 354 l 1049 514 l 1208 514 m 1035 688 l 1035 528 l 875 528 l 875 688 l 1035 688 m 340 1208 l 340 1049 l 181 1049 l 181 1208 l 340 1208 m 1208 688 l 1208 528 l 1049 528 l 1049 688 l 1208 688 m 1035 861 l 1035 701 l 875 701 l 875 861 l 1035 861 m 514 1208 l 514 1049 l 354 1049 l 354 1208 l 514 1208 m 1035 1035 l 1035 875 l 875 875 l 875 1035 l 1035 1035 m 688 1208 l 688 1049 l 528 1049 l 528 1208 l 688 1208 m 1208 861 l 1208 701 l 1049 701 l 1049 861 l 1208 861 m 1208 1035 l 1208 875 l 1049 875 l 1049 1035 l 1208 1035 z "},"P":{"ha":1563,"x_min":7,"x_max":1382,"o":"m 1208 1208 l 1208 1049 l 1049 1049 l 1049 1208 l 1208 1208 m 861 1208 l 861 1049 l 701 1049 l 701 1208 l 861 1208 m 1382 688 l 1382 528 l 1222 528 l 1222 688 l 1382 688 m 1208 514 l 1208 354 l 1049 354 l 1049 514 l 1208 514 m 1035 514 l 1035 354 l 875 354 l 875 514 l 1035 514 m 861 514 l 861 354 l 701 354 l 701 514 l 861 514 m 167 167 l 167 7 l 7 7 l 7 167 l 167 167 m 167 340 l 167 181 l 7 181 l 7 340 l 167 340 m 167 514 l 167 354 l 7 354 l 7 514 l 167 514 m 167 688 l 167 528 l 7 528 l 7 688 l 167 688 m 167 861 l 167 701 l 7 701 l 7 861 l 167 861 m 167 1035 l 167 875 l 7 875 l 7 1035 l 167 1035 m 167 1208 l 167 1049 l 7 1049 l 7 1208 l 167 1208 m 1035 861 l 1035 701 l 875 701 l 875 861 l 1035 861 m 1035 1035 l 1035 875 l 875 875 l 875 1035 l 1035 1035 m 340 167 l 340 7 l 181 7 l 181 167 l 340 167 m 514 167 l 514 7 l 354 7 l 354 167 l 514 167 m 340 340 l 340 181 l 181 181 l 181 340 l 340 340 m 514 340 l 514 181 l 354 181 l 354 340 l 514 340 m 340 514 l 340 354 l 181 354 l 181 514 l 340 514 m 514 514 l 514 354 l 354 354 l 354 514 l 514 514 m 340 688 l 340 528 l 181 528 l 181 688 l 340 688 m 514 688 l 514 528 l 354 528 l 354 688 l 514 688 m 340 861 l 340 701 l 181 701 l 181 861 l 340 861 m 688 514 l 688 354 l 528 354 l 528 514 l 688 514 m 514 861 l 514 701 l 354 701 l 354 861 l 514 861 m 340 1035 l 340 875 l 181 875 l 181 1035 l 340 1035 m 1035 688 l 1035 528 l 875 528 l 875 688 l 1035 688 m 514 1035 l 514 875 l 354 875 l 354 1035 l 514 1035 m 340 1208 l 340 1049 l 181 1049 l 181 1208 l 340 1208 m 1208 688 l 1208 528 l 1049 528 l 1049 688 l 1208 688 m 514 1208 l 514 1049 l 354 1049 l 354 1208 l 514 1208 m 1208 861 l 1208 701 l 1049 701 l 1049 861 l 1208 861 m 688 1208 l 688 1049 l 528 1049 l 528 1208 l 688 1208 m 1208 1035 l 1208 875 l 1049 875 l 1049 1035 l 1208 1035 m 1035 1208 l 1035 1049 l 875 1049 l 875 1208 l 1035 1208 m 1382 861 l 1382 701 l 1222 701 l 1222 861 l 1382 861 m 1382 1035 l 1382 875 l 1222 875 l 1222 1035 l 1382 1035 z "},"Q":{"ha":1563,"x_min":7,"x_max":1382,"o":"m 1208 1208 l 1208 1049 l 1049 1049 l 1049 1208 l 1208 1208 m 1382 -181 l 1382 -340 l 1222 -340 l 1222 -181 l 1382 -181 m 1382 -7 l 1382 -167 l 1222 -167 l 1222 -7 l 1382 -7 m 861 1208 l 861 1049 l 701 1049 l 701 1208 l 861 1208 m 1035 -181 l 1035 -340 l 875 -340 l 875 -181 l 1035 -181 m 861 -181 l 861 -340 l 701 -340 l 701 -181 l 861 -181 m 861 -7 l 861 -167 l 701 -167 l 701 -7 l 861 -7 m 1035 340 l 1035 181 l 875 181 l 875 340 l 1035 340 m 1035 514 l 1035 354 l 875 354 l 875 514 l 1035 514 m 1035 688 l 1035 528 l 875 528 l 875 688 l 1035 688 m 1035 861 l 1035 701 l 875 701 l 875 861 l 1035 861 m 1035 1035 l 1035 875 l 875 875 l 875 1035 l 1035 1035 m 340 1208 l 340 1049 l 181 1049 l 181 1208 l 340 1208 m 167 1035 l 167 875 l 7 875 l 7 1035 l 167 1035 m 167 861 l 167 701 l 7 701 l 7 861 l 167 861 m 167 688 l 167 528 l 7 528 l 7 688 l 167 688 m 167 514 l 167 354 l 7 354 l 7 514 l 167 514 m 167 340 l 167 181 l 7 181 l 7 340 l 167 340 m 340 167 l 340 7 l 181 7 l 181 167 l 340 167 m 514 167 l 514 7 l 354 7 l 354 167 l 514 167 m 340 340 l 340 181 l 181 181 l 181 340 l 340 340 m 688 167 l 688 7 l 528 7 l 528 167 l 688 167 m 514 340 l 514 181 l 354 181 l 354 340 l 514 340 m 340 514 l 340 354 l 181 354 l 181 514 l 340 514 m 1208 -181 l 1208 -340 l 1049 -340 l 1049 -181 l 1208 -181 m 1035 -7 l 1035 -167 l 875 -167 l 875 -7 l 1035 -7 m 514 514 l 514 354 l 354 354 l 354 514 l 514 514 m 340 688 l 340 528 l 181 528 l 181 688 l 340 688 m 1208 -7 l 1208 -167 l 1049 -167 l 1049 -7 l 1208 -7 m 514 688 l 514 528 l 354 528 l 354 688 l 514 688 m 340 861 l 340 701 l 181 701 l 181 861 l 340 861 m 514 861 l 514 701 l 354 701 l 354 861 l 514 861 m 340 1035 l 340 875 l 181 875 l 181 1035 l 340 1035 m 688 -7 l 688 -167 l 528 -167 l 528 -7 l 688 -7 m 1208 340 l 1208 181 l 1049 181 l 1049 340 l 1208 340 m 514 1035 l 514 875 l 354 875 l 354 1035 l 514 1035 m 1208 514 l 1208 354 l 1049 354 l 1049 514 l 1208 514 m 1382 514 l 1382 354 l 1222 354 l 1222 514 l 1382 514 m 1208 688 l 1208 528 l 1049 528 l 1049 688 l 1208 688 m 514 1208 l 514 1049 l 354 1049 l 354 1208 l 514 1208 m 1382 688 l 1382 528 l 1222 528 l 1222 688 l 1382 688 m 1208 861 l 1208 701 l 1049 701 l 1049 861 l 1208 861 m 688 1208 l 688 1049 l 528 1049 l 528 1208 l 688 1208 m 1382 861 l 1382 701 l 1222 701 l 1222 861 l 1382 861 m 1208 1035 l 1208 875 l 1049 875 l 1049 1035 l 1208 1035 m 1035 1208 l 1035 1049 l 875 1049 l 875 1208 l 1035 1208 m 1382 1035 l 1382 875 l 1222 875 l 1222 1035 l 1382 1035 z "},"R":{"ha":1563,"x_min":7,"x_max":1382,"o":"m 1208 1208 l 1208 1049 l 1049 1049 l 1049 1208 l 1208 1208 m 861 514 l 861 354 l 701 354 l 701 514 l 861 514 m 861 340 l 861 181 l 701 181 l 701 340 l 861 340 m 861 1208 l 861 1049 l 701 1049 l 701 1208 l 861 1208 m 167 167 l 167 7 l 7 7 l 7 167 l 167 167 m 167 340 l 167 181 l 7 181 l 7 340 l 167 340 m 167 514 l 167 354 l 7 354 l 7 514 l 167 514 m 167 688 l 167 528 l 7 528 l 7 688 l 167 688 m 167 861 l 167 701 l 7 701 l 7 861 l 167 861 m 167 1035 l 167 875 l 7 875 l 7 1035 l 167 1035 m 167 1208 l 167 1049 l 7 1049 l 7 1208 l 167 1208 m 1035 1035 l 1035 875 l 875 875 l 875 1035 l 1035 1035 m 1035 861 l 1035 701 l 875 701 l 875 861 l 1035 861 m 1035 514 l 1035 354 l 875 354 l 875 514 l 1035 514 m 1035 340 l 1035 181 l 875 181 l 875 340 l 1035 340 m 1035 167 l 1035 7 l 875 7 l 875 167 l 1035 167 m 340 167 l 340 7 l 181 7 l 181 167 l 340 167 m 514 167 l 514 7 l 354 7 l 354 167 l 514 167 m 340 340 l 340 181 l 181 181 l 181 340 l 340 340 m 514 340 l 514 181 l 354 181 l 354 340 l 514 340 m 340 514 l 340 354 l 181 354 l 181 514 l 340 514 m 514 514 l 514 354 l 354 354 l 354 514 l 514 514 m 340 688 l 340 528 l 181 528 l 181 688 l 340 688 m 1208 167 l 1208 7 l 1049 7 l 1049 167 l 1208 167 m 514 688 l 514 528 l 354 528 l 354 688 l 514 688 m 340 861 l 340 701 l 181 701 l 181 861 l 340 861 m 1382 167 l 1382 7 l 1222 7 l 1222 167 l 1382 167 m 1208 340 l 1208 181 l 1049 181 l 1049 340 l 1208 340 m 688 514 l 688 354 l 528 354 l 528 514 l 688 514 m 514 861 l 514 701 l 354 701 l 354 861 l 514 861 m 340 1035 l 340 875 l 181 875 l 181 1035 l 340 1035 m 1382 340 l 1382 181 l 1222 181 l 1222 340 l 1382 340 m 1035 688 l 1035 528 l 875 528 l 875 688 l 1035 688 m 514 1035 l 514 875 l 354 875 l 354 1035 l 514 1035 m 340 1208 l 340 1049 l 181 1049 l 181 1208 l 340 1208 m 1208 688 l 1208 528 l 1049 528 l 1049 688 l 1208 688 m 514 1208 l 514 1049 l 354 1049 l 354 1208 l 514 1208 m 1208 861 l 1208 701 l 1049 701 l 1049 861 l 1208 861 m 688 1208 l 688 1049 l 528 1049 l 528 1208 l 688 1208 m 1208 1035 l 1208 875 l 1049 875 l 1049 1035 l 1208 1035 m 1035 1208 l 1035 1049 l 875 1049 l 875 1208 l 1035 1208 m 1382 861 l 1382 701 l 1222 701 l 1222 861 l 1382 861 m 1382 1035 l 1382 875 l 1222 875 l 1222 1035 l 1382 1035 z "},"S":{"ha":1389,"x_min":7,"x_max":1208,"o":"m 1035 1208 l 1035 1049 l 875 1049 l 875 1208 l 1035 1208 m 340 340 l 340 181 l 181 181 l 181 340 l 340 340 m 1035 688 l 1035 528 l 875 528 l 875 688 l 1035 688 m 1035 167 l 1035 7 l 875 7 l 875 167 l 1035 167 m 1208 340 l 1208 181 l 1049 181 l 1049 340 l 1208 340 m 1208 514 l 1208 354 l 1049 354 l 1049 514 l 1208 514 m 1208 1035 l 1208 875 l 1049 875 l 1049 1035 l 1208 1035 m 1035 1035 l 1035 875 l 875 875 l 875 1035 l 1035 1035 m 1208 1208 l 1208 1049 l 1049 1049 l 1049 1208 l 1208 1208 m 167 340 l 167 181 l 7 181 l 7 340 l 167 340 m 688 861 l 688 701 l 528 701 l 528 861 l 688 861 m 514 1035 l 514 875 l 354 875 l 354 1035 l 514 1035 m 167 167 l 167 7 l 7 7 l 7 167 l 167 167 m 340 167 l 340 7 l 181 7 l 181 167 l 340 167 m 514 167 l 514 7 l 354 7 l 354 167 l 514 167 m 688 167 l 688 7 l 528 7 l 528 167 l 688 167 m 861 167 l 861 7 l 701 7 l 701 167 l 861 167 m 340 688 l 340 528 l 181 528 l 181 688 l 340 688 m 167 861 l 167 701 l 7 701 l 7 861 l 167 861 m 861 340 l 861 181 l 701 181 l 701 340 l 861 340 m 688 514 l 688 354 l 528 354 l 528 514 l 688 514 m 514 688 l 514 528 l 354 528 l 354 688 l 514 688 m 340 861 l 340 701 l 181 701 l 181 861 l 340 861 m 167 1035 l 167 875 l 7 875 l 7 1035 l 167 1035 m 688 688 l 688 528 l 528 528 l 528 688 l 688 688 m 1035 340 l 1035 181 l 875 181 l 875 340 l 1035 340 m 514 861 l 514 701 l 354 701 l 354 861 l 514 861 m 340 1035 l 340 875 l 181 875 l 181 1035 l 340 1035 m 861 514 l 861 354 l 701 354 l 701 514 l 861 514 m 1035 514 l 1035 354 l 875 354 l 875 514 l 1035 514 m 861 688 l 861 528 l 701 528 l 701 688 l 861 688 m 340 1208 l 340 1049 l 181 1049 l 181 1208 l 340 1208 m 514 1208 l 514 1049 l 354 1049 l 354 1208 l 514 1208 m 688 1208 l 688 1049 l 528 1049 l 528 1208 l 688 1208 m 861 1208 l 861 1049 l 701 1049 l 701 1208 l 861 1208 z "},"T":{"ha":1389,"x_min":7,"x_max":1208,"o":"m 1208 1208 l 1208 1049 l 1049 1049 l 1049 1208 l 1208 1208 m 1208 1035 l 1208 875 l 1049 875 l 1049 1035 l 1208 1035 m 1035 1035 l 1035 875 l 875 875 l 875 1035 l 1035 1035 m 340 1035 l 340 875 l 181 875 l 181 1035 l 340 1035 m 167 1035 l 167 875 l 7 875 l 7 1035 l 167 1035 m 167 1208 l 167 1049 l 7 1049 l 7 1208 l 167 1208 m 514 167 l 514 7 l 354 7 l 354 167 l 514 167 m 514 340 l 514 181 l 354 181 l 354 340 l 514 340 m 514 514 l 514 354 l 354 354 l 354 514 l 514 514 m 514 688 l 514 528 l 354 528 l 354 688 l 514 688 m 514 861 l 514 701 l 354 701 l 354 861 l 514 861 m 514 1035 l 514 875 l 354 875 l 354 1035 l 514 1035 m 688 167 l 688 7 l 528 7 l 528 167 l 688 167 m 861 167 l 861 7 l 701 7 l 701 167 l 861 167 m 688 340 l 688 181 l 528 181 l 528 340 l 688 340 m 861 340 l 861 181 l 701 181 l 701 340 l 861 340 m 688 514 l 688 354 l 528 354 l 528 514 l 688 514 m 861 514 l 861 354 l 701 354 l 701 514 l 861 514 m 688 688 l 688 528 l 528 528 l 528 688 l 688 688 m 861 688 l 861 528 l 701 528 l 701 688 l 861 688 m 688 861 l 688 701 l 528 701 l 528 861 l 688 861 m 340 1208 l 340 1049 l 181 1049 l 181 1208 l 340 1208 m 861 861 l 861 701 l 701 701 l 701 861 l 861 861 m 688 1035 l 688 875 l 528 875 l 528 1035 l 688 1035 m 514 1208 l 514 1049 l 354 1049 l 354 1208 l 514 1208 m 861 1035 l 861 875 l 701 875 l 701 1035 l 861 1035 m 688 1208 l 688 1049 l 528 1049 l 528 1208 l 688 1208 m 861 1208 l 861 1049 l 701 1049 l 701 1208 l 861 1208 m 1035 1208 l 1035 1049 l 875 1049 l 875 1208 l 1035 1208 z "},"U":{"ha":1389,"x_min":7,"x_max":1208,"o":"m 1208 1208 l 1208 1049 l 1049 1049 l 1049 1208 l 1208 1208 m 688 167 l 688 7 l 528 7 l 528 167 l 688 167 m 1035 340 l 1035 181 l 875 181 l 875 340 l 1035 340 m 1035 514 l 1035 354 l 875 354 l 875 514 l 1035 514 m 1035 688 l 1035 528 l 875 528 l 875 688 l 1035 688 m 1035 861 l 1035 701 l 875 701 l 875 861 l 1035 861 m 1035 1035 l 1035 875 l 875 875 l 875 1035 l 1035 1035 m 1035 1208 l 1035 1049 l 875 1049 l 875 1208 l 1035 1208 m 514 1208 l 514 1049 l 354 1049 l 354 1208 l 514 1208 m 514 1035 l 514 875 l 354 875 l 354 1035 l 514 1035 m 514 861 l 514 701 l 354 701 l 354 861 l 514 861 m 514 688 l 514 528 l 354 528 l 354 688 l 514 688 m 514 514 l 514 354 l 354 354 l 354 514 l 514 514 m 514 340 l 514 181 l 354 181 l 354 340 l 514 340 m 340 167 l 340 7 l 181 7 l 181 167 l 340 167 m 167 340 l 167 181 l 7 181 l 7 340 l 167 340 m 514 167 l 514 7 l 354 7 l 354 167 l 514 167 m 340 340 l 340 181 l 181 181 l 181 340 l 340 340 m 167 514 l 167 354 l 7 354 l 7 514 l 167 514 m 340 514 l 340 354 l 181 354 l 181 514 l 340 514 m 861 167 l 861 7 l 701 7 l 701 167 l 861 167 m 167 688 l 167 528 l 7 528 l 7 688 l 167 688 m 1035 167 l 1035 7 l 875 7 l 875 167 l 1035 167 m 340 688 l 340 528 l 181 528 l 181 688 l 340 688 m 167 861 l 167 701 l 7 701 l 7 861 l 167 861 m 340 861 l 340 701 l 181 701 l 181 861 l 340 861 m 167 1035 l 167 875 l 7 875 l 7 1035 l 167 1035 m 1208 340 l 1208 181 l 1049 181 l 1049 340 l 1208 340 m 340 1035 l 340 875 l 181 875 l 181 1035 l 340 1035 m 167 1208 l 167 1049 l 7 1049 l 7 1208 l 167 1208 m 1208 514 l 1208 354 l 1049 354 l 1049 514 l 1208 514 m 340 1208 l 340 1049 l 181 1049 l 181 1208 l 340 1208 m 1208 688 l 1208 528 l 1049 528 l 1049 688 l 1208 688 m 1208 861 l 1208 701 l 1049 701 l 1049 861 l 1208 861 m 1208 1035 l 1208 875 l 1049 875 l 1049 1035 l 1208 1035 z "},"V":{"ha":1389,"x_min":7,"x_max":1208,"o":"m 1208 1208 l 1208 1049 l 1049 1049 l 1049 1208 l 1208 1208 m 861 167 l 861 7 l 701 7 l 701 167 l 861 167 m 1035 1208 l 1035 1049 l 875 1049 l 875 1208 l 1035 1208 m 1035 1035 l 1035 875 l 875 875 l 875 1035 l 1035 1035 m 1035 861 l 1035 701 l 875 701 l 875 861 l 1035 861 m 1035 688 l 1035 528 l 875 528 l 875 688 l 1035 688 m 1035 514 l 1035 354 l 875 354 l 875 514 l 1035 514 m 514 167 l 514 7 l 354 7 l 354 167 l 514 167 m 340 340 l 340 181 l 181 181 l 181 340 l 340 340 m 167 514 l 167 354 l 7 354 l 7 514 l 167 514 m 167 688 l 167 528 l 7 528 l 7 688 l 167 688 m 167 861 l 167 701 l 7 701 l 7 861 l 167 861 m 167 1035 l 167 875 l 7 875 l 7 1035 l 167 1035 m 167 1208 l 167 1049 l 7 1049 l 7 1208 l 167 1208 m 688 167 l 688 7 l 528 7 l 528 167 l 688 167 m 514 340 l 514 181 l 354 181 l 354 340 l 514 340 m 340 514 l 340 354 l 181 354 l 181 514 l 340 514 m 688 340 l 688 181 l 528 181 l 528 340 l 688 340 m 514 514 l 514 354 l 354 354 l 354 514 l 514 514 m 340 688 l 340 528 l 181 528 l 181 688 l 340 688 m 514 688 l 514 528 l 354 528 l 354 688 l 514 688 m 340 861 l 340 701 l 181 701 l 181 861 l 340 861 m 1035 340 l 1035 181 l 875 181 l 875 340 l 1035 340 m 514 861 l 514 701 l 354 701 l 354 861 l 514 861 m 340 1035 l 340 875 l 181 875 l 181 1035 l 340 1035 m 514 1035 l 514 875 l 354 875 l 354 1035 l 514 1035 m 340 1208 l 340 1049 l 181 1049 l 181 1208 l 340 1208 m 514 1208 l 514 1049 l 354 1049 l 354 1208 l 514 1208 m 1208 514 l 1208 354 l 1049 354 l 1049 514 l 1208 514 m 1208 688 l 1208 528 l 1049 528 l 1049 688 l 1208 688 m 1208 861 l 1208 701 l 1049 701 l 1049 861 l 1208 861 m 1208 1035 l 1208 875 l 1049 875 l 1049 1035 l 1208 1035 z "},"W":{"ha":1736,"x_min":7,"x_max":1556,"o":"m 1556 1208 l 1556 1049 l 1396 1049 l 1396 1208 l 1556 1208 m 1035 340 l 1035 181 l 875 181 l 875 340 l 1035 340 m 861 688 l 861 528 l 701 528 l 701 688 l 861 688 m 688 514 l 688 354 l 528 354 l 528 514 l 688 514 m 1208 167 l 1208 7 l 1049 7 l 1049 167 l 1208 167 m 1382 514 l 1382 354 l 1222 354 l 1222 514 l 1382 514 m 1382 688 l 1382 528 l 1222 528 l 1222 688 l 1382 688 m 1382 861 l 1382 701 l 1222 701 l 1222 861 l 1382 861 m 1382 1035 l 1382 875 l 1222 875 l 1222 1035 l 1382 1035 m 1382 1208 l 1382 1049 l 1222 1049 l 1222 1208 l 1382 1208 m 167 167 l 167 7 l 7 7 l 7 167 l 167 167 m 167 340 l 167 181 l 7 181 l 7 340 l 167 340 m 167 514 l 167 354 l 7 354 l 7 514 l 167 514 m 167 861 l 167 701 l 7 701 l 7 861 l 167 861 m 167 688 l 167 528 l 7 528 l 7 688 l 167 688 m 167 1035 l 167 875 l 7 875 l 7 1035 l 167 1035 m 167 1208 l 167 1049 l 7 1049 l 7 1208 l 167 1208 m 340 167 l 340 7 l 181 7 l 181 167 l 340 167 m 514 167 l 514 7 l 354 7 l 354 167 l 514 167 m 340 340 l 340 181 l 181 181 l 181 340 l 340 340 m 514 340 l 514 181 l 354 181 l 354 340 l 514 340 m 340 514 l 340 354 l 181 354 l 181 514 l 340 514 m 688 340 l 688 181 l 528 181 l 528 340 l 688 340 m 514 514 l 514 354 l 354 354 l 354 514 l 514 514 m 340 688 l 340 528 l 181 528 l 181 688 l 340 688 m 514 688 l 514 528 l 354 528 l 354 688 l 514 688 m 340 861 l 340 701 l 181 701 l 181 861 l 340 861 m 861 514 l 861 354 l 701 354 l 701 514 l 861 514 m 514 861 l 514 701 l 354 701 l 354 861 l 514 861 m 340 1035 l 340 875 l 181 875 l 181 1035 l 340 1035 m 1035 514 l 1035 354 l 875 354 l 875 514 l 1035 514 m 514 1035 l 514 875 l 354 875 l 354 1035 l 514 1035 m 340 1208 l 340 1049 l 181 1049 l 181 1208 l 340 1208 m 1382 167 l 1382 7 l 1222 7 l 1222 167 l 1382 167 m 1208 340 l 1208 181 l 1049 181 l 1049 340 l 1208 340 m 1382 340 l 1382 181 l 1222 181 l 1222 340 l 1382 340 m 1208 514 l 1208 354 l 1049 354 l 1049 514 l 1208 514 m 1035 688 l 1035 528 l 875 528 l 875 688 l 1035 688 m 1556 167 l 1556 7 l 1396 7 l 1396 167 l 1556 167 m 514 1208 l 514 1049 l 354 1049 l 354 1208 l 514 1208 m 1556 340 l 1556 181 l 1396 181 l 1396 340 l 1556 340 m 1556 514 l 1556 354 l 1396 354 l 1396 514 l 1556 514 m 1556 688 l 1556 528 l 1396 528 l 1396 688 l 1556 688 m 1556 861 l 1556 701 l 1396 701 l 1396 861 l 1556 861 m 1556 1035 l 1556 875 l 1396 875 l 1396 1035 l 1556 1035 z "},"X":{"ha":1389,"x_min":7,"x_max":1208,"o":"m 1208 1208 l 1208 1049 l 1049 1049 l 1049 1208 l 1208 1208 m 688 1035 l 688 875 l 528 875 l 528 1035 l 688 1035 m 688 340 l 688 181 l 528 181 l 528 340 l 688 340 m 688 514 l 688 354 l 528 354 l 528 514 l 688 514 m 688 861 l 688 701 l 528 701 l 528 861 l 688 861 m 688 688 l 688 528 l 528 528 l 528 688 l 688 688 m 1035 1035 l 1035 875 l 875 875 l 875 1035 l 1035 1035 m 1035 1208 l 1035 1049 l 875 1049 l 875 1208 l 1035 1208 m 340 167 l 340 7 l 181 7 l 181 167 l 340 167 m 340 340 l 340 181 l 181 181 l 181 340 l 340 340 m 514 514 l 514 354 l 354 354 l 354 514 l 514 514 m 861 861 l 861 701 l 701 701 l 701 861 l 861 861 m 514 1208 l 514 1049 l 354 1049 l 354 1208 l 514 1208 m 514 1035 l 514 875 l 354 875 l 354 1035 l 514 1035 m 861 167 l 861 7 l 701 7 l 701 167 l 861 167 m 861 340 l 861 181 l 701 181 l 701 340 l 861 340 m 167 167 l 167 7 l 7 7 l 7 167 l 167 167 m 167 340 l 167 181 l 7 181 l 7 340 l 167 340 m 340 514 l 340 354 l 181 354 l 181 514 l 340 514 m 1035 167 l 1035 7 l 875 7 l 875 167 l 1035 167 m 1035 340 l 1035 181 l 875 181 l 875 340 l 1035 340 m 861 514 l 861 354 l 701 354 l 701 514 l 861 514 m 514 688 l 514 528 l 354 528 l 354 688 l 514 688 m 1208 167 l 1208 7 l 1049 7 l 1049 167 l 1208 167 m 340 861 l 340 701 l 181 701 l 181 861 l 340 861 m 167 1035 l 167 875 l 7 875 l 7 1035 l 167 1035 m 861 688 l 861 528 l 701 528 l 701 688 l 861 688 m 514 861 l 514 701 l 354 701 l 354 861 l 514 861 m 340 1035 l 340 875 l 181 875 l 181 1035 l 340 1035 m 1035 514 l 1035 354 l 875 354 l 875 514 l 1035 514 m 167 1208 l 167 1049 l 7 1049 l 7 1208 l 167 1208 m 1208 340 l 1208 181 l 1049 181 l 1049 340 l 1208 340 m 340 1208 l 340 1049 l 181 1049 l 181 1208 l 340 1208 m 1035 861 l 1035 701 l 875 701 l 875 861 l 1035 861 m 1208 1035 l 1208 875 l 1049 875 l 1049 1035 l 1208 1035 z "},"Y":{"ha":1389,"x_min":7,"x_max":1208,"o":"m 1208 1208 l 1208 1049 l 1049 1049 l 1049 1208 l 1208 1208 m 167 861 l 167 701 l 7 701 l 7 861 l 167 861 m 340 688 l 340 528 l 181 528 l 181 688 l 340 688 m 1035 688 l 1035 528 l 875 528 l 875 688 l 1035 688 m 1208 861 l 1208 701 l 1049 701 l 1049 861 l 1208 861 m 1035 1208 l 1035 1049 l 875 1049 l 875 1208 l 1035 1208 m 1035 1035 l 1035 875 l 875 875 l 875 1035 l 1035 1035 m 514 167 l 514 7 l 354 7 l 354 167 l 514 167 m 514 340 l 514 181 l 354 181 l 354 340 l 514 340 m 514 514 l 514 354 l 354 354 l 354 514 l 514 514 m 514 688 l 514 528 l 354 528 l 354 688 l 514 688 m 340 861 l 340 701 l 181 701 l 181 861 l 340 861 m 167 1035 l 167 875 l 7 875 l 7 1035 l 167 1035 m 167 1208 l 167 1049 l 7 1049 l 7 1208 l 167 1208 m 688 167 l 688 7 l 528 7 l 528 167 l 688 167 m 861 167 l 861 7 l 701 7 l 701 167 l 861 167 m 688 340 l 688 181 l 528 181 l 528 340 l 688 340 m 861 340 l 861 181 l 701 181 l 701 340 l 861 340 m 688 514 l 688 354 l 528 354 l 528 514 l 688 514 m 861 514 l 861 354 l 701 354 l 701 514 l 861 514 m 688 688 l 688 528 l 528 528 l 528 688 l 688 688 m 514 861 l 514 701 l 354 701 l 354 861 l 514 861 m 340 1035 l 340 875 l 181 875 l 181 1035 l 340 1035 m 514 1035 l 514 875 l 354 875 l 354 1035 l 514 1035 m 340 1208 l 340 1049 l 181 1049 l 181 1208 l 340 1208 m 514 1208 l 514 1049 l 354 1049 l 354 1208 l 514 1208 m 1035 861 l 1035 701 l 875 701 l 875 861 l 1035 861 m 1208 1035 l 1208 875 l 1049 875 l 1049 1035 l 1208 1035 z "},"Z":{"ha":1389,"x_min":7,"x_max":1208,"o":"m 861 1208 l 861 1049 l 701 1049 l 701 1208 l 861 1208 m 1208 167 l 1208 7 l 1049 7 l 1049 167 l 1208 167 m 514 514 l 514 354 l 354 354 l 354 514 l 514 514 m 1208 340 l 1208 181 l 1049 181 l 1049 340 l 1208 340 m 1208 1208 l 1208 1049 l 1049 1049 l 1049 1208 l 1208 1208 m 167 340 l 167 181 l 7 181 l 7 340 l 167 340 m 688 688 l 688 528 l 528 528 l 528 688 l 688 688 m 514 688 l 514 528 l 354 528 l 354 688 l 514 688 m 861 861 l 861 701 l 701 701 l 701 861 l 861 861 m 1035 1208 l 1035 1049 l 875 1049 l 875 1208 l 1035 1208 m 1035 1035 l 1035 875 l 875 875 l 875 1035 l 1035 1035 m 340 1035 l 340 875 l 181 875 l 181 1035 l 340 1035 m 167 1035 l 167 875 l 7 875 l 7 1035 l 167 1035 m 340 340 l 340 181 l 181 181 l 181 340 l 340 340 m 514 340 l 514 181 l 354 181 l 354 340 l 514 340 m 688 340 l 688 181 l 528 181 l 528 340 l 688 340 m 861 340 l 861 181 l 701 181 l 701 340 l 861 340 m 1035 340 l 1035 181 l 875 181 l 875 340 l 1035 340 m 514 1035 l 514 875 l 354 875 l 354 1035 l 514 1035 m 167 167 l 167 7 l 7 7 l 7 167 l 167 167 m 340 167 l 340 7 l 181 7 l 181 167 l 340 167 m 514 167 l 514 7 l 354 7 l 354 167 l 514 167 m 688 167 l 688 7 l 528 7 l 528 167 l 688 167 m 861 167 l 861 7 l 701 7 l 701 167 l 861 167 m 340 514 l 340 354 l 181 354 l 181 514 l 340 514 m 1035 167 l 1035 7 l 875 7 l 875 167 l 1035 167 m 167 1208 l 167 1049 l 7 1049 l 7 1208 l 167 1208 m 688 861 l 688 701 l 528 701 l 528 861 l 688 861 m 340 1208 l 340 1049 l 181 1049 l 181 1208 l 340 1208 m 688 1035 l 688 875 l 528 875 l 528 1035 l 688 1035 m 514 1208 l 514 1049 l 354 1049 l 354 1208 l 514 1208 m 861 1035 l 861 875 l 701 875 l 701 1035 l 861 1035 m 688 1208 l 688 1049 l 528 1049 l 528 1208 l 688 1208 z "},"[":{"ha":1215,"x_min":181,"x_max":861,"o":"m 861 1382 l 861 1222 l 701 1222 l 701 1382 l 861 1382 m 340 -181 l 340 -340 l 181 -340 l 181 -181 l 340 -181 m 514 -181 l 514 -340 l 354 -340 l 354 -181 l 514 -181 m 340 -7 l 340 -167 l 181 -167 l 181 -7 l 340 -7 m 688 -181 l 688 -340 l 528 -340 l 528 -181 l 688 -181 m 340 167 l 340 7 l 181 7 l 181 167 l 340 167 m 514 -7 l 514 -167 l 354 -167 l 354 -7 l 514 -7 m 861 -181 l 861 -340 l 701 -340 l 701 -181 l 861 -181 m 340 340 l 340 181 l 181 181 l 181 340 l 340 340 m 514 167 l 514 7 l 354 7 l 354 167 l 514 167 m 340 514 l 340 354 l 181 354 l 181 514 l 340 514 m 514 340 l 514 181 l 354 181 l 354 340 l 514 340 m 340 688 l 340 528 l 181 528 l 181 688 l 340 688 m 514 514 l 514 354 l 354 354 l 354 514 l 514 514 m 340 861 l 340 701 l 181 701 l 181 861 l 340 861 m 514 688 l 514 528 l 354 528 l 354 688 l 514 688 m 340 1035 l 340 875 l 181 875 l 181 1035 l 340 1035 m 514 861 l 514 701 l 354 701 l 354 861 l 514 861 m 340 1208 l 340 1049 l 181 1049 l 181 1208 l 340 1208 m 514 1035 l 514 875 l 354 875 l 354 1035 l 514 1035 m 340 1382 l 340 1222 l 181 1222 l 181 1382 l 340 1382 m 514 1208 l 514 1049 l 354 1049 l 354 1208 l 514 1208 m 514 1382 l 514 1222 l 354 1222 l 354 1382 l 514 1382 m 688 1382 l 688 1222 l 528 1222 l 528 1382 l 688 1382 z "},"\\":{"ha":1215,"x_min":7,"x_max":1035,"o":"m 340 1208 l 340 1049 l 181 1049 l 181 1208 l 340 1208 m 861 167 l 861 7 l 701 7 l 701 167 l 861 167 m 1035 167 l 1035 7 l 875 7 l 875 167 l 1035 167 m 861 340 l 861 181 l 701 181 l 701 340 l 861 340 m 688 514 l 688 354 l 528 354 l 528 514 l 688 514 m 1035 340 l 1035 181 l 875 181 l 875 340 l 1035 340 m 861 514 l 861 354 l 701 354 l 701 514 l 861 514 m 514 688 l 514 528 l 354 528 l 354 688 l 514 688 m 167 1035 l 167 875 l 7 875 l 7 1035 l 167 1035 m 688 688 l 688 528 l 528 528 l 528 688 l 688 688 m 514 861 l 514 701 l 354 701 l 354 861 l 514 861 m 340 1035 l 340 875 l 181 875 l 181 1035 l 340 1035 m 167 1208 l 167 1049 l 7 1049 l 7 1208 l 167 1208 m 340 861 l 340 701 l 181 701 l 181 861 l 340 861 z "},"]":{"ha":1215,"x_min":181,"x_max":861,"o":"m 861 1382 l 861 1222 l 701 1222 l 701 1382 l 861 1382 m 340 -181 l 340 -340 l 181 -340 l 181 -181 l 340 -181 m 514 -181 l 514 -340 l 354 -340 l 354 -181 l 514 -181 m 688 -181 l 688 -340 l 528 -340 l 528 -181 l 688 -181 m 688 -7 l 688 -167 l 528 -167 l 528 -7 l 688 -7 m 861 -181 l 861 -340 l 701 -340 l 701 -181 l 861 -181 m 688 167 l 688 7 l 528 7 l 528 167 l 688 167 m 861 -7 l 861 -167 l 701 -167 l 701 -7 l 861 -7 m 688 340 l 688 181 l 528 181 l 528 340 l 688 340 m 861 167 l 861 7 l 701 7 l 701 167 l 861 167 m 688 514 l 688 354 l 528 354 l 528 514 l 688 514 m 861 340 l 861 181 l 701 181 l 701 340 l 861 340 m 688 688 l 688 528 l 528 528 l 528 688 l 688 688 m 861 514 l 861 354 l 701 354 l 701 514 l 861 514 m 688 861 l 688 701 l 528 701 l 528 861 l 688 861 m 861 688 l 861 528 l 701 528 l 701 688 l 861 688 m 688 1035 l 688 875 l 528 875 l 528 1035 l 688 1035 m 861 861 l 861 701 l 701 701 l 701 861 l 861 861 m 340 1382 l 340 1222 l 181 1222 l 181 1382 l 340 1382 m 688 1208 l 688 1049 l 528 1049 l 528 1208 l 688 1208 m 861 1035 l 861 875 l 701 875 l 701 1035 l 861 1035 m 514 1382 l 514 1222 l 354 1222 l 354 1382 l 514 1382 m 688 1382 l 688 1222 l 528 1222 l 528 1382 l 688 1382 m 861 1208 l 861 1049 l 701 1049 l 701 1208 l 861 1208 z "},"^":{"ha":1215,"x_min":7,"x_max":1035,"o":"m 688 1382 l 688 1222 l 528 1222 l 528 1382 l 688 1382 m 514 1208 l 514 1049 l 354 1049 l 354 1208 l 514 1208 m 688 1035 l 688 875 l 528 875 l 528 1035 l 688 1035 m 167 1035 l 167 875 l 7 875 l 7 1035 l 167 1035 m 340 1208 l 340 1049 l 181 1049 l 181 1208 l 340 1208 m 861 1035 l 861 875 l 701 875 l 701 1035 l 861 1035 m 688 1208 l 688 1049 l 528 1049 l 528 1208 l 688 1208 m 514 1382 l 514 1222 l 354 1222 l 354 1382 l 514 1382 m 1035 1035 l 1035 875 l 875 875 l 875 1035 l 1035 1035 m 861 1208 l 861 1049 l 701 1049 l 701 1208 l 861 1208 z "},"_":{"ha":1042,"x_min":7,"x_max":861,"o":"m 861 167 l 861 7 l 701 7 l 701 167 l 861 167 m 167 167 l 167 7 l 7 7 l 7 167 l 167 167 m 340 167 l 340 7 l 181 7 l 181 167 l 340 167 m 514 167 l 514 7 l 354 7 l 354 167 l 514 167 m 688 167 l 688 7 l 528 7 l 528 167 l 688 167 z "},"`":{"ha":868,"x_min":181,"x_max":688,"o":"m 514 1382 l 514 1222 l 354 1222 l 354 1382 l 514 1382 m 514 1208 l 514 1049 l 354 1049 l 354 1208 l 514 1208 m 340 1382 l 340 1222 l 181 1222 l 181 1382 l 340 1382 m 688 1208 l 688 1049 l 528 1049 l 528 1208 l 688 1208 z "},"a":{"ha":1389,"x_min":7,"x_max":1208,"o":"m 1208 688 l 1208 528 l 1049 528 l 1049 688 l 1208 688 m 514 340 l 514 181 l 354 181 l 354 340 l 514 340 m 340 861 l 340 701 l 181 701 l 181 861 l 340 861 m 340 514 l 340 354 l 181 354 l 181 514 l 340 514 m 167 340 l 167 181 l 7 181 l 7 340 l 167 340 m 340 167 l 340 7 l 181 7 l 181 167 l 340 167 m 861 688 l 861 528 l 701 528 l 701 688 l 861 688 m 861 340 l 861 181 l 701 181 l 701 340 l 861 340 m 514 167 l 514 7 l 354 7 l 354 167 l 514 167 m 340 340 l 340 181 l 181 181 l 181 340 l 340 340 m 688 167 l 688 7 l 528 7 l 528 167 l 688 167 m 861 167 l 861 7 l 701 7 l 701 167 l 861 167 m 514 514 l 514 354 l 354 354 l 354 514 l 514 514 m 1035 167 l 1035 7 l 875 7 l 875 167 l 1035 167 m 688 514 l 688 354 l 528 354 l 528 514 l 688 514 m 861 514 l 861 354 l 701 354 l 701 514 l 861 514 m 514 861 l 514 701 l 354 701 l 354 861 l 514 861 m 1208 167 l 1208 7 l 1049 7 l 1049 167 l 1208 167 m 1035 340 l 1035 181 l 875 181 l 875 340 l 1035 340 m 688 861 l 688 701 l 528 701 l 528 861 l 688 861 m 1208 340 l 1208 181 l 1049 181 l 1049 340 l 1208 340 m 1035 514 l 1035 354 l 875 354 l 875 514 l 1035 514 m 861 861 l 861 701 l 701 701 l 701 861 l 861 861 m 1208 514 l 1208 354 l 1049 354 l 1049 514 l 1208 514 m 1035 688 l 1035 528 l 875 528 l 875 688 l 1035 688 m 1035 861 l 1035 701 l 875 701 l 875 861 l 1035 861 z "},"b":{"ha":1389,"x_min":7,"x_max":1208,"o":"m 340 1382 l 340 1222 l 181 1222 l 181 1382 l 340 1382 m 861 340 l 861 181 l 701 181 l 701 340 l 861 340 m 861 514 l 861 354 l 701 354 l 701 514 l 861 514 m 861 688 l 861 528 l 701 528 l 701 688 l 861 688 m 861 167 l 861 7 l 701 7 l 701 167 l 861 167 m 861 861 l 861 701 l 701 701 l 701 861 l 861 861 m 514 1382 l 514 1222 l 354 1222 l 354 1382 l 514 1382 m 514 1208 l 514 1049 l 354 1049 l 354 1208 l 514 1208 m 514 340 l 514 181 l 354 181 l 354 340 l 514 340 m 514 514 l 514 354 l 354 354 l 354 514 l 514 514 m 514 688 l 514 528 l 354 528 l 354 688 l 514 688 m 514 1035 l 514 875 l 354 875 l 354 1035 l 514 1035 m 167 167 l 167 7 l 7 7 l 7 167 l 167 167 m 340 167 l 340 7 l 181 7 l 181 167 l 340 167 m 167 340 l 167 181 l 7 181 l 7 340 l 167 340 m 514 167 l 514 7 l 354 7 l 354 167 l 514 167 m 340 340 l 340 181 l 181 181 l 181 340 l 340 340 m 167 514 l 167 354 l 7 354 l 7 514 l 167 514 m 688 167 l 688 7 l 528 7 l 528 167 l 688 167 m 340 514 l 340 354 l 181 354 l 181 514 l 340 514 m 167 688 l 167 528 l 7 528 l 7 688 l 167 688 m 340 688 l 340 528 l 181 528 l 181 688 l 340 688 m 1035 167 l 1035 7 l 875 7 l 875 167 l 1035 167 m 167 861 l 167 701 l 7 701 l 7 861 l 167 861 m 1035 340 l 1035 181 l 875 181 l 875 340 l 1035 340 m 340 861 l 340 701 l 181 701 l 181 861 l 340 861 m 167 1035 l 167 875 l 7 875 l 7 1035 l 167 1035 m 1035 514 l 1035 354 l 875 354 l 875 514 l 1035 514 m 1208 340 l 1208 181 l 1049 181 l 1049 340 l 1208 340 m 514 861 l 514 701 l 354 701 l 354 861 l 514 861 m 340 1035 l 340 875 l 181 875 l 181 1035 l 340 1035 m 167 1208 l 167 1049 l 7 1049 l 7 1208 l 167 1208 m 1035 688 l 1035 528 l 875 528 l 875 688 l 1035 688 m 1208 514 l 1208 354 l 1049 354 l 1049 514 l 1208 514 m 688 861 l 688 701 l 528 701 l 528 861 l 688 861 m 340 1208 l 340 1049 l 181 1049 l 181 1208 l 340 1208 m 167 1382 l 167 1222 l 7 1222 l 7 1382 l 167 1382 m 1208 688 l 1208 528 l 1049 528 l 1049 688 l 1208 688 m 1035 861 l 1035 701 l 875 701 l 875 861 l 1035 861 z "},"c":{"ha":1215,"x_min":7,"x_max":1035,"o":"m 861 861 l 861 701 l 701 701 l 701 861 l 861 861 m 1035 167 l 1035 7 l 875 7 l 875 167 l 1035 167 m 1035 861 l 1035 701 l 875 701 l 875 861 l 1035 861 m 514 340 l 514 181 l 354 181 l 354 340 l 514 340 m 514 514 l 514 354 l 354 354 l 354 514 l 514 514 m 514 688 l 514 528 l 354 528 l 354 688 l 514 688 m 340 167 l 340 7 l 181 7 l 181 167 l 340 167 m 167 340 l 167 181 l 7 181 l 7 340 l 167 340 m 514 167 l 514 7 l 354 7 l 354 167 l 514 167 m 340 340 l 340 181 l 181 181 l 181 340 l 340 340 m 167 514 l 167 354 l 7 354 l 7 514 l 167 514 m 688 167 l 688 7 l 528 7 l 528 167 l 688 167 m 340 514 l 340 354 l 181 354 l 181 514 l 340 514 m 167 688 l 167 528 l 7 528 l 7 688 l 167 688 m 861 167 l 861 7 l 701 7 l 701 167 l 861 167 m 340 688 l 340 528 l 181 528 l 181 688 l 340 688 m 340 861 l 340 701 l 181 701 l 181 861 l 340 861 m 514 861 l 514 701 l 354 701 l 354 861 l 514 861 m 688 861 l 688 701 l 528 701 l 528 861 l 688 861 z "},"d":{"ha":1389,"x_min":7,"x_max":1208,"o":"m 1035 1382 l 1035 1222 l 875 1222 l 875 1382 l 1035 1382 m 514 340 l 514 181 l 354 181 l 354 340 l 514 340 m 514 514 l 514 354 l 354 354 l 354 514 l 514 514 m 514 688 l 514 528 l 354 528 l 354 688 l 514 688 m 688 167 l 688 7 l 528 7 l 528 167 l 688 167 m 688 861 l 688 701 l 528 701 l 528 861 l 688 861 m 1208 1382 l 1208 1222 l 1049 1222 l 1049 1382 l 1208 1382 m 1208 1208 l 1208 1049 l 1049 1049 l 1049 1208 l 1208 1208 m 1208 1035 l 1208 875 l 1049 875 l 1049 1035 l 1208 1035 m 1208 861 l 1208 701 l 1049 701 l 1049 861 l 1208 861 m 1208 688 l 1208 528 l 1049 528 l 1049 688 l 1208 688 m 1208 514 l 1208 354 l 1049 354 l 1049 514 l 1208 514 m 1208 340 l 1208 181 l 1049 181 l 1049 340 l 1208 340 m 1208 167 l 1208 7 l 1049 7 l 1049 167 l 1208 167 m 340 340 l 340 181 l 181 181 l 181 340 l 340 340 m 340 514 l 340 354 l 181 354 l 181 514 l 340 514 m 340 688 l 340 528 l 181 528 l 181 688 l 340 688 m 340 167 l 340 7 l 181 7 l 181 167 l 340 167 m 167 340 l 167 181 l 7 181 l 7 340 l 167 340 m 167 514 l 167 354 l 7 354 l 7 514 l 167 514 m 514 167 l 514 7 l 354 7 l 354 167 l 514 167 m 167 688 l 167 528 l 7 528 l 7 688 l 167 688 m 861 167 l 861 7 l 701 7 l 701 167 l 861 167 m 1035 167 l 1035 7 l 875 7 l 875 167 l 1035 167 m 861 340 l 861 181 l 701 181 l 701 340 l 861 340 m 861 514 l 861 354 l 701 354 l 701 514 l 861 514 m 1035 340 l 1035 181 l 875 181 l 875 340 l 1035 340 m 340 861 l 340 701 l 181 701 l 181 861 l 340 861 m 1035 514 l 1035 354 l 875 354 l 875 514 l 1035 514 m 861 688 l 861 528 l 701 528 l 701 688 l 861 688 m 514 861 l 514 701 l 354 701 l 354 861 l 514 861 m 1035 688 l 1035 528 l 875 528 l 875 688 l 1035 688 m 861 861 l 861 701 l 701 701 l 701 861 l 861 861 m 1035 861 l 1035 701 l 875 701 l 875 861 l 1035 861 m 861 1035 l 861 875 l 701 875 l 701 1035 l 861 1035 m 1035 1035 l 1035 875 l 875 875 l 875 1035 l 1035 1035 m 861 1208 l 861 1049 l 701 1049 l 701 1208 l 861 1208 m 1035 1208 l 1035 1049 l 875 1049 l 875 1208 l 1035 1208 m 861 1382 l 861 1222 l 701 1222 l 701 1382 l 861 1382 z "},"e":{"ha":1389,"x_min":7,"x_max":1208,"o":"m 1035 861 l 1035 701 l 875 701 l 875 861 l 1035 861 m 861 688 l 861 528 l 701 528 l 701 688 l 861 688 m 861 167 l 861 7 l 701 7 l 701 167 l 861 167 m 861 514 l 861 354 l 701 354 l 701 514 l 861 514 m 861 861 l 861 701 l 701 701 l 701 861 l 861 861 m 514 688 l 514 528 l 354 528 l 354 688 l 514 688 m 514 340 l 514 181 l 354 181 l 354 340 l 514 340 m 340 167 l 340 7 l 181 7 l 181 167 l 340 167 m 167 340 l 167 181 l 7 181 l 7 340 l 167 340 m 514 167 l 514 7 l 354 7 l 354 167 l 514 167 m 340 340 l 340 181 l 181 181 l 181 340 l 340 340 m 167 514 l 167 354 l 7 354 l 7 514 l 167 514 m 688 167 l 688 7 l 528 7 l 528 167 l 688 167 m 340 514 l 340 354 l 181 354 l 181 514 l 340 514 m 167 688 l 167 528 l 7 528 l 7 688 l 167 688 m 1035 167 l 1035 7 l 875 7 l 875 167 l 1035 167 m 514 514 l 514 354 l 354 354 l 354 514 l 514 514 m 340 688 l 340 528 l 181 528 l 181 688 l 340 688 m 1208 167 l 1208 7 l 1049 7 l 1049 167 l 1208 167 m 688 514 l 688 354 l 528 354 l 528 514 l 688 514 m 340 861 l 340 701 l 181 701 l 181 861 l 340 861 m 1035 514 l 1035 354 l 875 354 l 875 514 l 1035 514 m 514 861 l 514 701 l 354 701 l 354 861 l 514 861 m 688 861 l 688 701 l 528 701 l 528 861 l 688 861 m 1035 688 l 1035 528 l 875 528 l 875 688 l 1035 688 m 1208 514 l 1208 354 l 1049 354 l 1049 514 l 1208 514 m 1208 688 l 1208 528 l 1049 528 l 1049 688 l 1208 688 z "},"f":{"ha":1042,"x_min":7,"x_max":1035,"o":"m 861 1382 l 861 1222 l 701 1222 l 701 1382 l 861 1382 m 1035 1382 l 1035 1222 l 875 1222 l 875 1382 l 1035 1382 m 688 1208 l 688 1049 l 528 1049 l 528 1208 l 688 1208 m 688 1035 l 688 875 l 528 875 l 528 1035 l 688 1035 m 688 688 l 688 528 l 528 528 l 528 688 l 688 688 m 688 514 l 688 354 l 528 354 l 528 514 l 688 514 m 688 340 l 688 181 l 528 181 l 528 340 l 688 340 m 688 167 l 688 7 l 528 7 l 528 167 l 688 167 m 340 167 l 340 7 l 181 7 l 181 167 l 340 167 m 514 167 l 514 7 l 354 7 l 354 167 l 514 167 m 340 340 l 340 181 l 181 181 l 181 340 l 340 340 m 514 340 l 514 181 l 354 181 l 354 340 l 514 340 m 340 514 l 340 354 l 181 354 l 181 514 l 340 514 m 514 514 l 514 354 l 354 354 l 354 514 l 514 514 m 340 688 l 340 528 l 181 528 l 181 688 l 340 688 m 167 861 l 167 701 l 7 701 l 7 861 l 167 861 m 514 688 l 514 528 l 354 528 l 354 688 l 514 688 m 340 861 l 340 701 l 181 701 l 181 861 l 340 861 m 514 861 l 514 701 l 354 701 l 354 861 l 514 861 m 340 1035 l 340 875 l 181 875 l 181 1035 l 340 1035 m 688 861 l 688 701 l 528 701 l 528 861 l 688 861 m 514 1035 l 514 875 l 354 875 l 354 1035 l 514 1035 m 340 1208 l 340 1049 l 181 1049 l 181 1208 l 340 1208 m 861 861 l 861 701 l 701 701 l 701 861 l 861 861 m 514 1208 l 514 1049 l 354 1049 l 354 1208 l 514 1208 m 514 1382 l 514 1222 l 354 1222 l 354 1382 l 514 1382 m 688 1382 l 688 1222 l 528 1222 l 528 1382 l 688 1382 z "},"g":{"ha":1389,"x_min":7,"x_max":1208,"o":"m 1035 861 l 1035 701 l 875 701 l 875 861 l 1035 861 m 688 -181 l 688 -340 l 528 -340 l 528 -181 l 688 -181 m 688 167 l 688 7 l 528 7 l 528 167 l 688 167 m 688 861 l 688 701 l 528 701 l 528 861 l 688 861 m 514 688 l 514 528 l 354 528 l 354 688 l 514 688 m 514 514 l 514 354 l 354 354 l 354 514 l 514 514 m 514 340 l 514 181 l 354 181 l 354 340 l 514 340 m 1035 -181 l 1035 -340 l 875 -340 l 875 -181 l 1035 -181 m 1208 -7 l 1208 -167 l 1049 -167 l 1049 -7 l 1208 -7 m 1208 167 l 1208 7 l 1049 7 l 1049 167 l 1208 167 m 1208 340 l 1208 181 l 1049 181 l 1049 340 l 1208 340 m 1208 514 l 1208 354 l 1049 354 l 1049 514 l 1208 514 m 1208 688 l 1208 528 l 1049 528 l 1049 688 l 1208 688 m 1208 861 l 1208 701 l 1049 701 l 1049 861 l 1208 861 m 340 -181 l 340 -340 l 181 -340 l 181 -181 l 340 -181 m 514 -181 l 514 -340 l 354 -340 l 354 -181 l 514 -181 m 340 167 l 340 7 l 181 7 l 181 167 l 340 167 m 167 340 l 167 181 l 7 181 l 7 340 l 167 340 m 861 -181 l 861 -340 l 701 -340 l 701 -181 l 861 -181 m 514 167 l 514 7 l 354 7 l 354 167 l 514 167 m 340 340 l 340 181 l 181 181 l 181 340 l 340 340 m 167 514 l 167 354 l 7 354 l 7 514 l 167 514 m 861 -7 l 861 -167 l 701 -167 l 701 -7 l 861 -7 m 340 514 l 340 354 l 181 354 l 181 514 l 340 514 m 167 688 l 167 528 l 7 528 l 7 688 l 167 688 m 861 167 l 861 7 l 701 7 l 701 167 l 861 167 m 1035 -7 l 1035 -167 l 875 -167 l 875 -7 l 1035 -7 m 340 688 l 340 528 l 181 528 l 181 688 l 340 688 m 1035 167 l 1035 7 l 875 7 l 875 167 l 1035 167 m 861 340 l 861 181 l 701 181 l 701 340 l 861 340 m 340 861 l 340 701 l 181 701 l 181 861 l 340 861 m 861 514 l 861 354 l 701 354 l 701 514 l 861 514 m 1035 340 l 1035 181 l 875 181 l 875 340 l 1035 340 m 514 861 l 514 701 l 354 701 l 354 861 l 514 861 m 861 688 l 861 528 l 701 528 l 701 688 l 861 688 m 1035 514 l 1035 354 l 875 354 l 875 514 l 1035 514 m 1035 688 l 1035 528 l 875 528 l 875 688 l 1035 688 m 861 861 l 861 701 l 701 701 l 701 861 l 861 861 z "},"h":{"ha":1389,"x_min":7,"x_max":1208,"o":"m 340 1382 l 340 1222 l 181 1222 l 181 1382 l 340 1382 m 1208 167 l 1208 7 l 1049 7 l 1049 167 l 1208 167 m 1208 340 l 1208 181 l 1049 181 l 1049 340 l 1208 340 m 1208 514 l 1208 354 l 1049 354 l 1049 514 l 1208 514 m 1208 688 l 1208 528 l 1049 528 l 1049 688 l 1208 688 m 1035 861 l 1035 701 l 875 701 l 875 861 l 1035 861 m 514 1382 l 514 1222 l 354 1222 l 354 1382 l 514 1382 m 514 1208 l 514 1049 l 354 1049 l 354 1208 l 514 1208 m 514 1035 l 514 875 l 354 875 l 354 1035 l 514 1035 m 514 688 l 514 528 l 354 528 l 354 688 l 514 688 m 514 514 l 514 354 l 354 354 l 354 514 l 514 514 m 514 340 l 514 181 l 354 181 l 354 340 l 514 340 m 514 167 l 514 7 l 354 7 l 354 167 l 514 167 m 167 167 l 167 7 l 7 7 l 7 167 l 167 167 m 340 167 l 340 7 l 181 7 l 181 167 l 340 167 m 167 340 l 167 181 l 7 181 l 7 340 l 167 340 m 340 340 l 340 181 l 181 181 l 181 340 l 340 340 m 167 514 l 167 354 l 7 354 l 7 514 l 167 514 m 340 514 l 340 354 l 181 354 l 181 514 l 340 514 m 167 688 l 167 528 l 7 528 l 7 688 l 167 688 m 861 167 l 861 7 l 701 7 l 701 167 l 861 167 m 340 688 l 340 528 l 181 528 l 181 688 l 340 688 m 167 861 l 167 701 l 7 701 l 7 861 l 167 861 m 1035 167 l 1035 7 l 875 7 l 875 167 l 1035 167 m 861 340 l 861 181 l 701 181 l 701 340 l 861 340 m 340 861 l 340 701 l 181 701 l 181 861 l 340 861 m 167 1035 l 167 875 l 7 875 l 7 1035 l 167 1035 m 861 514 l 861 354 l 701 354 l 701 514 l 861 514 m 514 861 l 514 701 l 354 701 l 354 861 l 514 861 m 340 1035 l 340 875 l 181 875 l 181 1035 l 340 1035 m 167 1208 l 167 1049 l 7 1049 l 7 1208 l 167 1208 m 1035 340 l 1035 181 l 875 181 l 875 340 l 1035 340 m 1035 514 l 1035 354 l 875 354 l 875 514 l 1035 514 m 861 688 l 861 528 l 701 528 l 701 688 l 861 688 m 688 861 l 688 701 l 528 701 l 528 861 l 688 861 m 340 1208 l 340 1049 l 181 1049 l 181 1208 l 340 1208 m 167 1382 l 167 1222 l 7 1222 l 7 1382 l 167 1382 m 1035 688 l 1035 528 l 875 528 l 875 688 l 1035 688 m 861 861 l 861 701 l 701 701 l 701 861 l 861 861 z "},"i":{"ha":694,"x_min":7,"x_max":514,"o":"m 514 1382 l 514 1222 l 354 1222 l 354 1382 l 514 1382 m 167 1208 l 167 1049 l 7 1049 l 7 1208 l 167 1208 m 167 1382 l 167 1222 l 7 1222 l 7 1382 l 167 1382 m 340 1208 l 340 1049 l 181 1049 l 181 1208 l 340 1208 m 514 1208 l 514 1049 l 354 1049 l 354 1208 l 514 1208 m 514 861 l 514 701 l 354 701 l 354 861 l 514 861 m 514 688 l 514 528 l 354 528 l 354 688 l 514 688 m 514 514 l 514 354 l 354 354 l 354 514 l 514 514 m 514 340 l 514 181 l 354 181 l 354 340 l 514 340 m 514 167 l 514 7 l 354 7 l 354 167 l 514 167 m 167 167 l 167 7 l 7 7 l 7 167 l 167 167 m 340 167 l 340 7 l 181 7 l 181 167 l 340 167 m 167 340 l 167 181 l 7 181 l 7 340 l 167 340 m 340 340 l 340 181 l 181 181 l 181 340 l 340 340 m 167 514 l 167 354 l 7 354 l 7 514 l 167 514 m 340 514 l 340 354 l 181 354 l 181 514 l 340 514 m 167 688 l 167 528 l 7 528 l 7 688 l 167 688 m 340 688 l 340 528 l 181 528 l 181 688 l 340 688 m 167 861 l 167 701 l 7 701 l 7 861 l 167 861 m 340 861 l 340 701 l 181 701 l 181 861 l 340 861 m 340 1382 l 340 1222 l 181 1222 l 181 1382 l 340 1382 z "},"j":{"ha":694,"x_min":-167,"x_max":514,"o":"m 340 1382 l 340 1222 l 181 1222 l 181 1382 l 340 1382 m 514 1208 l 514 1049 l 354 1049 l 354 1208 l 514 1208 m 340 1208 l 340 1049 l 181 1049 l 181 1208 l 340 1208 m 167 1208 l 167 1049 l 7 1049 l 7 1208 l 167 1208 m 167 1382 l 167 1222 l 7 1222 l 7 1382 l 167 1382 m 340 -181 l 340 -340 l 181 -340 l 181 -181 l 340 -181 m 514 -7 l 514 -167 l 354 -167 l 354 -7 l 514 -7 m 514 167 l 514 7 l 354 7 l 354 167 l 514 167 m 514 340 l 514 181 l 354 181 l 354 340 l 514 340 m 514 514 l 514 354 l 354 354 l 354 514 l 514 514 m 514 688 l 514 528 l 354 528 l 354 688 l 514 688 m 514 861 l 514 701 l 354 701 l 354 861 l 514 861 m 514 1382 l 514 1222 l 354 1222 l 354 1382 l 514 1382 m -7 -181 l -7 -340 l -167 -340 l -167 -181 l -7 -181 m 167 -181 l 167 -340 l 7 -340 l 7 -181 l 167 -181 m 167 -7 l 167 -167 l 7 -167 l 7 -7 l 167 -7 m 340 -7 l 340 -167 l 181 -167 l 181 -7 l 340 -7 m 167 167 l 167 7 l 7 7 l 7 167 l 167 167 m 340 167 l 340 7 l 181 7 l 181 167 l 340 167 m 167 340 l 167 181 l 7 181 l 7 340 l 167 340 m 340 340 l 340 181 l 181 181 l 181 340 l 340 340 m 167 514 l 167 354 l 7 354 l 7 514 l 167 514 m 340 514 l 340 354 l 181 354 l 181 514 l 340 514 m 167 688 l 167 528 l 7 528 l 7 688 l 167 688 m 340 688 l 340 528 l 181 528 l 181 688 l 340 688 m 167 861 l 167 701 l 7 701 l 7 861 l 167 861 m 340 861 l 340 701 l 181 701 l 181 861 l 340 861 z "},"k":{"ha":1563,"x_min":7,"x_max":1382,"o":"m 514 1382 l 514 1222 l 354 1222 l 354 1382 l 514 1382 m 1382 861 l 1382 701 l 1222 701 l 1222 861 l 1382 861 m 1208 514 l 1208 354 l 1049 354 l 1049 514 l 1208 514 m 1382 340 l 1382 181 l 1222 181 l 1222 340 l 1382 340 m 167 167 l 167 7 l 7 7 l 7 167 l 167 167 m 167 340 l 167 181 l 7 181 l 7 340 l 167 340 m 167 514 l 167 354 l 7 354 l 7 514 l 167 514 m 167 688 l 167 528 l 7 528 l 7 688 l 167 688 m 167 861 l 167 701 l 7 701 l 7 861 l 167 861 m 167 1035 l 167 875 l 7 875 l 7 1035 l 167 1035 m 167 1208 l 167 1049 l 7 1049 l 7 1208 l 167 1208 m 167 1382 l 167 1222 l 7 1222 l 7 1382 l 167 1382 m 1208 861 l 1208 701 l 1049 701 l 1049 861 l 1208 861 m 1035 688 l 1035 528 l 875 528 l 875 688 l 1035 688 m 1035 514 l 1035 354 l 875 354 l 875 514 l 1035 514 m 1208 340 l 1208 181 l 1049 181 l 1049 340 l 1208 340 m 1382 167 l 1382 7 l 1222 7 l 1222 167 l 1382 167 m 340 167 l 340 7 l 181 7 l 181 167 l 340 167 m 514 167 l 514 7 l 354 7 l 354 167 l 514 167 m 340 340 l 340 181 l 181 181 l 181 340 l 340 340 m 514 340 l 514 181 l 354 181 l 354 340 l 514 340 m 340 514 l 340 354 l 181 354 l 181 514 l 340 514 m 514 514 l 514 354 l 354 354 l 354 514 l 514 514 m 340 688 l 340 528 l 181 528 l 181 688 l 340 688 m 1035 167 l 1035 7 l 875 7 l 875 167 l 1035 167 m 861 340 l 861 181 l 701 181 l 701 340 l 861 340 m 688 514 l 688 354 l 528 354 l 528 514 l 688 514 m 514 688 l 514 528 l 354 528 l 354 688 l 514 688 m 340 861 l 340 701 l 181 701 l 181 861 l 340 861 m 1035 340 l 1035 181 l 875 181 l 875 340 l 1035 340 m 861 514 l 861 354 l 701 354 l 701 514 l 861 514 m 514 861 l 514 701 l 354 701 l 354 861 l 514 861 m 340 1035 l 340 875 l 181 875 l 181 1035 l 340 1035 m 1208 167 l 1208 7 l 1049 7 l 1049 167 l 1208 167 m 861 688 l 861 528 l 701 528 l 701 688 l 861 688 m 514 1035 l 514 875 l 354 875 l 354 1035 l 514 1035 m 340 1208 l 340 1049 l 181 1049 l 181 1208 l 340 1208 m 514 1208 l 514 1049 l 354 1049 l 354 1208 l 514 1208 m 340 1382 l 340 1222 l 181 1222 l 181 1382 l 340 1382 m 1035 861 l 1035 701 l 875 701 l 875 861 l 1035 861 z "},"l":{"ha":868,"x_min":7,"x_max":688,"o":"m 340 1382 l 340 1222 l 181 1222 l 181 1382 l 340 1382 m 514 1382 l 514 1222 l 354 1222 l 354 1382 l 514 1382 m 514 1208 l 514 1049 l 354 1049 l 354 1208 l 514 1208 m 514 1035 l 514 875 l 354 875 l 354 1035 l 514 1035 m 514 861 l 514 701 l 354 701 l 354 861 l 514 861 m 514 688 l 514 528 l 354 528 l 354 688 l 514 688 m 514 514 l 514 354 l 354 354 l 354 514 l 514 514 m 514 340 l 514 181 l 354 181 l 354 340 l 514 340 m 340 167 l 340 7 l 181 7 l 181 167 l 340 167 m 167 340 l 167 181 l 7 181 l 7 340 l 167 340 m 514 167 l 514 7 l 354 7 l 354 167 l 514 167 m 340 340 l 340 181 l 181 181 l 181 340 l 340 340 m 167 514 l 167 354 l 7 354 l 7 514 l 167 514 m 688 167 l 688 7 l 528 7 l 528 167 l 688 167 m 340 514 l 340 354 l 181 354 l 181 514 l 340 514 m 167 688 l 167 528 l 7 528 l 7 688 l 167 688 m 340 688 l 340 528 l 181 528 l 181 688 l 340 688 m 167 861 l 167 701 l 7 701 l 7 861 l 167 861 m 340 861 l 340 701 l 181 701 l 181 861 l 340 861 m 167 1035 l 167 875 l 7 875 l 7 1035 l 167 1035 m 340 1035 l 340 875 l 181 875 l 181 1035 l 340 1035 m 167 1208 l 167 1049 l 7 1049 l 7 1208 l 167 1208 m 340 1208 l 340 1049 l 181 1049 l 181 1208 l 340 1208 m 167 1382 l 167 1222 l 7 1222 l 7 1382 l 167 1382 z "},"m":{"ha":1736,"x_min":7,"x_max":1556,"o":"m 1382 861 l 1382 701 l 1222 701 l 1222 861 l 1382 861 m 688 861 l 688 701 l 528 701 l 528 861 l 688 861 m 514 167 l 514 7 l 354 7 l 354 167 l 514 167 m 514 340 l 514 181 l 354 181 l 354 340 l 514 340 m 514 514 l 514 354 l 354 354 l 354 514 l 514 514 m 514 688 l 514 528 l 354 528 l 354 688 l 514 688 m 167 167 l 167 7 l 7 7 l 7 167 l 167 167 m 340 167 l 340 7 l 181 7 l 181 167 l 340 167 m 167 340 l 167 181 l 7 181 l 7 340 l 167 340 m 340 340 l 340 181 l 181 181 l 181 340 l 340 340 m 167 514 l 167 354 l 7 354 l 7 514 l 167 514 m 861 167 l 861 7 l 701 7 l 701 167 l 861 167 m 340 514 l 340 354 l 181 354 l 181 514 l 340 514 m 167 688 l 167 528 l 7 528 l 7 688 l 167 688 m 1035 167 l 1035 7 l 875 7 l 875 167 l 1035 167 m 861 340 l 861 181 l 701 181 l 701 340 l 861 340 m 340 688 l 340 528 l 181 528 l 181 688 l 340 688 m 167 861 l 167 701 l 7 701 l 7 861 l 167 861 m 1035 340 l 1035 181 l 875 181 l 875 340 l 1035 340 m 861 514 l 861 354 l 701 354 l 701 514 l 861 514 m 340 861 l 340 701 l 181 701 l 181 861 l 340 861 m 1382 167 l 1382 7 l 1222 7 l 1222 167 l 1382 167 m 1035 514 l 1035 354 l 875 354 l 875 514 l 1035 514 m 861 688 l 861 528 l 701 528 l 701 688 l 861 688 m 514 861 l 514 701 l 354 701 l 354 861 l 514 861 m 1556 167 l 1556 7 l 1396 7 l 1396 167 l 1556 167 m 1382 340 l 1382 181 l 1222 181 l 1222 340 l 1382 340 m 1035 688 l 1035 528 l 875 528 l 875 688 l 1035 688 m 861 861 l 861 701 l 701 701 l 701 861 l 861 861 m 1556 340 l 1556 181 l 1396 181 l 1396 340 l 1556 340 m 1382 514 l 1382 354 l 1222 354 l 1222 514 l 1382 514 m 1035 861 l 1035 701 l 875 701 l 875 861 l 1035 861 m 1556 514 l 1556 354 l 1396 354 l 1396 514 l 1556 514 m 1382 688 l 1382 528 l 1222 528 l 1222 688 l 1382 688 m 1208 861 l 1208 701 l 1049 701 l 1049 861 l 1208 861 m 1556 688 l 1556 528 l 1396 528 l 1396 688 l 1556 688 z "},"n":{"ha":1389,"x_min":7,"x_max":1208,"o":"m 861 861 l 861 701 l 701 701 l 701 861 l 861 861 m 688 861 l 688 701 l 528 701 l 528 861 l 688 861 m 514 167 l 514 7 l 354 7 l 354 167 l 514 167 m 514 340 l 514 181 l 354 181 l 354 340 l 514 340 m 514 514 l 514 354 l 354 354 l 354 514 l 514 514 m 514 688 l 514 528 l 354 528 l 354 688 l 514 688 m 1035 861 l 1035 701 l 875 701 l 875 861 l 1035 861 m 1208 688 l 1208 528 l 1049 528 l 1049 688 l 1208 688 m 1208 514 l 1208 354 l 1049 354 l 1049 514 l 1208 514 m 1208 340 l 1208 181 l 1049 181 l 1049 340 l 1208 340 m 1208 167 l 1208 7 l 1049 7 l 1049 167 l 1208 167 m 167 167 l 167 7 l 7 7 l 7 167 l 167 167 m 340 167 l 340 7 l 181 7 l 181 167 l 340 167 m 167 340 l 167 181 l 7 181 l 7 340 l 167 340 m 340 340 l 340 181 l 181 181 l 181 340 l 340 340 m 167 514 l 167 354 l 7 354 l 7 514 l 167 514 m 340 514 l 340 354 l 181 354 l 181 514 l 340 514 m 167 688 l 167 528 l 7 528 l 7 688 l 167 688 m 861 167 l 861 7 l 701 7 l 701 167 l 861 167 m 340 688 l 340 528 l 181 528 l 181 688 l 340 688 m 167 861 l 167 701 l 7 701 l 7 861 l 167 861 m 1035 167 l 1035 7 l 875 7 l 875 167 l 1035 167 m 861 340 l 861 181 l 701 181 l 701 340 l 861 340 m 340 861 l 340 701 l 181 701 l 181 861 l 340 861 m 1035 340 l 1035 181 l 875 181 l 875 340 l 1035 340 m 861 514 l 861 354 l 701 354 l 701 514 l 861 514 m 514 861 l 514 701 l 354 701 l 354 861 l 514 861 m 1035 514 l 1035 354 l 875 354 l 875 514 l 1035 514 m 861 688 l 861 528 l 701 528 l 701 688 l 861 688 m 1035 688 l 1035 528 l 875 528 l 875 688 l 1035 688 z "},"o":{"ha":1389,"x_min":7,"x_max":1208,"o":"m 861 861 l 861 701 l 701 701 l 701 861 l 861 861 m 1035 167 l 1035 7 l 875 7 l 875 167 l 1035 167 m 1208 340 l 1208 181 l 1049 181 l 1049 340 l 1208 340 m 1208 514 l 1208 354 l 1049 354 l 1049 514 l 1208 514 m 1208 688 l 1208 528 l 1049 528 l 1049 688 l 1208 688 m 1035 861 l 1035 701 l 875 701 l 875 861 l 1035 861 m 688 167 l 688 7 l 528 7 l 528 167 l 688 167 m 688 861 l 688 701 l 528 701 l 528 861 l 688 861 m 514 688 l 514 528 l 354 528 l 354 688 l 514 688 m 514 514 l 514 354 l 354 354 l 354 514 l 514 514 m 514 340 l 514 181 l 354 181 l 354 340 l 514 340 m 340 167 l 340 7 l 181 7 l 181 167 l 340 167 m 167 340 l 167 181 l 7 181 l 7 340 l 167 340 m 514 167 l 514 7 l 354 7 l 354 167 l 514 167 m 340 340 l 340 181 l 181 181 l 181 340 l 340 340 m 167 514 l 167 354 l 7 354 l 7 514 l 167 514 m 340 514 l 340 354 l 181 354 l 181 514 l 340 514 m 167 688 l 167 528 l 7 528 l 7 688 l 167 688 m 861 167 l 861 7 l 701 7 l 701 167 l 861 167 m 340 688 l 340 528 l 181 528 l 181 688 l 340 688 m 861 340 l 861 181 l 701 181 l 701 340 l 861 340 m 340 861 l 340 701 l 181 701 l 181 861 l 340 861 m 1035 340 l 1035 181 l 875 181 l 875 340 l 1035 340 m 861 514 l 861 354 l 701 354 l 701 514 l 861 514 m 514 861 l 514 701 l 354 701 l 354 861 l 514 861 m 861 688 l 861 528 l 701 528 l 701 688 l 861 688 m 1035 514 l 1035 354 l 875 354 l 875 514 l 1035 514 m 1035 688 l 1035 528 l 875 528 l 875 688 l 1035 688 z "},"p":{"ha":1389,"x_min":7,"x_max":1208,"o":"m 1035 861 l 1035 701 l 875 701 l 875 861 l 1035 861 m 861 688 l 861 528 l 701 528 l 701 688 l 861 688 m 861 514 l 861 354 l 701 354 l 701 514 l 861 514 m 861 340 l 861 181 l 701 181 l 701 340 l 861 340 m 861 167 l 861 7 l 701 7 l 701 167 l 861 167 m 861 861 l 861 701 l 701 701 l 701 861 l 861 861 m 514 -181 l 514 -340 l 354 -340 l 354 -181 l 514 -181 m 514 -7 l 514 -167 l 354 -167 l 354 -7 l 514 -7 m 514 340 l 514 181 l 354 181 l 354 340 l 514 340 m 514 514 l 514 354 l 354 354 l 354 514 l 514 514 m 514 688 l 514 528 l 354 528 l 354 688 l 514 688 m 167 -181 l 167 -340 l 7 -340 l 7 -181 l 167 -181 m 340 -181 l 340 -340 l 181 -340 l 181 -181 l 340 -181 m 167 -7 l 167 -167 l 7 -167 l 7 -7 l 167 -7 m 340 -7 l 340 -167 l 181 -167 l 181 -7 l 340 -7 m 167 167 l 167 7 l 7 7 l 7 167 l 167 167 m 340 167 l 340 7 l 181 7 l 181 167 l 340 167 m 167 340 l 167 181 l 7 181 l 7 340 l 167 340 m 514 167 l 514 7 l 354 7 l 354 167 l 514 167 m 340 340 l 340 181 l 181 181 l 181 340 l 340 340 m 167 514 l 167 354 l 7 354 l 7 514 l 167 514 m 340 514 l 340 354 l 181 354 l 181 514 l 340 514 m 167 688 l 167 528 l 7 528 l 7 688 l 167 688 m 688 167 l 688 7 l 528 7 l 528 167 l 688 167 m 340 688 l 340 528 l 181 528 l 181 688 l 340 688 m 1035 167 l 1035 7 l 875 7 l 875 167 l 1035 167 m 167 861 l 167 701 l 7 701 l 7 861 l 167 861 m 1035 340 l 1035 181 l 875 181 l 875 340 l 1035 340 m 340 861 l 340 701 l 181 701 l 181 861 l 340 861 m 1208 340 l 1208 181 l 1049 181 l 1049 340 l 1208 340 m 1035 514 l 1035 354 l 875 354 l 875 514 l 1035 514 m 514 861 l 514 701 l 354 701 l 354 861 l 514 861 m 1208 514 l 1208 354 l 1049 354 l 1049 514 l 1208 514 m 1035 688 l 1035 528 l 875 528 l 875 688 l 1035 688 m 688 861 l 688 701 l 528 701 l 528 861 l 688 861 m 1208 688 l 1208 528 l 1049 528 l 1049 688 l 1208 688 z "},"q":{"ha":1389,"x_min":7,"x_max":1208,"o":"m 1035 861 l 1035 701 l 875 701 l 875 861 l 1035 861 m 514 688 l 514 528 l 354 528 l 354 688 l 514 688 m 514 514 l 514 354 l 354 354 l 354 514 l 514 514 m 514 340 l 514 181 l 354 181 l 354 340 l 514 340 m 688 167 l 688 7 l 528 7 l 528 167 l 688 167 m 688 861 l 688 701 l 528 701 l 528 861 l 688 861 m 1208 -7 l 1208 -167 l 1049 -167 l 1049 -7 l 1208 -7 m 1208 -181 l 1208 -340 l 1049 -340 l 1049 -181 l 1208 -181 m 1208 167 l 1208 7 l 1049 7 l 1049 167 l 1208 167 m 1208 340 l 1208 181 l 1049 181 l 1049 340 l 1208 340 m 1208 514 l 1208 354 l 1049 354 l 1049 514 l 1208 514 m 1208 688 l 1208 528 l 1049 528 l 1049 688 l 1208 688 m 1208 861 l 1208 701 l 1049 701 l 1049 861 l 1208 861 m 340 688 l 340 528 l 181 528 l 181 688 l 340 688 m 340 514 l 340 354 l 181 354 l 181 514 l 340 514 m 340 340 l 340 181 l 181 181 l 181 340 l 340 340 m 861 -181 l 861 -340 l 701 -340 l 701 -181 l 861 -181 m 340 167 l 340 7 l 181 7 l 181 167 l 340 167 m 167 340 l 167 181 l 7 181 l 7 340 l 167 340 m 1035 -181 l 1035 -340 l 875 -340 l 875 -181 l 1035 -181 m 861 -7 l 861 -167 l 701 -167 l 701 -7 l 861 -7 m 514 167 l 514 7 l 354 7 l 354 167 l 514 167 m 167 514 l 167 354 l 7 354 l 7 514 l 167 514 m 1035 -7 l 1035 -167 l 875 -167 l 875 -7 l 1035 -7 m 861 167 l 861 7 l 701 7 l 701 167 l 861 167 m 167 688 l 167 528 l 7 528 l 7 688 l 167 688 m 1035 167 l 1035 7 l 875 7 l 875 167 l 1035 167 m 861 340 l 861 181 l 701 181 l 701 340 l 861 340 m 1035 340 l 1035 181 l 875 181 l 875 340 l 1035 340 m 861 514 l 861 354 l 701 354 l 701 514 l 861 514 m 340 861 l 340 701 l 181 701 l 181 861 l 340 861 m 1035 514 l 1035 354 l 875 354 l 875 514 l 1035 514 m 861 688 l 861 528 l 701 528 l 701 688 l 861 688 m 514 861 l 514 701 l 354 701 l 354 861 l 514 861 m 1035 688 l 1035 528 l 875 528 l 875 688 l 1035 688 m 861 861 l 861 701 l 701 701 l 701 861 l 861 861 z "},"r":{"ha":1042,"x_min":7,"x_max":861,"o":"m 688 861 l 688 701 l 528 701 l 528 861 l 688 861 m 340 861 l 340 701 l 181 701 l 181 861 l 340 861 m 861 688 l 861 528 l 701 528 l 701 688 l 861 688 m 861 861 l 861 701 l 701 701 l 701 861 l 861 861 m 514 688 l 514 528 l 354 528 l 354 688 l 514 688 m 514 514 l 514 354 l 354 354 l 354 514 l 514 514 m 514 340 l 514 181 l 354 181 l 354 340 l 514 340 m 514 167 l 514 7 l 354 7 l 354 167 l 514 167 m 167 167 l 167 7 l 7 7 l 7 167 l 167 167 m 340 167 l 340 7 l 181 7 l 181 167 l 340 167 m 167 340 l 167 181 l 7 181 l 7 340 l 167 340 m 340 340 l 340 181 l 181 181 l 181 340 l 340 340 m 167 514 l 167 354 l 7 354 l 7 514 l 167 514 m 340 514 l 340 354 l 181 354 l 181 514 l 340 514 m 167 688 l 167 528 l 7 528 l 7 688 l 167 688 m 340 688 l 340 528 l 181 528 l 181 688 l 340 688 m 167 861 l 167 701 l 7 701 l 7 861 l 167 861 m 688 688 l 688 528 l 528 528 l 528 688 l 688 688 z "},"s":{"ha":1215,"x_min":7,"x_max":1035,"o":"m 861 861 l 861 701 l 701 701 l 701 861 l 861 861 m 1035 861 l 1035 701 l 875 701 l 875 861 l 1035 861 m 861 167 l 861 7 l 701 7 l 701 167 l 861 167 m 1035 340 l 1035 181 l 875 181 l 875 340 l 1035 340 m 861 514 l 861 354 l 701 354 l 701 514 l 861 514 m 688 688 l 688 528 l 528 528 l 528 688 l 688 688 m 514 688 l 514 528 l 354 528 l 354 688 l 514 688 m 514 340 l 514 181 l 354 181 l 354 340 l 514 340 m 167 167 l 167 7 l 7 7 l 7 167 l 167 167 m 340 167 l 340 7 l 181 7 l 181 167 l 340 167 m 514 167 l 514 7 l 354 7 l 354 167 l 514 167 m 688 167 l 688 7 l 528 7 l 528 167 l 688 167 m 340 514 l 340 354 l 181 354 l 181 514 l 340 514 m 167 688 l 167 528 l 7 528 l 7 688 l 167 688 m 688 340 l 688 181 l 528 181 l 528 340 l 688 340 m 514 514 l 514 354 l 354 354 l 354 514 l 514 514 m 340 688 l 340 528 l 181 528 l 181 688 l 340 688 m 861 340 l 861 181 l 701 181 l 701 340 l 861 340 m 688 514 l 688 354 l 528 354 l 528 514 l 688 514 m 340 861 l 340 701 l 181 701 l 181 861 l 340 861 m 514 861 l 514 701 l 354 701 l 354 861 l 514 861 m 688 861 l 688 701 l 528 701 l 528 861 l 688 861 z "},"t":{"ha":1042,"x_min":7,"x_max":861,"o":"m 340 1208 l 340 1049 l 181 1049 l 181 1208 l 340 1208 m 861 167 l 861 7 l 701 7 l 701 167 l 861 167 m 861 861 l 861 701 l 701 701 l 701 861 l 861 861 m 514 1208 l 514 1049 l 354 1049 l 354 1208 l 514 1208 m 514 1035 l 514 875 l 354 875 l 354 1035 l 514 1035 m 514 688 l 514 528 l 354 528 l 354 688 l 514 688 m 514 514 l 514 354 l 354 354 l 354 514 l 514 514 m 514 340 l 514 181 l 354 181 l 354 340 l 514 340 m 340 167 l 340 7 l 181 7 l 181 167 l 340 167 m 167 340 l 167 181 l 7 181 l 7 340 l 167 340 m 514 167 l 514 7 l 354 7 l 354 167 l 514 167 m 340 340 l 340 181 l 181 181 l 181 340 l 340 340 m 167 514 l 167 354 l 7 354 l 7 514 l 167 514 m 688 167 l 688 7 l 528 7 l 528 167 l 688 167 m 340 514 l 340 354 l 181 354 l 181 514 l 340 514 m 167 688 l 167 528 l 7 528 l 7 688 l 167 688 m 340 688 l 340 528 l 181 528 l 181 688 l 340 688 m 167 861 l 167 701 l 7 701 l 7 861 l 167 861 m 340 861 l 340 701 l 181 701 l 181 861 l 340 861 m 167 1035 l 167 875 l 7 875 l 7 1035 l 167 1035 m 514 861 l 514 701 l 354 701 l 354 861 l 514 861 m 340 1035 l 340 875 l 181 875 l 181 1035 l 340 1035 m 688 861 l 688 701 l 528 701 l 528 861 l 688 861 z "},"u":{"ha":1389,"x_min":7,"x_max":1208,"o":"m 1035 861 l 1035 701 l 875 701 l 875 861 l 1035 861 m 861 167 l 861 7 l 701 7 l 701 167 l 861 167 m 1208 861 l 1208 701 l 1049 701 l 1049 861 l 1208 861 m 1208 688 l 1208 528 l 1049 528 l 1049 688 l 1208 688 m 1208 514 l 1208 354 l 1049 354 l 1049 514 l 1208 514 m 1208 340 l 1208 181 l 1049 181 l 1049 340 l 1208 340 m 1208 167 l 1208 7 l 1049 7 l 1049 167 l 1208 167 m 514 340 l 514 181 l 354 181 l 354 340 l 514 340 m 514 514 l 514 354 l 354 354 l 354 514 l 514 514 m 514 688 l 514 528 l 354 528 l 354 688 l 514 688 m 514 861 l 514 701 l 354 701 l 354 861 l 514 861 m 340 167 l 340 7 l 181 7 l 181 167 l 340 167 m 167 340 l 167 181 l 7 181 l 7 340 l 167 340 m 514 167 l 514 7 l 354 7 l 354 167 l 514 167 m 340 340 l 340 181 l 181 181 l 181 340 l 340 340 m 167 514 l 167 354 l 7 354 l 7 514 l 167 514 m 688 167 l 688 7 l 528 7 l 528 167 l 688 167 m 340 514 l 340 354 l 181 354 l 181 514 l 340 514 m 167 688 l 167 528 l 7 528 l 7 688 l 167 688 m 340 688 l 340 528 l 181 528 l 181 688 l 340 688 m 167 861 l 167 701 l 7 701 l 7 861 l 167 861 m 1035 167 l 1035 7 l 875 7 l 875 167 l 1035 167 m 861 340 l 861 181 l 701 181 l 701 340 l 861 340 m 340 861 l 340 701 l 181 701 l 181 861 l 340 861 m 1035 340 l 1035 181 l 875 181 l 875 340 l 1035 340 m 861 514 l 861 354 l 701 354 l 701 514 l 861 514 m 1035 514 l 1035 354 l 875 354 l 875 514 l 1035 514 m 861 688 l 861 528 l 701 528 l 701 688 l 861 688 m 1035 688 l 1035 528 l 875 528 l 875 688 l 1035 688 m 861 861 l 861 701 l 701 701 l 701 861 l 861 861 z "},"v":{"ha":1215,"x_min":7,"x_max":1035,"o":"m 1035 861 l 1035 701 l 875 701 l 875 861 l 1035 861 m 167 340 l 167 181 l 7 181 l 7 340 l 167 340 m 340 167 l 340 7 l 181 7 l 181 167 l 340 167 m 861 514 l 861 354 l 701 354 l 701 514 l 861 514 m 861 688 l 861 528 l 701 528 l 701 688 l 861 688 m 861 861 l 861 701 l 701 701 l 701 861 l 861 861 m 514 514 l 514 354 l 354 354 l 354 514 l 514 514 m 514 688 l 514 528 l 354 528 l 354 688 l 514 688 m 514 861 l 514 701 l 354 701 l 354 861 l 514 861 m 514 167 l 514 7 l 354 7 l 354 167 l 514 167 m 340 340 l 340 181 l 181 181 l 181 340 l 340 340 m 167 514 l 167 354 l 7 354 l 7 514 l 167 514 m 688 167 l 688 7 l 528 7 l 528 167 l 688 167 m 514 340 l 514 181 l 354 181 l 354 340 l 514 340 m 340 514 l 340 354 l 181 354 l 181 514 l 340 514 m 167 688 l 167 528 l 7 528 l 7 688 l 167 688 m 340 688 l 340 528 l 181 528 l 181 688 l 340 688 m 167 861 l 167 701 l 7 701 l 7 861 l 167 861 m 861 340 l 861 181 l 701 181 l 701 340 l 861 340 m 340 861 l 340 701 l 181 701 l 181 861 l 340 861 m 1035 514 l 1035 354 l 875 354 l 875 514 l 1035 514 m 1035 688 l 1035 528 l 875 528 l 875 688 l 1035 688 z "},"w":{"ha":1736,"x_min":7,"x_max":1556,"o":"m 1382 861 l 1382 701 l 1222 701 l 1222 861 l 1382 861 m 688 167 l 688 7 l 528 7 l 528 167 l 688 167 m 861 340 l 861 181 l 701 181 l 701 340 l 861 340 m 1382 167 l 1382 7 l 1222 7 l 1222 167 l 1382 167 m 1556 340 l 1556 181 l 1396 181 l 1396 340 l 1556 340 m 1556 514 l 1556 354 l 1396 354 l 1396 514 l 1556 514 m 1556 688 l 1556 528 l 1396 528 l 1396 688 l 1556 688 m 1556 861 l 1556 701 l 1396 701 l 1396 861 l 1556 861 m 1035 514 l 1035 354 l 875 354 l 875 514 l 1035 514 m 1035 688 l 1035 528 l 875 528 l 875 688 l 1035 688 m 514 861 l 514 701 l 354 701 l 354 861 l 514 861 m 514 688 l 514 528 l 354 528 l 354 688 l 514 688 m 514 514 l 514 354 l 354 354 l 354 514 l 514 514 m 514 340 l 514 181 l 354 181 l 354 340 l 514 340 m 340 167 l 340 7 l 181 7 l 181 167 l 340 167 m 167 340 l 167 181 l 7 181 l 7 340 l 167 340 m 514 167 l 514 7 l 354 7 l 354 167 l 514 167 m 340 340 l 340 181 l 181 181 l 181 340 l 340 340 m 167 514 l 167 354 l 7 354 l 7 514 l 167 514 m 340 514 l 340 354 l 181 354 l 181 514 l 340 514 m 167 688 l 167 528 l 7 528 l 7 688 l 167 688 m 861 167 l 861 7 l 701 7 l 701 167 l 861 167 m 340 688 l 340 528 l 181 528 l 181 688 l 340 688 m 167 861 l 167 701 l 7 701 l 7 861 l 167 861 m 340 861 l 340 701 l 181 701 l 181 861 l 340 861 m 1208 167 l 1208 7 l 1049 7 l 1049 167 l 1208 167 m 1035 340 l 1035 181 l 875 181 l 875 340 l 1035 340 m 861 514 l 861 354 l 701 354 l 701 514 l 861 514 m 861 688 l 861 528 l 701 528 l 701 688 l 861 688 m 1382 340 l 1382 181 l 1222 181 l 1222 340 l 1382 340 m 1382 514 l 1382 354 l 1222 354 l 1222 514 l 1382 514 m 1382 688 l 1382 528 l 1222 528 l 1222 688 l 1382 688 z "},"x":{"ha":1389,"x_min":7,"x_max":1208,"o":"m 1208 861 l 1208 701 l 1049 701 l 1049 861 l 1208 861 m 510 333 l 510 174 l 350 174 l 350 333 l 510 333 m 857 681 l 857 521 l 697 521 l 697 681 l 857 681 m 688 167 l 688 7 l 528 7 l 528 167 l 688 167 m 688 340 l 688 181 l 528 181 l 528 340 l 688 340 m 514 514 l 514 354 l 354 354 l 354 514 l 514 514 m 340 688 l 340 528 l 181 528 l 181 688 l 340 688 m 167 861 l 167 701 l 7 701 l 7 861 l 167 861 m 340 167 l 340 7 l 181 7 l 181 167 l 340 167 m 1031 854 l 1031 694 l 871 694 l 871 854 l 1031 854 m 514 688 l 514 528 l 354 528 l 354 688 l 514 688 m 1035 340 l 1035 181 l 875 181 l 875 340 l 1035 340 m 167 167 l 167 7 l 7 7 l 7 167 l 167 167 m 340 340 l 340 181 l 181 181 l 181 340 l 340 340 m 1035 167 l 1035 7 l 875 7 l 875 167 l 1035 167 m 861 340 l 861 181 l 701 181 l 701 340 l 861 340 m 688 514 l 688 354 l 528 354 l 528 514 l 688 514 m 688 861 l 688 701 l 528 701 l 528 861 l 688 861 m 340 861 l 340 701 l 181 701 l 181 861 l 340 861 m 1208 167 l 1208 7 l 1049 7 l 1049 167 l 1208 167 m 861 167 l 861 7 l 701 7 l 701 167 l 861 167 m 861 514 l 861 354 l 701 354 l 701 514 l 861 514 m 688 688 l 688 528 l 528 528 l 528 688 l 688 688 m 514 861 l 514 701 l 354 701 l 354 861 l 514 861 m 1035 688 l 1035 528 l 875 528 l 875 688 l 1035 688 z "},"y":{"ha":1215,"x_min":7,"x_max":1035,"o":"m 1035 861 l 1035 701 l 875 701 l 875 861 l 1035 861 m 688 340 l 688 181 l 528 181 l 528 340 l 688 340 m 861 167 l 861 7 l 701 7 l 701 167 l 861 167 m 514 -181 l 514 -340 l 354 -340 l 354 -181 l 514 -181 m 688 -7 l 688 -167 l 528 -167 l 528 -7 l 688 -7 m 861 514 l 861 354 l 701 354 l 701 514 l 861 514 m 861 688 l 861 528 l 701 528 l 701 688 l 861 688 m 861 861 l 861 701 l 701 701 l 701 861 l 861 861 m 861 340 l 861 181 l 701 181 l 701 340 l 861 340 m 340 -7 l 340 -167 l 181 -167 l 181 -7 l 340 -7 m 167 -7 l 167 -167 l 7 -167 l 7 -7 l 167 -7 m 514 514 l 514 354 l 354 354 l 354 514 l 514 514 m 514 688 l 514 528 l 354 528 l 354 688 l 514 688 m 514 861 l 514 701 l 354 701 l 354 861 l 514 861 m 167 -181 l 167 -340 l 7 -340 l 7 -181 l 167 -181 m 340 -181 l 340 -340 l 181 -340 l 181 -181 l 340 -181 m 514 -7 l 514 -167 l 354 -167 l 354 -7 l 514 -7 m 1035 340 l 1035 181 l 875 181 l 875 340 l 1035 340 m 340 340 l 340 181 l 181 181 l 181 340 l 340 340 m 167 514 l 167 354 l 7 354 l 7 514 l 167 514 m 688 167 l 688 7 l 528 7 l 528 167 l 688 167 m 514 340 l 514 181 l 354 181 l 354 340 l 514 340 m 340 514 l 340 354 l 181 354 l 181 514 l 340 514 m 167 688 l 167 528 l 7 528 l 7 688 l 167 688 m 340 688 l 340 528 l 181 528 l 181 688 l 340 688 m 167 861 l 167 701 l 7 701 l 7 861 l 167 861 m 340 861 l 340 701 l 181 701 l 181 861 l 340 861 m 1035 514 l 1035 354 l 875 354 l 875 514 l 1035 514 m 1035 688 l 1035 528 l 875 528 l 875 688 l 1035 688 z "},"z":{"ha":1215,"x_min":7,"x_max":1035,"o":"m 1035 861 l 1035 701 l 875 701 l 875 861 l 1035 861 m 167 340 l 167 181 l 7 181 l 7 340 l 167 340 m 340 514 l 340 354 l 181 354 l 181 514 l 340 514 m 514 688 l 514 528 l 354 528 l 354 688 l 514 688 m 1035 688 l 1035 528 l 875 528 l 875 688 l 1035 688 m 861 514 l 861 354 l 701 354 l 701 514 l 861 514 m 688 340 l 688 181 l 528 181 l 528 340 l 688 340 m 167 167 l 167 7 l 7 7 l 7 167 l 167 167 m 340 167 l 340 7 l 181 7 l 181 167 l 340 167 m 514 167 l 514 7 l 354 7 l 354 167 l 514 167 m 340 340 l 340 181 l 181 181 l 181 340 l 340 340 m 688 167 l 688 7 l 528 7 l 528 167 l 688 167 m 514 340 l 514 181 l 354 181 l 354 340 l 514 340 m 861 167 l 861 7 l 701 7 l 701 167 l 861 167 m 514 514 l 514 354 l 354 354 l 354 514 l 514 514 m 167 861 l 167 701 l 7 701 l 7 861 l 167 861 m 1035 167 l 1035 7 l 875 7 l 875 167 l 1035 167 m 688 514 l 688 354 l 528 354 l 528 514 l 688 514 m 340 861 l 340 701 l 181 701 l 181 861 l 340 861 m 688 688 l 688 528 l 528 528 l 528 688 l 688 688 m 514 861 l 514 701 l 354 701 l 354 861 l 514 861 m 861 688 l 861 528 l 701 528 l 701 688 l 861 688 m 688 861 l 688 701 l 528 701 l 528 861 l 688 861 m 861 861 l 861 701 l 701 701 l 701 861 l 861 861 z "},"{":{"ha":1389,"x_min":7,"x_max":1035,"o":"m 1035 1382 l 1035 1222 l 875 1222 l 875 1382 l 1035 1382 m 688 -181 l 688 -340 l 528 -340 l 528 -181 l 688 -181 m 514 -7 l 514 -167 l 354 -167 l 354 -7 l 514 -7 m 861 -181 l 861 -340 l 701 -340 l 701 -181 l 861 -181 m 514 167 l 514 7 l 354 7 l 354 167 l 514 167 m 688 -7 l 688 -167 l 528 -167 l 528 -7 l 688 -7 m 1035 -181 l 1035 -340 l 875 -340 l 875 -181 l 1035 -181 m 514 340 l 514 181 l 354 181 l 354 340 l 514 340 m 167 688 l 167 528 l 7 528 l 7 688 l 167 688 m 688 167 l 688 7 l 528 7 l 528 167 l 688 167 m 514 514 l 514 354 l 354 354 l 354 514 l 514 514 m 340 688 l 340 528 l 181 528 l 181 688 l 340 688 m 688 340 l 688 181 l 528 181 l 528 340 l 688 340 m 688 514 l 688 354 l 528 354 l 528 514 l 688 514 m 514 688 l 514 528 l 354 528 l 354 688 l 514 688 m 514 861 l 514 701 l 354 701 l 354 861 l 514 861 m 514 1035 l 514 875 l 354 875 l 354 1035 l 514 1035 m 688 861 l 688 701 l 528 701 l 528 861 l 688 861 m 514 1208 l 514 1049 l 354 1049 l 354 1208 l 514 1208 m 688 1035 l 688 875 l 528 875 l 528 1035 l 688 1035 m 688 1208 l 688 1049 l 528 1049 l 528 1208 l 688 1208 m 688 1382 l 688 1222 l 528 1222 l 528 1382 l 688 1382 m 861 1382 l 861 1222 l 701 1222 l 701 1382 l 861 1382 z "},"|":{"ha":868,"x_min":181,"x_max":514,"o":"m 340 1382 l 340 1222 l 181 1222 l 181 1382 l 340 1382 m 514 -181 l 514 -340 l 354 -340 l 354 -181 l 514 -181 m 514 -7 l 514 -167 l 354 -167 l 354 -7 l 514 -7 m 514 167 l 514 7 l 354 7 l 354 167 l 514 167 m 514 340 l 514 181 l 354 181 l 354 340 l 514 340 m 514 514 l 514 354 l 354 354 l 354 514 l 514 514 m 514 688 l 514 528 l 354 528 l 354 688 l 514 688 m 514 861 l 514 701 l 354 701 l 354 861 l 514 861 m 514 1035 l 514 875 l 354 875 l 354 1035 l 514 1035 m 514 1208 l 514 1049 l 354 1049 l 354 1208 l 514 1208 m 514 1382 l 514 1222 l 354 1222 l 354 1382 l 514 1382 m 340 -181 l 340 -340 l 181 -340 l 181 -181 l 340 -181 m 340 -7 l 340 -167 l 181 -167 l 181 -7 l 340 -7 m 340 167 l 340 7 l 181 7 l 181 167 l 340 167 m 340 340 l 340 181 l 181 181 l 181 340 l 340 340 m 340 514 l 340 354 l 181 354 l 181 514 l 340 514 m 340 688 l 340 528 l 181 528 l 181 688 l 340 688 m 340 861 l 340 701 l 181 701 l 181 861 l 340 861 m 340 1035 l 340 875 l 181 875 l 181 1035 l 340 1035 m 340 1208 l 340 1049 l 181 1049 l 181 1208 l 340 1208 z "},"}":{"ha":1389,"x_min":181,"x_max":1208,"o":"m 688 1382 l 688 1222 l 528 1222 l 528 1382 l 688 1382 m 340 -181 l 340 -340 l 181 -340 l 181 -181 l 340 -181 m 514 -181 l 514 -340 l 354 -340 l 354 -181 l 514 -181 m 688 -181 l 688 -340 l 528 -340 l 528 -181 l 688 -181 m 688 -7 l 688 -167 l 528 -167 l 528 -7 l 688 -7 m 861 -7 l 861 -167 l 701 -167 l 701 -7 l 861 -7 m 688 167 l 688 7 l 528 7 l 528 167 l 688 167 m 861 167 l 861 7 l 701 7 l 701 167 l 861 167 m 688 340 l 688 181 l 528 181 l 528 340 l 688 340 m 861 340 l 861 181 l 701 181 l 701 340 l 861 340 m 688 514 l 688 354 l 528 354 l 528 514 l 688 514 m 861 514 l 861 354 l 701 354 l 701 514 l 861 514 m 861 688 l 861 528 l 701 528 l 701 688 l 861 688 m 688 861 l 688 701 l 528 701 l 528 861 l 688 861 m 861 861 l 861 701 l 701 701 l 701 861 l 861 861 m 688 1035 l 688 875 l 528 875 l 528 1035 l 688 1035 m 1035 688 l 1035 528 l 875 528 l 875 688 l 1035 688 m 340 1382 l 340 1222 l 181 1222 l 181 1382 l 340 1382 m 861 1035 l 861 875 l 701 875 l 701 1035 l 861 1035 m 688 1208 l 688 1049 l 528 1049 l 528 1208 l 688 1208 m 514 1382 l 514 1222 l 354 1222 l 354 1382 l 514 1382 m 1208 688 l 1208 528 l 1049 528 l 1049 688 l 1208 688 m 861 1208 l 861 1049 l 701 1049 l 701 1208 l 861 1208 z "},"~":{"ha":1389,"x_min":7,"x_max":1208,"o":"m 1208 1382 l 1208 1222 l 1049 1222 l 1049 1382 l 1208 1382 m 861 1382 l 861 1222 l 701 1222 l 701 1382 l 861 1382 m 1035 1208 l 1035 1049 l 875 1049 l 875 1208 l 1035 1208 m 167 1208 l 167 1049 l 7 1049 l 7 1208 l 167 1208 m 514 1208 l 514 1049 l 354 1049 l 354 1208 l 514 1208 m 340 1382 l 340 1222 l 181 1222 l 181 1382 l 340 1382 m 688 1208 l 688 1049 l 528 1049 l 528 1208 l 688 1208 m 514 1382 l 514 1222 l 354 1222 l 354 1382 l 514 1382 m 861 1208 l 861 1049 l 701 1049 l 701 1208 l 861 1208 m 688 1382 l 688 1222 l 528 1222 l 528 1382 l 688 1382 z "},"":{"ha":1389,"x_min":7,"x_max":1208,"o":"m 1035 1556 l 1035 1396 l 875 1396 l 875 1556 l 1035 1556 m 1035 1729 l 1035 1569 l 875 1569 l 875 1729 l 1035 1729 m 861 1729 l 861 1569 l 701 1569 l 701 1729 l 861 1729 m 514 1729 l 514 1569 l 354 1569 l 354 1729 l 514 1729 m 340 1729 l 340 1569 l 181 1569 l 181 1729 l 340 1729 m 340 1556 l 340 1396 l 181 1396 l 181 1556 l 340 1556 m 167 1035 l 167 875 l 7 875 l 7 1035 l 167 1035 m 688 1208 l 688 1049 l 528 1049 l 528 1208 l 688 1208 m 688 514 l 688 354 l 528 354 l 528 514 l 688 514 m 861 1035 l 861 875 l 701 875 l 701 1035 l 861 1035 m 861 861 l 861 701 l 701 701 l 701 861 l 861 861 m 861 688 l 861 528 l 701 528 l 701 688 l 861 688 m 861 340 l 861 181 l 701 181 l 701 340 l 861 340 m 861 167 l 861 7 l 701 7 l 701 167 l 861 167 m 167 167 l 167 7 l 7 7 l 7 167 l 167 167 m 340 167 l 340 7 l 181 7 l 181 167 l 340 167 m 167 340 l 167 181 l 7 181 l 7 340 l 167 340 m 340 340 l 340 181 l 181 181 l 181 340 l 340 340 m 167 514 l 167 354 l 7 354 l 7 514 l 167 514 m 340 514 l 340 354 l 181 354 l 181 514 l 340 514 m 167 688 l 167 528 l 7 528 l 7 688 l 167 688 m 514 514 l 514 354 l 354 354 l 354 514 l 514 514 m 340 688 l 340 528 l 181 528 l 181 688 l 340 688 m 167 861 l 167 701 l 7 701 l 7 861 l 167 861 m 1035 167 l 1035 7 l 875 7 l 875 167 l 1035 167 m 861 514 l 861 354 l 701 354 l 701 514 l 861 514 m 340 861 l 340 701 l 181 701 l 181 861 l 340 861 m 1208 167 l 1208 7 l 1049 7 l 1049 167 l 1208 167 m 1035 340 l 1035 181 l 875 181 l 875 340 l 1035 340 m 340 1035 l 340 875 l 181 875 l 181 1035 l 340 1035 m 1208 340 l 1208 181 l 1049 181 l 1049 340 l 1208 340 m 1035 514 l 1035 354 l 875 354 l 875 514 l 1035 514 m 1208 514 l 1208 354 l 1049 354 l 1049 514 l 1208 514 m 1035 688 l 1035 528 l 875 528 l 875 688 l 1035 688 m 340 1208 l 340 1049 l 181 1049 l 181 1208 l 340 1208 m 1208 688 l 1208 528 l 1049 528 l 1049 688 l 1208 688 m 1035 861 l 1035 701 l 875 701 l 875 861 l 1035 861 m 514 1208 l 514 1049 l 354 1049 l 354 1208 l 514 1208 m 1035 1035 l 1035 875 l 875 875 l 875 1035 l 1035 1035 m 861 1208 l 861 1049 l 701 1049 l 701 1208 l 861 1208 m 1208 861 l 1208 701 l 1049 701 l 1049 861 l 1208 861 m 1035 1208 l 1035 1049 l 875 1049 l 875 1208 l 1035 1208 m 1208 1035 l 1208 875 l 1049 875 l 1049 1035 l 1208 1035 m 514 1556 l 514 1396 l 354 1396 l 354 1556 l 514 1556 m 861 1556 l 861 1396 l 701 1396 l 701 1556 l 861 1556 z "},"":{"ha":1389,"x_min":7,"x_max":1208,"o":"m 1208 861 l 1208 701 l 1049 701 l 1049 861 l 1208 861 m 688 1382 l 688 1222 l 528 1222 l 528 1382 l 688 1382 m 688 1729 l 688 1569 l 528 1569 l 528 1729 l 688 1729 m 514 1556 l 514 1396 l 354 1396 l 354 1556 l 514 1556 m 514 1382 l 514 1222 l 354 1222 l 354 1382 l 514 1382 m 340 1556 l 340 1396 l 181 1396 l 181 1556 l 340 1556 m 861 1382 l 861 1222 l 701 1222 l 701 1382 l 861 1382 m 861 1556 l 861 1396 l 701 1396 l 701 1556 l 861 1556 m 514 1729 l 514 1569 l 354 1569 l 354 1729 l 514 1729 m 1035 1556 l 1035 1396 l 875 1396 l 875 1556 l 1035 1556 m 861 1729 l 861 1569 l 701 1569 l 701 1729 l 861 1729 m 167 861 l 167 701 l 7 701 l 7 861 l 167 861 m 688 1035 l 688 875 l 528 875 l 528 1035 l 688 1035 m 688 514 l 688 354 l 528 354 l 528 514 l 688 514 m 861 861 l 861 701 l 701 701 l 701 861 l 861 861 m 861 688 l 861 528 l 701 528 l 701 688 l 861 688 m 861 340 l 861 181 l 701 181 l 701 340 l 861 340 m 861 167 l 861 7 l 701 7 l 701 167 l 861 167 m 167 167 l 167 7 l 7 7 l 7 167 l 167 167 m 340 167 l 340 7 l 181 7 l 181 167 l 340 167 m 167 340 l 167 181 l 7 181 l 7 340 l 167 340 m 340 340 l 340 181 l 181 181 l 181 340 l 340 340 m 167 514 l 167 354 l 7 354 l 7 514 l 167 514 m 340 514 l 340 354 l 181 354 l 181 514 l 340 514 m 167 688 l 167 528 l 7 528 l 7 688 l 167 688 m 514 514 l 514 354 l 354 354 l 354 514 l 514 514 m 340 688 l 340 528 l 181 528 l 181 688 l 340 688 m 1035 167 l 1035 7 l 875 7 l 875 167 l 1035 167 m 861 514 l 861 354 l 701 354 l 701 514 l 861 514 m 1208 167 l 1208 7 l 1049 7 l 1049 167 l 1208 167 m 1035 340 l 1035 181 l 875 181 l 875 340 l 1035 340 m 340 861 l 340 701 l 181 701 l 181 861 l 340 861 m 1208 340 l 1208 181 l 1049 181 l 1049 340 l 1208 340 m 1035 514 l 1035 354 l 875 354 l 875 514 l 1035 514 m 1208 514 l 1208 354 l 1049 354 l 1049 514 l 1208 514 m 1035 688 l 1035 528 l 875 528 l 875 688 l 1035 688 m 340 1035 l 340 875 l 181 875 l 181 1035 l 340 1035 m 1208 688 l 1208 528 l 1049 528 l 1049 688 l 1208 688 m 514 1035 l 514 875 l 354 875 l 354 1035 l 514 1035 m 1035 861 l 1035 701 l 875 701 l 875 861 l 1035 861 m 861 1035 l 861 875 l 701 875 l 701 1035 l 861 1035 m 1035 1035 l 1035 875 l 875 875 l 875 1035 l 1035 1035 z "},"":{"ha":1389,"x_min":7,"x_max":1208,"o":"m 1035 -7 l 1035 -167 l 875 -167 l 875 -7 l 1035 -7 m 1035 1035 l 1035 875 l 875 875 l 875 1035 l 1035 1035 m 1208 340 l 1208 181 l 1049 181 l 1049 340 l 1208 340 m 861 1208 l 861 1049 l 701 1049 l 701 1208 l 861 1208 m 1208 1035 l 1208 875 l 1049 875 l 1049 1035 l 1208 1035 m 1035 167 l 1035 7 l 875 7 l 875 167 l 1035 167 m 1208 1208 l 1208 1049 l 1049 1049 l 1049 1208 l 1208 1208 m 514 1035 l 514 875 l 354 875 l 354 1035 l 514 1035 m 514 861 l 514 701 l 354 701 l 354 861 l 514 861 m 514 688 l 514 528 l 354 528 l 354 688 l 514 688 m 514 514 l 514 354 l 354 354 l 354 514 l 514 514 m 514 340 l 514 181 l 354 181 l 354 340 l 514 340 m 340 167 l 340 7 l 181 7 l 181 167 l 340 167 m 167 340 l 167 181 l 7 181 l 7 340 l 167 340 m 514 167 l 514 7 l 354 7 l 354 167 l 514 167 m 340 340 l 340 181 l 181 181 l 181 340 l 340 340 m 167 514 l 167 354 l 7 354 l 7 514 l 167 514 m 688 167 l 688 7 l 528 7 l 528 167 l 688 167 m 340 514 l 340 354 l 181 354 l 181 514 l 340 514 m 167 688 l 167 528 l 7 528 l 7 688 l 167 688 m 861 167 l 861 7 l 701 7 l 701 167 l 861 167 m 340 688 l 340 528 l 181 528 l 181 688 l 340 688 m 167 861 l 167 701 l 7 701 l 7 861 l 167 861 m 340 861 l 340 701 l 181 701 l 181 861 l 340 861 m 167 1035 l 167 875 l 7 875 l 7 1035 l 167 1035 m 340 1035 l 340 875 l 181 875 l 181 1035 l 340 1035 m 340 1208 l 340 1049 l 181 1049 l 181 1208 l 340 1208 m 514 1208 l 514 1049 l 354 1049 l 354 1208 l 514 1208 m 688 1208 l 688 1049 l 528 1049 l 528 1208 l 688 1208 m 1035 1208 l 1035 1049 l 875 1049 l 875 1208 l 1035 1208 m 514 -181 l 514 -340 l 354 -340 l 354 -181 l 514 -181 m 688 -181 l 688 -340 l 528 -340 l 528 -181 l 688 -181 m 861 -181 l 861 -340 l 701 -340 l 701 -181 l 861 -181 m 861 -7 l 861 -167 l 701 -167 l 701 -7 l 861 -7 z "},"":{"ha":1389,"x_min":7,"x_max":1208,"o":"m 1035 1729 l 1035 1569 l 875 1569 l 875 1729 l 1035 1729 m 1035 1035 l 1035 875 l 875 875 l 875 1035 l 1035 1035 m 1035 340 l 1035 181 l 875 181 l 875 340 l 1035 340 m 1208 1035 l 1208 875 l 1049 875 l 1049 1035 l 1208 1035 m 1208 340 l 1208 181 l 1049 181 l 1049 340 l 1208 340 m 1035 688 l 1035 528 l 875 528 l 875 688 l 1035 688 m 1208 167 l 1208 7 l 1049 7 l 1049 167 l 1208 167 m 1208 1208 l 1208 1049 l 1049 1049 l 1049 1208 l 1208 1208 m 514 1035 l 514 875 l 354 875 l 354 1035 l 514 1035 m 514 861 l 514 701 l 354 701 l 354 861 l 514 861 m 514 514 l 514 354 l 354 354 l 354 514 l 514 514 m 514 340 l 514 181 l 354 181 l 354 340 l 514 340 m 167 167 l 167 7 l 7 7 l 7 167 l 167 167 m 340 167 l 340 7 l 181 7 l 181 167 l 340 167 m 167 340 l 167 181 l 7 181 l 7 340 l 167 340 m 514 167 l 514 7 l 354 7 l 354 167 l 514 167 m 340 340 l 340 181 l 181 181 l 181 340 l 340 340 m 167 514 l 167 354 l 7 354 l 7 514 l 167 514 m 688 167 l 688 7 l 528 7 l 528 167 l 688 167 m 340 514 l 340 354 l 181 354 l 181 514 l 340 514 m 167 688 l 167 528 l 7 528 l 7 688 l 167 688 m 861 167 l 861 7 l 701 7 l 701 167 l 861 167 m 340 688 l 340 528 l 181 528 l 181 688 l 340 688 m 167 861 l 167 701 l 7 701 l 7 861 l 167 861 m 1035 167 l 1035 7 l 875 7 l 875 167 l 1035 167 m 514 688 l 514 528 l 354 528 l 354 688 l 514 688 m 340 861 l 340 701 l 181 701 l 181 861 l 340 861 m 167 1035 l 167 875 l 7 875 l 7 1035 l 167 1035 m 688 688 l 688 528 l 528 528 l 528 688 l 688 688 m 340 1035 l 340 875 l 181 875 l 181 1035 l 340 1035 m 167 1208 l 167 1049 l 7 1049 l 7 1208 l 167 1208 m 861 688 l 861 528 l 701 528 l 701 688 l 861 688 m 340 1208 l 340 1049 l 181 1049 l 181 1208 l 340 1208 m 514 1208 l 514 1049 l 354 1049 l 354 1208 l 514 1208 m 688 1208 l 688 1049 l 528 1049 l 528 1208 l 688 1208 m 861 1208 l 861 1049 l 701 1049 l 701 1208 l 861 1208 m 1035 1208 l 1035 1049 l 875 1049 l 875 1208 l 1035 1208 m 688 1556 l 688 1396 l 528 1396 l 528 1556 l 688 1556 m 861 1556 l 861 1396 l 701 1396 l 701 1556 l 861 1556 m 861 1729 l 861 1569 l 701 1569 l 701 1729 l 861 1729 z "},"":{"ha":1563,"x_min":7,"x_max":1382,"o":"m 1208 1729 l 1208 1569 l 1049 1569 l 1049 1729 l 1208 1729 m 1382 1208 l 1382 1049 l 1222 1049 l 1222 1208 l 1382 1208 m 1382 1035 l 1382 875 l 1222 875 l 1222 1035 l 1382 1035 m 1382 861 l 1382 701 l 1222 701 l 1222 861 l 1382 861 m 1382 688 l 1382 528 l 1222 528 l 1222 688 l 1382 688 m 1382 514 l 1382 354 l 1222 354 l 1222 514 l 1382 514 m 1382 340 l 1382 181 l 1222 181 l 1222 340 l 1382 340 m 1382 167 l 1382 7 l 1222 7 l 1222 167 l 1382 167 m 1035 167 l 1035 7 l 875 7 l 875 167 l 1035 167 m 861 340 l 861 181 l 701 181 l 701 340 l 861 340 m 688 514 l 688 354 l 528 354 l 528 514 l 688 514 m 514 688 l 514 528 l 354 528 l 354 688 l 514 688 m 167 167 l 167 7 l 7 7 l 7 167 l 167 167 m 167 340 l 167 181 l 7 181 l 7 340 l 167 340 m 167 514 l 167 354 l 7 354 l 7 514 l 167 514 m 167 688 l 167 528 l 7 528 l 7 688 l 167 688 m 167 861 l 167 701 l 7 701 l 7 861 l 167 861 m 167 1035 l 167 875 l 7 875 l 7 1035 l 167 1035 m 167 1208 l 167 1049 l 7 1049 l 7 1208 l 167 1208 m 340 167 l 340 7 l 181 7 l 181 167 l 340 167 m 340 340 l 340 181 l 181 181 l 181 340 l 340 340 m 340 514 l 340 354 l 181 354 l 181 514 l 340 514 m 340 688 l 340 528 l 181 528 l 181 688 l 340 688 m 340 861 l 340 701 l 181 701 l 181 861 l 340 861 m 1208 167 l 1208 7 l 1049 7 l 1049 167 l 1208 167 m 1035 340 l 1035 181 l 875 181 l 875 340 l 1035 340 m 861 514 l 861 354 l 701 354 l 701 514 l 861 514 m 688 688 l 688 528 l 528 528 l 528 688 l 688 688 m 514 861 l 514 701 l 354 701 l 354 861 l 514 861 m 340 1035 l 340 875 l 181 875 l 181 1035 l 340 1035 m 1035 514 l 1035 354 l 875 354 l 875 514 l 1035 514 m 861 688 l 861 528 l 701 528 l 701 688 l 861 688 m 688 861 l 688 701 l 528 701 l 528 861 l 688 861 m 514 1035 l 514 875 l 354 875 l 354 1035 l 514 1035 m 1208 340 l 1208 181 l 1049 181 l 1049 340 l 1208 340 m 340 1208 l 340 1049 l 181 1049 l 181 1208 l 340 1208 m 1035 688 l 1035 528 l 875 528 l 875 688 l 1035 688 m 861 861 l 861 701 l 701 701 l 701 861 l 861 861 m 688 1035 l 688 875 l 528 875 l 528 1035 l 688 1035 m 514 1208 l 514 1049 l 354 1049 l 354 1208 l 514 1208 m 1208 514 l 1208 354 l 1049 354 l 1049 514 l 1208 514 m 1208 688 l 1208 528 l 1049 528 l 1049 688 l 1208 688 m 1208 861 l 1208 701 l 1049 701 l 1049 861 l 1208 861 m 1208 1035 l 1208 875 l 1049 875 l 1049 1035 l 1208 1035 m 1208 1208 l 1208 1049 l 1049 1049 l 1049 1208 l 1208 1208 m 340 1556 l 340 1396 l 181 1396 l 181 1556 l 340 1556 m 688 1556 l 688 1396 l 528 1396 l 528 1556 l 688 1556 m 514 1729 l 514 1569 l 354 1569 l 354 1729 l 514 1729 m 861 1556 l 861 1396 l 701 1396 l 701 1556 l 861 1556 m 688 1729 l 688 1569 l 528 1569 l 528 1729 l 688 1729 m 1035 1556 l 1035 1396 l 875 1396 l 875 1556 l 1035 1556 m 861 1729 l 861 1569 l 701 1569 l 701 1729 l 861 1729 z "},"":{"ha":1563,"x_min":7,"x_max":1382,"o":"m 1035 1208 l 1035 1049 l 875 1049 l 875 1208 l 1035 1208 m 1208 1729 l 1208 1569 l 1049 1569 l 1049 1729 l 1208 1729 m 1035 1729 l 1035 1569 l 875 1569 l 875 1729 l 1035 1729 m 688 1729 l 688 1569 l 528 1569 l 528 1729 l 688 1729 m 514 1729 l 514 1569 l 354 1569 l 354 1729 l 514 1729 m 514 1556 l 514 1396 l 354 1396 l 354 1556 l 514 1556 m 688 1556 l 688 1396 l 528 1396 l 528 1556 l 688 1556 m 1035 1556 l 1035 1396 l 875 1396 l 875 1556 l 1035 1556 m 1208 1556 l 1208 1396 l 1049 1396 l 1049 1556 l 1208 1556 m 861 167 l 861 7 l 701 7 l 701 167 l 861 167 m 861 1208 l 861 1049 l 701 1049 l 701 1208 l 861 1208 m 514 1035 l 514 875 l 354 875 l 354 1035 l 514 1035 m 514 861 l 514 701 l 354 701 l 354 861 l 514 861 m 514 688 l 514 528 l 354 528 l 354 688 l 514 688 m 514 514 l 514 354 l 354 354 l 354 514 l 514 514 m 514 340 l 514 181 l 354 181 l 354 340 l 514 340 m 1208 167 l 1208 7 l 1049 7 l 1049 167 l 1208 167 m 1382 340 l 1382 181 l 1222 181 l 1222 340 l 1382 340 m 1382 514 l 1382 354 l 1222 354 l 1222 514 l 1382 514 m 1382 688 l 1382 528 l 1222 528 l 1222 688 l 1382 688 m 1382 861 l 1382 701 l 1222 701 l 1222 861 l 1382 861 m 1382 1035 l 1382 875 l 1222 875 l 1222 1035 l 1382 1035 m 1208 1208 l 1208 1049 l 1049 1049 l 1049 1208 l 1208 1208 m 340 167 l 340 7 l 181 7 l 181 167 l 340 167 m 167 340 l 167 181 l 7 181 l 7 340 l 167 340 m 514 167 l 514 7 l 354 7 l 354 167 l 514 167 m 340 340 l 340 181 l 181 181 l 181 340 l 340 340 m 167 514 l 167 354 l 7 354 l 7 514 l 167 514 m 688 167 l 688 7 l 528 7 l 528 167 l 688 167 m 340 514 l 340 354 l 181 354 l 181 514 l 340 514 m 167 688 l 167 528 l 7 528 l 7 688 l 167 688 m 1035 167 l 1035 7 l 875 7 l 875 167 l 1035 167 m 340 688 l 340 528 l 181 528 l 181 688 l 340 688 m 167 861 l 167 701 l 7 701 l 7 861 l 167 861 m 340 861 l 340 701 l 181 701 l 181 861 l 340 861 m 167 1035 l 167 875 l 7 875 l 7 1035 l 167 1035 m 1035 340 l 1035 181 l 875 181 l 875 340 l 1035 340 m 340 1035 l 340 875 l 181 875 l 181 1035 l 340 1035 m 1208 340 l 1208 181 l 1049 181 l 1049 340 l 1208 340 m 1035 514 l 1035 354 l 875 354 l 875 514 l 1035 514 m 1208 514 l 1208 354 l 1049 354 l 1049 514 l 1208 514 m 1035 688 l 1035 528 l 875 528 l 875 688 l 1035 688 m 340 1208 l 340 1049 l 181 1049 l 181 1208 l 340 1208 m 1208 688 l 1208 528 l 1049 528 l 1049 688 l 1208 688 m 1035 861 l 1035 701 l 875 701 l 875 861 l 1035 861 m 514 1208 l 514 1049 l 354 1049 l 354 1208 l 514 1208 m 1035 1035 l 1035 875 l 875 875 l 875 1035 l 1035 1035 m 688 1208 l 688 1049 l 528 1049 l 528 1208 l 688 1208 m 1208 861 l 1208 701 l 1049 701 l 1049 861 l 1208 861 m 1208 1035 l 1208 875 l 1049 875 l 1049 1035 l 1208 1035 z "},"":{"ha":1389,"x_min":7,"x_max":1208,"o":"m 1035 1556 l 1035 1396 l 875 1396 l 875 1556 l 1035 1556 m 340 1729 l 340 1569 l 181 1569 l 181 1729 l 340 1729 m 514 1729 l 514 1569 l 354 1569 l 354 1729 l 514 1729 m 861 1729 l 861 1569 l 701 1569 l 701 1729 l 861 1729 m 1035 1729 l 1035 1569 l 875 1569 l 875 1729 l 1035 1729 m 340 1556 l 340 1396 l 181 1396 l 181 1556 l 340 1556 m 688 167 l 688 7 l 528 7 l 528 167 l 688 167 m 1035 340 l 1035 181 l 875 181 l 875 340 l 1035 340 m 1035 514 l 1035 354 l 875 354 l 875 514 l 1035 514 m 1035 688 l 1035 528 l 875 528 l 875 688 l 1035 688 m 1035 861 l 1035 701 l 875 701 l 875 861 l 1035 861 m 1035 1035 l 1035 875 l 875 875 l 875 1035 l 1035 1035 m 1035 1208 l 1035 1049 l 875 1049 l 875 1208 l 1035 1208 m 514 1208 l 514 1049 l 354 1049 l 354 1208 l 514 1208 m 514 1035 l 514 875 l 354 875 l 354 1035 l 514 1035 m 514 861 l 514 701 l 354 701 l 354 861 l 514 861 m 514 688 l 514 528 l 354 528 l 354 688 l 514 688 m 514 514 l 514 354 l 354 354 l 354 514 l 514 514 m 514 340 l 514 181 l 354 181 l 354 340 l 514 340 m 340 167 l 340 7 l 181 7 l 181 167 l 340 167 m 167 340 l 167 181 l 7 181 l 7 340 l 167 340 m 514 167 l 514 7 l 354 7 l 354 167 l 514 167 m 340 340 l 340 181 l 181 181 l 181 340 l 340 340 m 167 514 l 167 354 l 7 354 l 7 514 l 167 514 m 340 514 l 340 354 l 181 354 l 181 514 l 340 514 m 861 167 l 861 7 l 701 7 l 701 167 l 861 167 m 167 688 l 167 528 l 7 528 l 7 688 l 167 688 m 1035 167 l 1035 7 l 875 7 l 875 167 l 1035 167 m 340 688 l 340 528 l 181 528 l 181 688 l 340 688 m 167 861 l 167 701 l 7 701 l 7 861 l 167 861 m 340 861 l 340 701 l 181 701 l 181 861 l 340 861 m 167 1035 l 167 875 l 7 875 l 7 1035 l 167 1035 m 1208 340 l 1208 181 l 1049 181 l 1049 340 l 1208 340 m 340 1035 l 340 875 l 181 875 l 181 1035 l 340 1035 m 167 1208 l 167 1049 l 7 1049 l 7 1208 l 167 1208 m 1208 514 l 1208 354 l 1049 354 l 1049 514 l 1208 514 m 340 1208 l 340 1049 l 181 1049 l 181 1208 l 340 1208 m 1208 688 l 1208 528 l 1049 528 l 1049 688 l 1208 688 m 1208 861 l 1208 701 l 1049 701 l 1049 861 l 1208 861 m 1208 1035 l 1208 875 l 1049 875 l 1049 1035 l 1208 1035 m 1208 1208 l 1208 1049 l 1049 1049 l 1049 1208 l 1208 1208 m 514 1556 l 514 1396 l 354 1396 l 354 1556 l 514 1556 m 861 1556 l 861 1396 l 701 1396 l 701 1556 l 861 1556 z "},"":{"ha":1389,"x_min":7,"x_max":1208,"o":"m 1035 1382 l 1035 1222 l 875 1222 l 875 1382 l 1035 1382 m 861 1556 l 861 1396 l 701 1396 l 701 1556 l 861 1556 m 1035 1556 l 1035 1396 l 875 1396 l 875 1556 l 1035 1556 m 514 340 l 514 181 l 354 181 l 354 340 l 514 340 m 340 861 l 340 701 l 181 701 l 181 861 l 340 861 m 340 514 l 340 354 l 181 354 l 181 514 l 340 514 m 167 340 l 167 181 l 7 181 l 7 340 l 167 340 m 340 167 l 340 7 l 181 7 l 181 167 l 340 167 m 861 688 l 861 528 l 701 528 l 701 688 l 861 688 m 861 340 l 861 181 l 701 181 l 701 340 l 861 340 m 514 167 l 514 7 l 354 7 l 354 167 l 514 167 m 340 340 l 340 181 l 181 181 l 181 340 l 340 340 m 688 167 l 688 7 l 528 7 l 528 167 l 688 167 m 861 167 l 861 7 l 701 7 l 701 167 l 861 167 m 514 514 l 514 354 l 354 354 l 354 514 l 514 514 m 1035 167 l 1035 7 l 875 7 l 875 167 l 1035 167 m 688 514 l 688 354 l 528 354 l 528 514 l 688 514 m 861 514 l 861 354 l 701 354 l 701 514 l 861 514 m 514 861 l 514 701 l 354 701 l 354 861 l 514 861 m 1208 167 l 1208 7 l 1049 7 l 1049 167 l 1208 167 m 1035 340 l 1035 181 l 875 181 l 875 340 l 1035 340 m 688 861 l 688 701 l 528 701 l 528 861 l 688 861 m 1208 340 l 1208 181 l 1049 181 l 1049 340 l 1208 340 m 1035 514 l 1035 354 l 875 354 l 875 514 l 1035 514 m 861 861 l 861 701 l 701 701 l 701 861 l 861 861 m 1208 514 l 1208 354 l 1049 354 l 1049 514 l 1208 514 m 1035 688 l 1035 528 l 875 528 l 875 688 l 1035 688 m 1035 861 l 1035 701 l 875 701 l 875 861 l 1035 861 m 1208 688 l 1208 528 l 1049 528 l 1049 688 l 1208 688 m 688 1208 l 688 1049 l 528 1049 l 528 1208 l 688 1208 m 861 1208 l 861 1049 l 701 1049 l 701 1208 l 861 1208 m 861 1382 l 861 1222 l 701 1222 l 701 1382 l 861 1382 z "},"":{"ha":1389,"x_min":7,"x_max":1208,"o":"m 688 1556 l 688 1396 l 528 1396 l 528 1556 l 688 1556 m 514 1382 l 514 1222 l 354 1222 l 354 1382 l 514 1382 m 688 1208 l 688 1049 l 528 1049 l 528 1208 l 688 1208 m 514 340 l 514 181 l 354 181 l 354 340 l 514 340 m 340 861 l 340 701 l 181 701 l 181 861 l 340 861 m 340 514 l 340 354 l 181 354 l 181 514 l 340 514 m 167 340 l 167 181 l 7 181 l 7 340 l 167 340 m 340 167 l 340 7 l 181 7 l 181 167 l 340 167 m 861 688 l 861 528 l 701 528 l 701 688 l 861 688 m 861 340 l 861 181 l 701 181 l 701 340 l 861 340 m 514 167 l 514 7 l 354 7 l 354 167 l 514 167 m 340 340 l 340 181 l 181 181 l 181 340 l 340 340 m 688 167 l 688 7 l 528 7 l 528 167 l 688 167 m 861 167 l 861 7 l 701 7 l 701 167 l 861 167 m 514 514 l 514 354 l 354 354 l 354 514 l 514 514 m 1035 167 l 1035 7 l 875 7 l 875 167 l 1035 167 m 688 514 l 688 354 l 528 354 l 528 514 l 688 514 m 861 514 l 861 354 l 701 354 l 701 514 l 861 514 m 514 861 l 514 701 l 354 701 l 354 861 l 514 861 m 1208 167 l 1208 7 l 1049 7 l 1049 167 l 1208 167 m 1035 340 l 1035 181 l 875 181 l 875 340 l 1035 340 m 688 861 l 688 701 l 528 701 l 528 861 l 688 861 m 1208 340 l 1208 181 l 1049 181 l 1049 340 l 1208 340 m 1035 514 l 1035 354 l 875 354 l 875 514 l 1035 514 m 861 861 l 861 701 l 701 701 l 701 861 l 861 861 m 1208 514 l 1208 354 l 1049 354 l 1049 514 l 1208 514 m 1035 688 l 1035 528 l 875 528 l 875 688 l 1035 688 m 1035 861 l 1035 701 l 875 701 l 875 861 l 1035 861 m 1208 688 l 1208 528 l 1049 528 l 1049 688 l 1208 688 m 688 1382 l 688 1222 l 528 1222 l 528 1382 l 688 1382 m 514 1556 l 514 1396 l 354 1396 l 354 1556 l 514 1556 m 861 1208 l 861 1049 l 701 1049 l 701 1208 l 861 1208 z "},"":{"ha":1389,"x_min":7,"x_max":1208,"o":"m 1035 1208 l 1035 1049 l 875 1049 l 875 1208 l 1035 1208 m 688 1382 l 688 1222 l 528 1222 l 528 1382 l 688 1382 m 340 1208 l 340 1049 l 181 1049 l 181 1208 l 340 1208 m 688 1208 l 688 1049 l 528 1049 l 528 1208 l 688 1208 m 861 1208 l 861 1049 l 701 1049 l 701 1208 l 861 1208 m 514 340 l 514 181 l 354 181 l 354 340 l 514 340 m 340 861 l 340 701 l 181 701 l 181 861 l 340 861 m 340 514 l 340 354 l 181 354 l 181 514 l 340 514 m 167 340 l 167 181 l 7 181 l 7 340 l 167 340 m 340 167 l 340 7 l 181 7 l 181 167 l 340 167 m 861 688 l 861 528 l 701 528 l 701 688 l 861 688 m 861 340 l 861 181 l 701 181 l 701 340 l 861 340 m 514 167 l 514 7 l 354 7 l 354 167 l 514 167 m 340 340 l 340 181 l 181 181 l 181 340 l 340 340 m 688 167 l 688 7 l 528 7 l 528 167 l 688 167 m 861 167 l 861 7 l 701 7 l 701 167 l 861 167 m 514 514 l 514 354 l 354 354 l 354 514 l 514 514 m 1035 167 l 1035 7 l 875 7 l 875 167 l 1035 167 m 688 514 l 688 354 l 528 354 l 528 514 l 688 514 m 861 514 l 861 354 l 701 354 l 701 514 l 861 514 m 514 861 l 514 701 l 354 701 l 354 861 l 514 861 m 1208 167 l 1208 7 l 1049 7 l 1049 167 l 1208 167 m 1035 340 l 1035 181 l 875 181 l 875 340 l 1035 340 m 688 861 l 688 701 l 528 701 l 528 861 l 688 861 m 1208 340 l 1208 181 l 1049 181 l 1049 340 l 1208 340 m 1035 514 l 1035 354 l 875 354 l 875 514 l 1035 514 m 861 861 l 861 701 l 701 701 l 701 861 l 861 861 m 1208 514 l 1208 354 l 1049 354 l 1049 514 l 1208 514 m 1035 688 l 1035 528 l 875 528 l 875 688 l 1035 688 m 1035 861 l 1035 701 l 875 701 l 875 861 l 1035 861 m 1208 688 l 1208 528 l 1049 528 l 1049 688 l 1208 688 m 514 1382 l 514 1222 l 354 1222 l 354 1382 l 514 1382 m 861 1382 l 861 1222 l 701 1222 l 701 1382 l 861 1382 m 688 1556 l 688 1396 l 528 1396 l 528 1556 l 688 1556 z "},"":{"ha":1389,"x_min":7,"x_max":1208,"o":"m 1035 1382 l 1035 1222 l 875 1222 l 875 1382 l 1035 1382 m 1035 1208 l 1035 1049 l 875 1049 l 875 1208 l 1035 1208 m 861 1208 l 861 1049 l 701 1049 l 701 1208 l 861 1208 m 340 1382 l 340 1222 l 181 1222 l 181 1382 l 340 1382 m 340 1208 l 340 1049 l 181 1049 l 181 1208 l 340 1208 m 514 1208 l 514 1049 l 354 1049 l 354 1208 l 514 1208 m 514 340 l 514 181 l 354 181 l 354 340 l 514 340 m 340 861 l 340 701 l 181 701 l 181 861 l 340 861 m 340 514 l 340 354 l 181 354 l 181 514 l 340 514 m 167 340 l 167 181 l 7 181 l 7 340 l 167 340 m 340 167 l 340 7 l 181 7 l 181 167 l 340 167 m 861 688 l 861 528 l 701 528 l 701 688 l 861 688 m 861 340 l 861 181 l 701 181 l 701 340 l 861 340 m 514 167 l 514 7 l 354 7 l 354 167 l 514 167 m 340 340 l 340 181 l 181 181 l 181 340 l 340 340 m 688 167 l 688 7 l 528 7 l 528 167 l 688 167 m 861 167 l 861 7 l 701 7 l 701 167 l 861 167 m 514 514 l 514 354 l 354 354 l 354 514 l 514 514 m 1035 167 l 1035 7 l 875 7 l 875 167 l 1035 167 m 688 514 l 688 354 l 528 354 l 528 514 l 688 514 m 861 514 l 861 354 l 701 354 l 701 514 l 861 514 m 514 861 l 514 701 l 354 701 l 354 861 l 514 861 m 1208 167 l 1208 7 l 1049 7 l 1049 167 l 1208 167 m 1035 340 l 1035 181 l 875 181 l 875 340 l 1035 340 m 688 861 l 688 701 l 528 701 l 528 861 l 688 861 m 1208 340 l 1208 181 l 1049 181 l 1049 340 l 1208 340 m 1035 514 l 1035 354 l 875 354 l 875 514 l 1035 514 m 861 861 l 861 701 l 701 701 l 701 861 l 861 861 m 1208 514 l 1208 354 l 1049 354 l 1049 514 l 1208 514 m 1035 688 l 1035 528 l 875 528 l 875 688 l 1035 688 m 1035 861 l 1035 701 l 875 701 l 875 861 l 1035 861 m 1208 688 l 1208 528 l 1049 528 l 1049 688 l 1208 688 m 514 1382 l 514 1222 l 354 1222 l 354 1382 l 514 1382 m 861 1382 l 861 1222 l 701 1222 l 701 1382 l 861 1382 z "},"":{"ha":1389,"x_min":7,"x_max":1208,"o":"m 1208 1382 l 1208 1222 l 1049 1222 l 1049 1382 l 1208 1382 m 514 340 l 514 181 l 354 181 l 354 340 l 514 340 m 340 861 l 340 701 l 181 701 l 181 861 l 340 861 m 340 514 l 340 354 l 181 354 l 181 514 l 340 514 m 167 340 l 167 181 l 7 181 l 7 340 l 167 340 m 340 167 l 340 7 l 181 7 l 181 167 l 340 167 m 861 688 l 861 528 l 701 528 l 701 688 l 861 688 m 861 340 l 861 181 l 701 181 l 701 340 l 861 340 m 514 167 l 514 7 l 354 7 l 354 167 l 514 167 m 340 340 l 340 181 l 181 181 l 181 340 l 340 340 m 688 167 l 688 7 l 528 7 l 528 167 l 688 167 m 861 167 l 861 7 l 701 7 l 701 167 l 861 167 m 514 514 l 514 354 l 354 354 l 354 514 l 514 514 m 1035 167 l 1035 7 l 875 7 l 875 167 l 1035 167 m 688 514 l 688 354 l 528 354 l 528 514 l 688 514 m 861 514 l 861 354 l 701 354 l 701 514 l 861 514 m 514 861 l 514 701 l 354 701 l 354 861 l 514 861 m 1208 167 l 1208 7 l 1049 7 l 1049 167 l 1208 167 m 1035 340 l 1035 181 l 875 181 l 875 340 l 1035 340 m 688 861 l 688 701 l 528 701 l 528 861 l 688 861 m 1208 340 l 1208 181 l 1049 181 l 1049 340 l 1208 340 m 1035 514 l 1035 354 l 875 354 l 875 514 l 1035 514 m 861 861 l 861 701 l 701 701 l 701 861 l 861 861 m 1208 514 l 1208 354 l 1049 354 l 1049 514 l 1208 514 m 1035 688 l 1035 528 l 875 528 l 875 688 l 1035 688 m 1035 861 l 1035 701 l 875 701 l 875 861 l 1035 861 m 1208 688 l 1208 528 l 1049 528 l 1049 688 l 1208 688 m 340 1208 l 340 1049 l 181 1049 l 181 1208 l 340 1208 m 688 1208 l 688 1049 l 528 1049 l 528 1208 l 688 1208 m 514 1382 l 514 1222 l 354 1222 l 354 1382 l 514 1382 m 861 1208 l 861 1049 l 701 1049 l 701 1208 l 861 1208 m 688 1382 l 688 1222 l 528 1222 l 528 1382 l 688 1382 m 1035 1208 l 1035 1049 l 875 1049 l 875 1208 l 1035 1208 m 861 1382 l 861 1222 l 701 1222 l 701 1382 l 861 1382 z "},"":{"ha":1389,"x_min":7,"x_max":1208,"o":"m 861 1556 l 861 1396 l 701 1396 l 701 1556 l 861 1556 m 514 340 l 514 181 l 354 181 l 354 340 l 514 340 m 340 861 l 340 701 l 181 701 l 181 861 l 340 861 m 340 514 l 340 354 l 181 354 l 181 514 l 340 514 m 167 340 l 167 181 l 7 181 l 7 340 l 167 340 m 340 167 l 340 7 l 181 7 l 181 167 l 340 167 m 861 688 l 861 528 l 701 528 l 701 688 l 861 688 m 861 340 l 861 181 l 701 181 l 701 340 l 861 340 m 514 167 l 514 7 l 354 7 l 354 167 l 514 167 m 340 340 l 340 181 l 181 181 l 181 340 l 340 340 m 688 167 l 688 7 l 528 7 l 528 167 l 688 167 m 861 167 l 861 7 l 701 7 l 701 167 l 861 167 m 514 514 l 514 354 l 354 354 l 354 514 l 514 514 m 1035 167 l 1035 7 l 875 7 l 875 167 l 1035 167 m 688 514 l 688 354 l 528 354 l 528 514 l 688 514 m 861 514 l 861 354 l 701 354 l 701 514 l 861 514 m 514 861 l 514 701 l 354 701 l 354 861 l 514 861 m 1208 167 l 1208 7 l 1049 7 l 1049 167 l 1208 167 m 1035 340 l 1035 181 l 875 181 l 875 340 l 1035 340 m 688 861 l 688 701 l 528 701 l 528 861 l 688 861 m 1208 340 l 1208 181 l 1049 181 l 1049 340 l 1208 340 m 1035 514 l 1035 354 l 875 354 l 875 514 l 1035 514 m 861 861 l 861 701 l 701 701 l 701 861 l 861 861 m 1208 514 l 1208 354 l 1049 354 l 1049 514 l 1208 514 m 1035 688 l 1035 528 l 875 528 l 875 688 l 1035 688 m 1035 861 l 1035 701 l 875 701 l 875 861 l 1035 861 m 1208 688 l 1208 528 l 1049 528 l 1049 688 l 1208 688 m 688 1208 l 688 1049 l 528 1049 l 528 1208 l 688 1208 m 514 1382 l 514 1222 l 354 1222 l 354 1382 l 514 1382 m 861 1208 l 861 1049 l 701 1049 l 701 1208 l 861 1208 m 861 1382 l 861 1222 l 701 1222 l 701 1382 l 861 1382 m 688 1556 l 688 1396 l 528 1396 l 528 1556 l 688 1556 m 1035 1382 l 1035 1222 l 875 1222 l 875 1382 l 1035 1382 z "},"":{"ha":1215,"x_min":7,"x_max":1035,"o":"m 1035 -7 l 1035 -167 l 875 -167 l 875 -7 l 1035 -7 m 1035 167 l 1035 7 l 875 7 l 875 167 l 1035 167 m 1035 861 l 1035 701 l 875 701 l 875 861 l 1035 861 m 514 340 l 514 181 l 354 181 l 354 340 l 514 340 m 514 514 l 514 354 l 354 354 l 354 514 l 514 514 m 514 688 l 514 528 l 354 528 l 354 688 l 514 688 m 340 167 l 340 7 l 181 7 l 181 167 l 340 167 m 167 340 l 167 181 l 7 181 l 7 340 l 167 340 m 514 167 l 514 7 l 354 7 l 354 167 l 514 167 m 340 340 l 340 181 l 181 181 l 181 340 l 340 340 m 167 514 l 167 354 l 7 354 l 7 514 l 167 514 m 688 167 l 688 7 l 528 7 l 528 167 l 688 167 m 340 514 l 340 354 l 181 354 l 181 514 l 340 514 m 167 688 l 167 528 l 7 528 l 7 688 l 167 688 m 861 167 l 861 7 l 701 7 l 701 167 l 861 167 m 340 688 l 340 528 l 181 528 l 181 688 l 340 688 m 340 861 l 340 701 l 181 701 l 181 861 l 340 861 m 514 861 l 514 701 l 354 701 l 354 861 l 514 861 m 688 861 l 688 701 l 528 701 l 528 861 l 688 861 m 861 861 l 861 701 l 701 701 l 701 861 l 861 861 m 514 -181 l 514 -340 l 354 -340 l 354 -181 l 514 -181 m 688 -181 l 688 -340 l 528 -340 l 528 -181 l 688 -181 m 861 -181 l 861 -340 l 701 -340 l 701 -181 l 861 -181 m 861 -7 l 861 -167 l 701 -167 l 701 -7 l 861 -7 z "},"":{"ha":1389,"x_min":7,"x_max":1208,"o":"m 1035 1382 l 1035 1222 l 875 1222 l 875 1382 l 1035 1382 m 861 688 l 861 528 l 701 528 l 701 688 l 861 688 m 861 167 l 861 7 l 701 7 l 701 167 l 861 167 m 861 514 l 861 354 l 701 354 l 701 514 l 861 514 m 861 861 l 861 701 l 701 701 l 701 861 l 861 861 m 514 688 l 514 528 l 354 528 l 354 688 l 514 688 m 514 340 l 514 181 l 354 181 l 354 340 l 514 340 m 340 167 l 340 7 l 181 7 l 181 167 l 340 167 m 167 340 l 167 181 l 7 181 l 7 340 l 167 340 m 514 167 l 514 7 l 354 7 l 354 167 l 514 167 m 340 340 l 340 181 l 181 181 l 181 340 l 340 340 m 167 514 l 167 354 l 7 354 l 7 514 l 167 514 m 688 167 l 688 7 l 528 7 l 528 167 l 688 167 m 340 514 l 340 354 l 181 354 l 181 514 l 340 514 m 167 688 l 167 528 l 7 528 l 7 688 l 167 688 m 1035 167 l 1035 7 l 875 7 l 875 167 l 1035 167 m 514 514 l 514 354 l 354 354 l 354 514 l 514 514 m 340 688 l 340 528 l 181 528 l 181 688 l 340 688 m 1208 167 l 1208 7 l 1049 7 l 1049 167 l 1208 167 m 688 514 l 688 354 l 528 354 l 528 514 l 688 514 m 340 861 l 340 701 l 181 701 l 181 861 l 340 861 m 1035 514 l 1035 354 l 875 354 l 875 514 l 1035 514 m 514 861 l 514 701 l 354 701 l 354 861 l 514 861 m 688 861 l 688 701 l 528 701 l 528 861 l 688 861 m 1035 688 l 1035 528 l 875 528 l 875 688 l 1035 688 m 1208 514 l 1208 354 l 1049 354 l 1049 514 l 1208 514 m 1208 688 l 1208 528 l 1049 528 l 1049 688 l 1208 688 m 1035 861 l 1035 701 l 875 701 l 875 861 l 1035 861 m 688 1208 l 688 1049 l 528 1049 l 528 1208 l 688 1208 m 861 1208 l 861 1049 l 701 1049 l 701 1208 l 861 1208 m 861 1382 l 861 1222 l 701 1222 l 701 1382 l 861 1382 z "},"":{"ha":1389,"x_min":7,"x_max":1208,"o":"m 688 1382 l 688 1222 l 528 1222 l 528 1382 l 688 1382 m 861 688 l 861 528 l 701 528 l 701 688 l 861 688 m 861 167 l 861 7 l 701 7 l 701 167 l 861 167 m 861 514 l 861 354 l 701 354 l 701 514 l 861 514 m 861 861 l 861 701 l 701 701 l 701 861 l 861 861 m 514 688 l 514 528 l 354 528 l 354 688 l 514 688 m 514 340 l 514 181 l 354 181 l 354 340 l 514 340 m 340 167 l 340 7 l 181 7 l 181 167 l 340 167 m 167 340 l 167 181 l 7 181 l 7 340 l 167 340 m 514 167 l 514 7 l 354 7 l 354 167 l 514 167 m 340 340 l 340 181 l 181 181 l 181 340 l 340 340 m 167 514 l 167 354 l 7 354 l 7 514 l 167 514 m 688 167 l 688 7 l 528 7 l 528 167 l 688 167 m 340 514 l 340 354 l 181 354 l 181 514 l 340 514 m 167 688 l 167 528 l 7 528 l 7 688 l 167 688 m 1035 167 l 1035 7 l 875 7 l 875 167 l 1035 167 m 514 514 l 514 354 l 354 354 l 354 514 l 514 514 m 340 688 l 340 528 l 181 528 l 181 688 l 340 688 m 1208 167 l 1208 7 l 1049 7 l 1049 167 l 1208 167 m 688 514 l 688 354 l 528 354 l 528 514 l 688 514 m 340 861 l 340 701 l 181 701 l 181 861 l 340 861 m 1035 514 l 1035 354 l 875 354 l 875 514 l 1035 514 m 514 861 l 514 701 l 354 701 l 354 861 l 514 861 m 688 861 l 688 701 l 528 701 l 528 861 l 688 861 m 1035 688 l 1035 528 l 875 528 l 875 688 l 1035 688 m 1208 514 l 1208 354 l 1049 354 l 1049 514 l 1208 514 m 1208 688 l 1208 528 l 1049 528 l 1049 688 l 1208 688 m 1035 861 l 1035 701 l 875 701 l 875 861 l 1035 861 m 688 1208 l 688 1049 l 528 1049 l 528 1208 l 688 1208 m 514 1382 l 514 1222 l 354 1222 l 354 1382 l 514 1382 m 861 1208 l 861 1049 l 701 1049 l 701 1208 l 861 1208 z "},"":{"ha":1389,"x_min":7,"x_max":1208,"o":"m 688 1382 l 688 1222 l 528 1222 l 528 1382 l 688 1382 m 1035 1208 l 1035 1049 l 875 1049 l 875 1208 l 1035 1208 m 861 1382 l 861 1222 l 701 1222 l 701 1382 l 861 1382 m 861 688 l 861 528 l 701 528 l 701 688 l 861 688 m 861 167 l 861 7 l 701 7 l 701 167 l 861 167 m 861 514 l 861 354 l 701 354 l 701 514 l 861 514 m 861 861 l 861 701 l 701 701 l 701 861 l 861 861 m 514 688 l 514 528 l 354 528 l 354 688 l 514 688 m 514 340 l 514 181 l 354 181 l 354 340 l 514 340 m 340 167 l 340 7 l 181 7 l 181 167 l 340 167 m 167 340 l 167 181 l 7 181 l 7 340 l 167 340 m 514 167 l 514 7 l 354 7 l 354 167 l 514 167 m 340 340 l 340 181 l 181 181 l 181 340 l 340 340 m 167 514 l 167 354 l 7 354 l 7 514 l 167 514 m 688 167 l 688 7 l 528 7 l 528 167 l 688 167 m 340 514 l 340 354 l 181 354 l 181 514 l 340 514 m 167 688 l 167 528 l 7 528 l 7 688 l 167 688 m 1035 167 l 1035 7 l 875 7 l 875 167 l 1035 167 m 514 514 l 514 354 l 354 354 l 354 514 l 514 514 m 340 688 l 340 528 l 181 528 l 181 688 l 340 688 m 1208 167 l 1208 7 l 1049 7 l 1049 167 l 1208 167 m 688 514 l 688 354 l 528 354 l 528 514 l 688 514 m 340 861 l 340 701 l 181 701 l 181 861 l 340 861 m 1035 514 l 1035 354 l 875 354 l 875 514 l 1035 514 m 514 861 l 514 701 l 354 701 l 354 861 l 514 861 m 688 861 l 688 701 l 528 701 l 528 861 l 688 861 m 1035 688 l 1035 528 l 875 528 l 875 688 l 1035 688 m 1208 514 l 1208 354 l 1049 354 l 1049 514 l 1208 514 m 1208 688 l 1208 528 l 1049 528 l 1049 688 l 1208 688 m 1035 861 l 1035 701 l 875 701 l 875 861 l 1035 861 m 340 1208 l 340 1049 l 181 1049 l 181 1208 l 340 1208 m 688 1208 l 688 1049 l 528 1049 l 528 1208 l 688 1208 m 514 1382 l 514 1222 l 354 1222 l 354 1382 l 514 1382 m 861 1208 l 861 1049 l 701 1049 l 701 1208 l 861 1208 z "},"":{"ha":1389,"x_min":7,"x_max":1208,"o":"m 1035 1382 l 1035 1222 l 875 1222 l 875 1382 l 1035 1382 m 1035 1208 l 1035 1049 l 875 1049 l 875 1208 l 1035 1208 m 861 1208 l 861 1049 l 701 1049 l 701 1208 l 861 1208 m 340 1382 l 340 1222 l 181 1222 l 181 1382 l 340 1382 m 340 1208 l 340 1049 l 181 1049 l 181 1208 l 340 1208 m 514 1208 l 514 1049 l 354 1049 l 354 1208 l 514 1208 m 861 688 l 861 528 l 701 528 l 701 688 l 861 688 m 861 167 l 861 7 l 701 7 l 701 167 l 861 167 m 861 514 l 861 354 l 701 354 l 701 514 l 861 514 m 861 861 l 861 701 l 701 701 l 701 861 l 861 861 m 514 688 l 514 528 l 354 528 l 354 688 l 514 688 m 514 340 l 514 181 l 354 181 l 354 340 l 514 340 m 340 167 l 340 7 l 181 7 l 181 167 l 340 167 m 167 340 l 167 181 l 7 181 l 7 340 l 167 340 m 514 167 l 514 7 l 354 7 l 354 167 l 514 167 m 340 340 l 340 181 l 181 181 l 181 340 l 340 340 m 167 514 l 167 354 l 7 354 l 7 514 l 167 514 m 688 167 l 688 7 l 528 7 l 528 167 l 688 167 m 340 514 l 340 354 l 181 354 l 181 514 l 340 514 m 167 688 l 167 528 l 7 528 l 7 688 l 167 688 m 1035 167 l 1035 7 l 875 7 l 875 167 l 1035 167 m 514 514 l 514 354 l 354 354 l 354 514 l 514 514 m 340 688 l 340 528 l 181 528 l 181 688 l 340 688 m 1208 167 l 1208 7 l 1049 7 l 1049 167 l 1208 167 m 688 514 l 688 354 l 528 354 l 528 514 l 688 514 m 340 861 l 340 701 l 181 701 l 181 861 l 340 861 m 1035 514 l 1035 354 l 875 354 l 875 514 l 1035 514 m 514 861 l 514 701 l 354 701 l 354 861 l 514 861 m 688 861 l 688 701 l 528 701 l 528 861 l 688 861 m 1035 688 l 1035 528 l 875 528 l 875 688 l 1035 688 m 1208 514 l 1208 354 l 1049 354 l 1049 514 l 1208 514 m 1208 688 l 1208 528 l 1049 528 l 1049 688 l 1208 688 m 1035 861 l 1035 701 l 875 701 l 875 861 l 1035 861 m 514 1382 l 514 1222 l 354 1222 l 354 1382 l 514 1382 m 861 1382 l 861 1222 l 701 1222 l 701 1382 l 861 1382 z "},"":{"ha":694,"x_min":7,"x_max":688,"o":"m 688 1382 l 688 1222 l 528 1222 l 528 1382 l 688 1382 m 514 861 l 514 701 l 354 701 l 354 861 l 514 861 m 514 688 l 514 528 l 354 528 l 354 688 l 514 688 m 514 514 l 514 354 l 354 354 l 354 514 l 514 514 m 514 340 l 514 181 l 354 181 l 354 340 l 514 340 m 514 167 l 514 7 l 354 7 l 354 167 l 514 167 m 167 167 l 167 7 l 7 7 l 7 167 l 167 167 m 340 167 l 340 7 l 181 7 l 181 167 l 340 167 m 167 340 l 167 181 l 7 181 l 7 340 l 167 340 m 340 340 l 340 181 l 181 181 l 181 340 l 340 340 m 167 514 l 167 354 l 7 354 l 7 514 l 167 514 m 340 514 l 340 354 l 181 354 l 181 514 l 340 514 m 167 688 l 167 528 l 7 528 l 7 688 l 167 688 m 340 688 l 340 528 l 181 528 l 181 688 l 340 688 m 167 861 l 167 701 l 7 701 l 7 861 l 167 861 m 340 861 l 340 701 l 181 701 l 181 861 l 340 861 m 340 1208 l 340 1049 l 181 1049 l 181 1208 l 340 1208 m 514 1208 l 514 1049 l 354 1049 l 354 1208 l 514 1208 m 514 1382 l 514 1222 l 354 1222 l 354 1382 l 514 1382 z "},"":{"ha":694,"x_min":-167,"x_max":514,"o":"m 167 1382 l 167 1222 l 7 1222 l 7 1382 l 167 1382 m 514 861 l 514 701 l 354 701 l 354 861 l 514 861 m 514 688 l 514 528 l 354 528 l 354 688 l 514 688 m 514 514 l 514 354 l 354 354 l 354 514 l 514 514 m 514 340 l 514 181 l 354 181 l 354 340 l 514 340 m 514 167 l 514 7 l 354 7 l 354 167 l 514 167 m 167 167 l 167 7 l 7 7 l 7 167 l 167 167 m 340 167 l 340 7 l 181 7 l 181 167 l 340 167 m 167 340 l 167 181 l 7 181 l 7 340 l 167 340 m 340 340 l 340 181 l 181 181 l 181 340 l 340 340 m 167 514 l 167 354 l 7 354 l 7 514 l 167 514 m 340 514 l 340 354 l 181 354 l 181 514 l 340 514 m 167 688 l 167 528 l 7 528 l 7 688 l 167 688 m 340 688 l 340 528 l 181 528 l 181 688 l 340 688 m 167 861 l 167 701 l 7 701 l 7 861 l 167 861 m 340 861 l 340 701 l 181 701 l 181 861 l 340 861 m 167 1208 l 167 1049 l 7 1049 l 7 1208 l 167 1208 m -7 1382 l -7 1222 l -167 1222 l -167 1382 l -7 1382 m 340 1208 l 340 1049 l 181 1049 l 181 1208 l 340 1208 z "},"":{"ha":694,"x_min":-167,"x_max":688,"o":"m 340 1382 l 340 1222 l 181 1222 l 181 1382 l 340 1382 m 688 1208 l 688 1049 l 528 1049 l 528 1208 l 688 1208 m 514 1382 l 514 1222 l 354 1222 l 354 1382 l 514 1382 m 514 861 l 514 701 l 354 701 l 354 861 l 514 861 m 514 688 l 514 528 l 354 528 l 354 688 l 514 688 m 514 514 l 514 354 l 354 354 l 354 514 l 514 514 m 514 340 l 514 181 l 354 181 l 354 340 l 514 340 m 514 167 l 514 7 l 354 7 l 354 167 l 514 167 m 167 167 l 167 7 l 7 7 l 7 167 l 167 167 m 340 167 l 340 7 l 181 7 l 181 167 l 340 167 m 167 340 l 167 181 l 7 181 l 7 340 l 167 340 m 340 340 l 340 181 l 181 181 l 181 340 l 340 340 m 167 514 l 167 354 l 7 354 l 7 514 l 167 514 m 340 514 l 340 354 l 181 354 l 181 514 l 340 514 m 167 688 l 167 528 l 7 528 l 7 688 l 167 688 m 340 688 l 340 528 l 181 528 l 181 688 l 340 688 m 167 861 l 167 701 l 7 701 l 7 861 l 167 861 m 340 861 l 340 701 l 181 701 l 181 861 l 340 861 m -7 1208 l -7 1049 l -167 1049 l -167 1208 l -7 1208 m 340 1208 l 340 1049 l 181 1049 l 181 1208 l 340 1208 m 167 1382 l 167 1222 l 7 1222 l 7 1382 l 167 1382 m 514 1208 l 514 1049 l 354 1049 l 354 1208 l 514 1208 z "},"":{"ha":694,"x_min":-167,"x_max":688,"o":"m 688 1382 l 688 1222 l 528 1222 l 528 1382 l 688 1382 m 688 1208 l 688 1049 l 528 1049 l 528 1208 l 688 1208 m 514 1208 l 514 1049 l 354 1049 l 354 1208 l 514 1208 m -7 1382 l -7 1222 l -167 1222 l -167 1382 l -7 1382 m -7 1208 l -7 1049 l -167 1049 l -167 1208 l -7 1208 m 167 1208 l 167 1049 l 7 1049 l 7 1208 l 167 1208 m 514 861 l 514 701 l 354 701 l 354 861 l 514 861 m 514 688 l 514 528 l 354 528 l 354 688 l 514 688 m 514 514 l 514 354 l 354 354 l 354 514 l 514 514 m 514 340 l 514 181 l 354 181 l 354 340 l 514 340 m 514 167 l 514 7 l 354 7 l 354 167 l 514 167 m 167 167 l 167 7 l 7 7 l 7 167 l 167 167 m 340 167 l 340 7 l 181 7 l 181 167 l 340 167 m 167 340 l 167 181 l 7 181 l 7 340 l 167 340 m 340 340 l 340 181 l 181 181 l 181 340 l 340 340 m 167 514 l 167 354 l 7 354 l 7 514 l 167 514 m 340 514 l 340 354 l 181 354 l 181 514 l 340 514 m 167 688 l 167 528 l 7 528 l 7 688 l 167 688 m 340 688 l 340 528 l 181 528 l 181 688 l 340 688 m 167 861 l 167 701 l 7 701 l 7 861 l 167 861 m 340 861 l 340 701 l 181 701 l 181 861 l 340 861 m 167 1382 l 167 1222 l 7 1222 l 7 1382 l 167 1382 m 514 1382 l 514 1222 l 354 1222 l 354 1382 l 514 1382 z "},"":{"ha":1389,"x_min":7,"x_max":1208,"o":"m 1208 1382 l 1208 1222 l 1049 1222 l 1049 1382 l 1208 1382 m 688 861 l 688 701 l 528 701 l 528 861 l 688 861 m 514 167 l 514 7 l 354 7 l 354 167 l 514 167 m 514 340 l 514 181 l 354 181 l 354 340 l 514 340 m 514 514 l 514 354 l 354 354 l 354 514 l 514 514 m 514 688 l 514 528 l 354 528 l 354 688 l 514 688 m 1035 861 l 1035 701 l 875 701 l 875 861 l 1035 861 m 1208 688 l 1208 528 l 1049 528 l 1049 688 l 1208 688 m 1208 514 l 1208 354 l 1049 354 l 1049 514 l 1208 514 m 1208 340 l 1208 181 l 1049 181 l 1049 340 l 1208 340 m 1208 167 l 1208 7 l 1049 7 l 1049 167 l 1208 167 m 167 167 l 167 7 l 7 7 l 7 167 l 167 167 m 340 167 l 340 7 l 181 7 l 181 167 l 340 167 m 167 340 l 167 181 l 7 181 l 7 340 l 167 340 m 340 340 l 340 181 l 181 181 l 181 340 l 340 340 m 167 514 l 167 354 l 7 354 l 7 514 l 167 514 m 340 514 l 340 354 l 181 354 l 181 514 l 340 514 m 167 688 l 167 528 l 7 528 l 7 688 l 167 688 m 861 167 l 861 7 l 701 7 l 701 167 l 861 167 m 340 688 l 340 528 l 181 528 l 181 688 l 340 688 m 167 861 l 167 701 l 7 701 l 7 861 l 167 861 m 1035 167 l 1035 7 l 875 7 l 875 167 l 1035 167 m 861 340 l 861 181 l 701 181 l 701 340 l 861 340 m 340 861 l 340 701 l 181 701 l 181 861 l 340 861 m 1035 340 l 1035 181 l 875 181 l 875 340 l 1035 340 m 861 514 l 861 354 l 701 354 l 701 514 l 861 514 m 514 861 l 514 701 l 354 701 l 354 861 l 514 861 m 1035 514 l 1035 354 l 875 354 l 875 514 l 1035 514 m 861 688 l 861 528 l 701 528 l 701 688 l 861 688 m 1035 688 l 1035 528 l 875 528 l 875 688 l 1035 688 m 861 861 l 861 701 l 701 701 l 701 861 l 861 861 m 1035 1382 l 1035 1222 l 875 1222 l 875 1382 l 1035 1382 m 1208 1556 l 1208 1396 l 1049 1396 l 1049 1556 l 1208 1556 m 514 1382 l 514 1222 l 354 1222 l 354 1382 l 514 1382 m 340 1208 l 340 1049 l 181 1049 l 181 1208 l 340 1208 m 688 1208 l 688 1049 l 528 1049 l 528 1208 l 688 1208 m 861 1208 l 861 1049 l 701 1049 l 701 1208 l 861 1208 m 688 1382 l 688 1222 l 528 1222 l 528 1382 l 688 1382 m 1035 1208 l 1035 1049 l 875 1049 l 875 1208 l 1035 1208 m 861 1382 l 861 1222 l 701 1222 l 701 1382 l 861 1382 z "},"":{"ha":1389,"x_min":7,"x_max":1208,"o":"m 1035 1382 l 1035 1222 l 875 1222 l 875 1382 l 1035 1382 m 1035 167 l 1035 7 l 875 7 l 875 167 l 1035 167 m 1208 340 l 1208 181 l 1049 181 l 1049 340 l 1208 340 m 1208 514 l 1208 354 l 1049 354 l 1049 514 l 1208 514 m 1208 688 l 1208 528 l 1049 528 l 1049 688 l 1208 688 m 1035 861 l 1035 701 l 875 701 l 875 861 l 1035 861 m 688 167 l 688 7 l 528 7 l 528 167 l 688 167 m 688 861 l 688 701 l 528 701 l 528 861 l 688 861 m 514 688 l 514 528 l 354 528 l 354 688 l 514 688 m 514 514 l 514 354 l 354 354 l 354 514 l 514 514 m 514 340 l 514 181 l 354 181 l 354 340 l 514 340 m 340 167 l 340 7 l 181 7 l 181 167 l 340 167 m 167 340 l 167 181 l 7 181 l 7 340 l 167 340 m 514 167 l 514 7 l 354 7 l 354 167 l 514 167 m 340 340 l 340 181 l 181 181 l 181 340 l 340 340 m 167 514 l 167 354 l 7 354 l 7 514 l 167 514 m 340 514 l 340 354 l 181 354 l 181 514 l 340 514 m 167 688 l 167 528 l 7 528 l 7 688 l 167 688 m 861 167 l 861 7 l 701 7 l 701 167 l 861 167 m 340 688 l 340 528 l 181 528 l 181 688 l 340 688 m 861 340 l 861 181 l 701 181 l 701 340 l 861 340 m 340 861 l 340 701 l 181 701 l 181 861 l 340 861 m 1035 340 l 1035 181 l 875 181 l 875 340 l 1035 340 m 861 514 l 861 354 l 701 354 l 701 514 l 861 514 m 514 861 l 514 701 l 354 701 l 354 861 l 514 861 m 861 688 l 861 528 l 701 528 l 701 688 l 861 688 m 1035 514 l 1035 354 l 875 354 l 875 514 l 1035 514 m 1035 688 l 1035 528 l 875 528 l 875 688 l 1035 688 m 861 861 l 861 701 l 701 701 l 701 861 l 861 861 m 688 1208 l 688 1049 l 528 1049 l 528 1208 l 688 1208 m 861 1208 l 861 1049 l 701 1049 l 701 1208 l 861 1208 m 861 1382 l 861 1222 l 701 1222 l 701 1382 l 861 1382 z "},"":{"ha":1389,"x_min":7,"x_max":1208,"o":"m 688 1382 l 688 1222 l 528 1222 l 528 1382 l 688 1382 m 1035 167 l 1035 7 l 875 7 l 875 167 l 1035 167 m 1208 340 l 1208 181 l 1049 181 l 1049 340 l 1208 340 m 1208 514 l 1208 354 l 1049 354 l 1049 514 l 1208 514 m 1208 688 l 1208 528 l 1049 528 l 1049 688 l 1208 688 m 1035 861 l 1035 701 l 875 701 l 875 861 l 1035 861 m 688 167 l 688 7 l 528 7 l 528 167 l 688 167 m 688 861 l 688 701 l 528 701 l 528 861 l 688 861 m 514 688 l 514 528 l 354 528 l 354 688 l 514 688 m 514 514 l 514 354 l 354 354 l 354 514 l 514 514 m 514 340 l 514 181 l 354 181 l 354 340 l 514 340 m 340 167 l 340 7 l 181 7 l 181 167 l 340 167 m 167 340 l 167 181 l 7 181 l 7 340 l 167 340 m 514 167 l 514 7 l 354 7 l 354 167 l 514 167 m 340 340 l 340 181 l 181 181 l 181 340 l 340 340 m 167 514 l 167 354 l 7 354 l 7 514 l 167 514 m 340 514 l 340 354 l 181 354 l 181 514 l 340 514 m 167 688 l 167 528 l 7 528 l 7 688 l 167 688 m 861 167 l 861 7 l 701 7 l 701 167 l 861 167 m 340 688 l 340 528 l 181 528 l 181 688 l 340 688 m 861 340 l 861 181 l 701 181 l 701 340 l 861 340 m 340 861 l 340 701 l 181 701 l 181 861 l 340 861 m 1035 340 l 1035 181 l 875 181 l 875 340 l 1035 340 m 861 514 l 861 354 l 701 354 l 701 514 l 861 514 m 514 861 l 514 701 l 354 701 l 354 861 l 514 861 m 861 688 l 861 528 l 701 528 l 701 688 l 861 688 m 1035 514 l 1035 354 l 875 354 l 875 514 l 1035 514 m 1035 688 l 1035 528 l 875 528 l 875 688 l 1035 688 m 861 861 l 861 701 l 701 701 l 701 861 l 861 861 m 688 1208 l 688 1049 l 528 1049 l 528 1208 l 688 1208 m 514 1382 l 514 1222 l 354 1222 l 354 1382 l 514 1382 m 861 1208 l 861 1049 l 701 1049 l 701 1208 l 861 1208 z "},"":{"ha":1389,"x_min":7,"x_max":1208,"o":"m 688 1382 l 688 1222 l 528 1222 l 528 1382 l 688 1382 m 1035 1208 l 1035 1049 l 875 1049 l 875 1208 l 1035 1208 m 861 1382 l 861 1222 l 701 1222 l 701 1382 l 861 1382 m 1035 167 l 1035 7 l 875 7 l 875 167 l 1035 167 m 1208 340 l 1208 181 l 1049 181 l 1049 340 l 1208 340 m 1208 514 l 1208 354 l 1049 354 l 1049 514 l 1208 514 m 1208 688 l 1208 528 l 1049 528 l 1049 688 l 1208 688 m 1035 861 l 1035 701 l 875 701 l 875 861 l 1035 861 m 688 167 l 688 7 l 528 7 l 528 167 l 688 167 m 688 861 l 688 701 l 528 701 l 528 861 l 688 861 m 514 688 l 514 528 l 354 528 l 354 688 l 514 688 m 514 514 l 514 354 l 354 354 l 354 514 l 514 514 m 514 340 l 514 181 l 354 181 l 354 340 l 514 340 m 340 167 l 340 7 l 181 7 l 181 167 l 340 167 m 167 340 l 167 181 l 7 181 l 7 340 l 167 340 m 514 167 l 514 7 l 354 7 l 354 167 l 514 167 m 340 340 l 340 181 l 181 181 l 181 340 l 340 340 m 167 514 l 167 354 l 7 354 l 7 514 l 167 514 m 340 514 l 340 354 l 181 354 l 181 514 l 340 514 m 167 688 l 167 528 l 7 528 l 7 688 l 167 688 m 861 167 l 861 7 l 701 7 l 701 167 l 861 167 m 340 688 l 340 528 l 181 528 l 181 688 l 340 688 m 861 340 l 861 181 l 701 181 l 701 340 l 861 340 m 340 861 l 340 701 l 181 701 l 181 861 l 340 861 m 1035 340 l 1035 181 l 875 181 l 875 340 l 1035 340 m 861 514 l 861 354 l 701 354 l 701 514 l 861 514 m 514 861 l 514 701 l 354 701 l 354 861 l 514 861 m 861 688 l 861 528 l 701 528 l 701 688 l 861 688 m 1035 514 l 1035 354 l 875 354 l 875 514 l 1035 514 m 1035 688 l 1035 528 l 875 528 l 875 688 l 1035 688 m 861 861 l 861 701 l 701 701 l 701 861 l 861 861 m 340 1208 l 340 1049 l 181 1049 l 181 1208 l 340 1208 m 688 1208 l 688 1049 l 528 1049 l 528 1208 l 688 1208 m 514 1382 l 514 1222 l 354 1222 l 354 1382 l 514 1382 m 861 1208 l 861 1049 l 701 1049 l 701 1208 l 861 1208 z "},"":{"ha":1389,"x_min":7,"x_max":1208,"o":"m 1035 1382 l 1035 1222 l 875 1222 l 875 1382 l 1035 1382 m 1035 167 l 1035 7 l 875 7 l 875 167 l 1035 167 m 1208 340 l 1208 181 l 1049 181 l 1049 340 l 1208 340 m 1208 514 l 1208 354 l 1049 354 l 1049 514 l 1208 514 m 1208 688 l 1208 528 l 1049 528 l 1049 688 l 1208 688 m 1035 861 l 1035 701 l 875 701 l 875 861 l 1035 861 m 688 167 l 688 7 l 528 7 l 528 167 l 688 167 m 688 861 l 688 701 l 528 701 l 528 861 l 688 861 m 514 688 l 514 528 l 354 528 l 354 688 l 514 688 m 514 514 l 514 354 l 354 354 l 354 514 l 514 514 m 514 340 l 514 181 l 354 181 l 354 340 l 514 340 m 340 167 l 340 7 l 181 7 l 181 167 l 340 167 m 167 340 l 167 181 l 7 181 l 7 340 l 167 340 m 514 167 l 514 7 l 354 7 l 354 167 l 514 167 m 340 340 l 340 181 l 181 181 l 181 340 l 340 340 m 167 514 l 167 354 l 7 354 l 7 514 l 167 514 m 340 514 l 340 354 l 181 354 l 181 514 l 340 514 m 167 688 l 167 528 l 7 528 l 7 688 l 167 688 m 861 167 l 861 7 l 701 7 l 701 167 l 861 167 m 340 688 l 340 528 l 181 528 l 181 688 l 340 688 m 861 340 l 861 181 l 701 181 l 701 340 l 861 340 m 340 861 l 340 701 l 181 701 l 181 861 l 340 861 m 1035 340 l 1035 181 l 875 181 l 875 340 l 1035 340 m 861 514 l 861 354 l 701 354 l 701 514 l 861 514 m 514 861 l 514 701 l 354 701 l 354 861 l 514 861 m 861 688 l 861 528 l 701 528 l 701 688 l 861 688 m 1035 514 l 1035 354 l 875 354 l 875 514 l 1035 514 m 1035 688 l 1035 528 l 875 528 l 875 688 l 1035 688 m 861 861 l 861 701 l 701 701 l 701 861 l 861 861 m 1035 1208 l 1035 1049 l 875 1049 l 875 1208 l 1035 1208 m 861 1208 l 861 1049 l 701 1049 l 701 1208 l 861 1208 m 514 1208 l 514 1049 l 354 1049 l 354 1208 l 514 1208 m 514 1382 l 514 1222 l 354 1222 l 354 1382 l 514 1382 m 340 1208 l 340 1049 l 181 1049 l 181 1208 l 340 1208 m 340 1382 l 340 1222 l 181 1222 l 181 1382 l 340 1382 m 861 1382 l 861 1222 l 701 1222 l 701 1382 l 861 1382 z "},"":{"ha":1389,"x_min":7,"x_max":1208,"o":"m 1035 1556 l 1035 1396 l 875 1396 l 875 1556 l 1035 1556 m 1035 1382 l 1035 1222 l 875 1222 l 875 1382 l 1035 1382 m 340 1208 l 340 1049 l 181 1049 l 181 1208 l 340 1208 m 1035 167 l 1035 7 l 875 7 l 875 167 l 1035 167 m 1208 340 l 1208 181 l 1049 181 l 1049 340 l 1208 340 m 1208 514 l 1208 354 l 1049 354 l 1049 514 l 1208 514 m 1208 688 l 1208 528 l 1049 528 l 1049 688 l 1208 688 m 1035 861 l 1035 701 l 875 701 l 875 861 l 1035 861 m 688 167 l 688 7 l 528 7 l 528 167 l 688 167 m 688 861 l 688 701 l 528 701 l 528 861 l 688 861 m 514 688 l 514 528 l 354 528 l 354 688 l 514 688 m 514 514 l 514 354 l 354 354 l 354 514 l 514 514 m 514 340 l 514 181 l 354 181 l 354 340 l 514 340 m 340 167 l 340 7 l 181 7 l 181 167 l 340 167 m 167 340 l 167 181 l 7 181 l 7 340 l 167 340 m 514 167 l 514 7 l 354 7 l 354 167 l 514 167 m 340 340 l 340 181 l 181 181 l 181 340 l 340 340 m 167 514 l 167 354 l 7 354 l 7 514 l 167 514 m 340 514 l 340 354 l 181 354 l 181 514 l 340 514 m 167 688 l 167 528 l 7 528 l 7 688 l 167 688 m 861 167 l 861 7 l 701 7 l 701 167 l 861 167 m 340 688 l 340 528 l 181 528 l 181 688 l 340 688 m 861 340 l 861 181 l 701 181 l 701 340 l 861 340 m 340 861 l 340 701 l 181 701 l 181 861 l 340 861 m 1035 340 l 1035 181 l 875 181 l 875 340 l 1035 340 m 861 514 l 861 354 l 701 354 l 701 514 l 861 514 m 514 861 l 514 701 l 354 701 l 354 861 l 514 861 m 861 688 l 861 528 l 701 528 l 701 688 l 861 688 m 1035 514 l 1035 354 l 875 354 l 875 514 l 1035 514 m 1035 688 l 1035 528 l 875 528 l 875 688 l 1035 688 m 861 861 l 861 701 l 701 701 l 701 861 l 861 861 m 688 1208 l 688 1049 l 528 1049 l 528 1208 l 688 1208 m 514 1382 l 514 1222 l 354 1222 l 354 1382 l 514 1382 m 861 1208 l 861 1049 l 701 1049 l 701 1208 l 861 1208 m 688 1382 l 688 1222 l 528 1222 l 528 1382 l 688 1382 m 861 1382 l 861 1222 l 701 1222 l 701 1382 l 861 1382 z "},"":{"ha":1389,"x_min":7,"x_max":1208,"o":"m 1035 1382 l 1035 1222 l 875 1222 l 875 1382 l 1035 1382 m 861 167 l 861 7 l 701 7 l 701 167 l 861 167 m 1208 861 l 1208 701 l 1049 701 l 1049 861 l 1208 861 m 1208 688 l 1208 528 l 1049 528 l 1049 688 l 1208 688 m 1208 514 l 1208 354 l 1049 354 l 1049 514 l 1208 514 m 1208 340 l 1208 181 l 1049 181 l 1049 340 l 1208 340 m 1208 167 l 1208 7 l 1049 7 l 1049 167 l 1208 167 m 514 340 l 514 181 l 354 181 l 354 340 l 514 340 m 514 514 l 514 354 l 354 354 l 354 514 l 514 514 m 514 688 l 514 528 l 354 528 l 354 688 l 514 688 m 514 861 l 514 701 l 354 701 l 354 861 l 514 861 m 340 167 l 340 7 l 181 7 l 181 167 l 340 167 m 167 340 l 167 181 l 7 181 l 7 340 l 167 340 m 514 167 l 514 7 l 354 7 l 354 167 l 514 167 m 340 340 l 340 181 l 181 181 l 181 340 l 340 340 m 167 514 l 167 354 l 7 354 l 7 514 l 167 514 m 688 167 l 688 7 l 528 7 l 528 167 l 688 167 m 340 514 l 340 354 l 181 354 l 181 514 l 340 514 m 167 688 l 167 528 l 7 528 l 7 688 l 167 688 m 340 688 l 340 528 l 181 528 l 181 688 l 340 688 m 167 861 l 167 701 l 7 701 l 7 861 l 167 861 m 1035 167 l 1035 7 l 875 7 l 875 167 l 1035 167 m 861 340 l 861 181 l 701 181 l 701 340 l 861 340 m 340 861 l 340 701 l 181 701 l 181 861 l 340 861 m 1035 340 l 1035 181 l 875 181 l 875 340 l 1035 340 m 861 514 l 861 354 l 701 354 l 701 514 l 861 514 m 1035 514 l 1035 354 l 875 354 l 875 514 l 1035 514 m 861 688 l 861 528 l 701 528 l 701 688 l 861 688 m 1035 688 l 1035 528 l 875 528 l 875 688 l 1035 688 m 861 861 l 861 701 l 701 701 l 701 861 l 861 861 m 1035 861 l 1035 701 l 875 701 l 875 861 l 1035 861 m 688 1208 l 688 1049 l 528 1049 l 528 1208 l 688 1208 m 861 1208 l 861 1049 l 701 1049 l 701 1208 l 861 1208 m 861 1382 l 861 1222 l 701 1222 l 701 1382 l 861 1382 z "},"":{"ha":1389,"x_min":7,"x_max":1208,"o":"m 688 1382 l 688 1222 l 528 1222 l 528 1382 l 688 1382 m 861 167 l 861 7 l 701 7 l 701 167 l 861 167 m 1208 861 l 1208 701 l 1049 701 l 1049 861 l 1208 861 m 1208 688 l 1208 528 l 1049 528 l 1049 688 l 1208 688 m 1208 514 l 1208 354 l 1049 354 l 1049 514 l 1208 514 m 1208 340 l 1208 181 l 1049 181 l 1049 340 l 1208 340 m 1208 167 l 1208 7 l 1049 7 l 1049 167 l 1208 167 m 514 340 l 514 181 l 354 181 l 354 340 l 514 340 m 514 514 l 514 354 l 354 354 l 354 514 l 514 514 m 514 688 l 514 528 l 354 528 l 354 688 l 514 688 m 514 861 l 514 701 l 354 701 l 354 861 l 514 861 m 340 167 l 340 7 l 181 7 l 181 167 l 340 167 m 167 340 l 167 181 l 7 181 l 7 340 l 167 340 m 514 167 l 514 7 l 354 7 l 354 167 l 514 167 m 340 340 l 340 181 l 181 181 l 181 340 l 340 340 m 167 514 l 167 354 l 7 354 l 7 514 l 167 514 m 688 167 l 688 7 l 528 7 l 528 167 l 688 167 m 340 514 l 340 354 l 181 354 l 181 514 l 340 514 m 167 688 l 167 528 l 7 528 l 7 688 l 167 688 m 340 688 l 340 528 l 181 528 l 181 688 l 340 688 m 167 861 l 167 701 l 7 701 l 7 861 l 167 861 m 1035 167 l 1035 7 l 875 7 l 875 167 l 1035 167 m 861 340 l 861 181 l 701 181 l 701 340 l 861 340 m 340 861 l 340 701 l 181 701 l 181 861 l 340 861 m 1035 340 l 1035 181 l 875 181 l 875 340 l 1035 340 m 861 514 l 861 354 l 701 354 l 701 514 l 861 514 m 1035 514 l 1035 354 l 875 354 l 875 514 l 1035 514 m 861 688 l 861 528 l 701 528 l 701 688 l 861 688 m 1035 688 l 1035 528 l 875 528 l 875 688 l 1035 688 m 861 861 l 861 701 l 701 701 l 701 861 l 861 861 m 1035 861 l 1035 701 l 875 701 l 875 861 l 1035 861 m 688 1208 l 688 1049 l 528 1049 l 528 1208 l 688 1208 m 514 1382 l 514 1222 l 354 1222 l 354 1382 l 514 1382 m 861 1208 l 861 1049 l 701 1049 l 701 1208 l 861 1208 z "},"":{"ha":1389,"x_min":7,"x_max":1208,"o":"m 688 1382 l 688 1222 l 528 1222 l 528 1382 l 688 1382 m 1035 1208 l 1035 1049 l 875 1049 l 875 1208 l 1035 1208 m 861 1382 l 861 1222 l 701 1222 l 701 1382 l 861 1382 m 861 167 l 861 7 l 701 7 l 701 167 l 861 167 m 1208 861 l 1208 701 l 1049 701 l 1049 861 l 1208 861 m 1208 688 l 1208 528 l 1049 528 l 1049 688 l 1208 688 m 1208 514 l 1208 354 l 1049 354 l 1049 514 l 1208 514 m 1208 340 l 1208 181 l 1049 181 l 1049 340 l 1208 340 m 1208 167 l 1208 7 l 1049 7 l 1049 167 l 1208 167 m 514 340 l 514 181 l 354 181 l 354 340 l 514 340 m 514 514 l 514 354 l 354 354 l 354 514 l 514 514 m 514 688 l 514 528 l 354 528 l 354 688 l 514 688 m 514 861 l 514 701 l 354 701 l 354 861 l 514 861 m 340 167 l 340 7 l 181 7 l 181 167 l 340 167 m 167 340 l 167 181 l 7 181 l 7 340 l 167 340 m 514 167 l 514 7 l 354 7 l 354 167 l 514 167 m 340 340 l 340 181 l 181 181 l 181 340 l 340 340 m 167 514 l 167 354 l 7 354 l 7 514 l 167 514 m 688 167 l 688 7 l 528 7 l 528 167 l 688 167 m 340 514 l 340 354 l 181 354 l 181 514 l 340 514 m 167 688 l 167 528 l 7 528 l 7 688 l 167 688 m 340 688 l 340 528 l 181 528 l 181 688 l 340 688 m 167 861 l 167 701 l 7 701 l 7 861 l 167 861 m 1035 167 l 1035 7 l 875 7 l 875 167 l 1035 167 m 861 340 l 861 181 l 701 181 l 701 340 l 861 340 m 340 861 l 340 701 l 181 701 l 181 861 l 340 861 m 1035 340 l 1035 181 l 875 181 l 875 340 l 1035 340 m 861 514 l 861 354 l 701 354 l 701 514 l 861 514 m 1035 514 l 1035 354 l 875 354 l 875 514 l 1035 514 m 861 688 l 861 528 l 701 528 l 701 688 l 861 688 m 1035 688 l 1035 528 l 875 528 l 875 688 l 1035 688 m 861 861 l 861 701 l 701 701 l 701 861 l 861 861 m 1035 861 l 1035 701 l 875 701 l 875 861 l 1035 861 m 340 1208 l 340 1049 l 181 1049 l 181 1208 l 340 1208 m 688 1208 l 688 1049 l 528 1049 l 528 1208 l 688 1208 m 514 1382 l 514 1222 l 354 1222 l 354 1382 l 514 1382 m 861 1208 l 861 1049 l 701 1049 l 701 1208 l 861 1208 z "},"":{"ha":1389,"x_min":7,"x_max":1208,"o":"m 1035 1382 l 1035 1222 l 875 1222 l 875 1382 l 1035 1382 m 1035 1208 l 1035 1049 l 875 1049 l 875 1208 l 1035 1208 m 861 1208 l 861 1049 l 701 1049 l 701 1208 l 861 1208 m 340 1382 l 340 1222 l 181 1222 l 181 1382 l 340 1382 m 340 1208 l 340 1049 l 181 1049 l 181 1208 l 340 1208 m 514 1208 l 514 1049 l 354 1049 l 354 1208 l 514 1208 m 861 167 l 861 7 l 701 7 l 701 167 l 861 167 m 1208 861 l 1208 701 l 1049 701 l 1049 861 l 1208 861 m 1208 688 l 1208 528 l 1049 528 l 1049 688 l 1208 688 m 1208 514 l 1208 354 l 1049 354 l 1049 514 l 1208 514 m 1208 340 l 1208 181 l 1049 181 l 1049 340 l 1208 340 m 1208 167 l 1208 7 l 1049 7 l 1049 167 l 1208 167 m 514 340 l 514 181 l 354 181 l 354 340 l 514 340 m 514 514 l 514 354 l 354 354 l 354 514 l 514 514 m 514 688 l 514 528 l 354 528 l 354 688 l 514 688 m 514 861 l 514 701 l 354 701 l 354 861 l 514 861 m 340 167 l 340 7 l 181 7 l 181 167 l 340 167 m 167 340 l 167 181 l 7 181 l 7 340 l 167 340 m 514 167 l 514 7 l 354 7 l 354 167 l 514 167 m 340 340 l 340 181 l 181 181 l 181 340 l 340 340 m 167 514 l 167 354 l 7 354 l 7 514 l 167 514 m 688 167 l 688 7 l 528 7 l 528 167 l 688 167 m 340 514 l 340 354 l 181 354 l 181 514 l 340 514 m 167 688 l 167 528 l 7 528 l 7 688 l 167 688 m 340 688 l 340 528 l 181 528 l 181 688 l 340 688 m 167 861 l 167 701 l 7 701 l 7 861 l 167 861 m 1035 167 l 1035 7 l 875 7 l 875 167 l 1035 167 m 861 340 l 861 181 l 701 181 l 701 340 l 861 340 m 340 861 l 340 701 l 181 701 l 181 861 l 340 861 m 1035 340 l 1035 181 l 875 181 l 875 340 l 1035 340 m 861 514 l 861 354 l 701 354 l 701 514 l 861 514 m 1035 514 l 1035 354 l 875 354 l 875 514 l 1035 514 m 861 688 l 861 528 l 701 528 l 701 688 l 861 688 m 1035 688 l 1035 528 l 875 528 l 875 688 l 1035 688 m 861 861 l 861 701 l 701 701 l 701 861 l 861 861 m 1035 861 l 1035 701 l 875 701 l 875 861 l 1035 861 m 514 1382 l 514 1222 l 354 1222 l 354 1382 l 514 1382 m 861 1382 l 861 1222 l 701 1222 l 701 1382 l 861 1382 z "},"":{"ha":1215,"x_min":7,"x_max":861,"o":"m 514 1382 l 514 1222 l 354 1222 l 354 1382 l 514 1382 m 688 167 l 688 7 l 528 7 l 528 167 l 688 167 m 688 340 l 688 181 l 528 181 l 528 340 l 688 340 m 688 514 l 688 354 l 528 354 l 528 514 l 688 514 m 340 688 l 340 528 l 181 528 l 181 688 l 340 688 m 514 688 l 514 528 l 354 528 l 354 688 l 514 688 m 688 688 l 688 528 l 528 528 l 528 688 l 688 688 m 688 1382 l 688 1222 l 528 1222 l 528 1382 l 688 1382 m 688 1208 l 688 1049 l 528 1049 l 528 1208 l 688 1208 m 340 1035 l 340 875 l 181 875 l 181 1035 l 340 1035 m 340 -7 l 340 -167 l 181 -167 l 181 -7 l 340 -7 m 514 -7 l 514 -167 l 354 -167 l 354 -7 l 514 -7 m 340 167 l 340 7 l 181 7 l 181 167 l 340 167 m 514 167 l 514 7 l 354 7 l 354 167 l 514 167 m 340 340 l 340 181 l 181 181 l 181 340 l 340 340 m 514 340 l 514 181 l 354 181 l 354 340 l 514 340 m 340 514 l 340 354 l 181 354 l 181 514 l 340 514 m 514 1035 l 514 875 l 354 875 l 354 1035 l 514 1035 m 514 514 l 514 354 l 354 354 l 354 514 l 514 514 m 167 1035 l 167 875 l 7 875 l 7 1035 l 167 1035 m 340 1208 l 340 1049 l 181 1049 l 181 1208 l 340 1208 m 688 1035 l 688 875 l 528 875 l 528 1035 l 688 1035 m 514 1208 l 514 1049 l 354 1049 l 354 1208 l 514 1208 m 340 1382 l 340 1222 l 181 1222 l 181 1382 l 340 1382 m 861 1035 l 861 875 l 701 875 l 701 1035 l 861 1035 z "},"":{"ha":1215,"x_min":7,"x_max":861,"o":"m 514 1382 l 514 1222 l 354 1222 l 354 1382 l 514 1382 m 340 861 l 340 701 l 181 701 l 181 861 l 340 861 m 514 1035 l 514 875 l 354 875 l 354 1035 l 514 1035 m 688 861 l 688 701 l 528 701 l 528 861 l 688 861 m 861 1035 l 861 875 l 701 875 l 701 1035 l 861 1035 m 861 1208 l 861 1049 l 701 1049 l 701 1208 l 861 1208 m 688 1382 l 688 1222 l 528 1222 l 528 1382 l 688 1382 m 167 1035 l 167 875 l 7 875 l 7 1035 l 167 1035 m 514 861 l 514 701 l 354 701 l 354 861 l 514 861 m 167 1208 l 167 1049 l 7 1049 l 7 1208 l 167 1208 m 340 1035 l 340 875 l 181 875 l 181 1035 l 340 1035 m 340 1208 l 340 1049 l 181 1049 l 181 1208 l 340 1208 m 340 1382 l 340 1222 l 181 1222 l 181 1382 l 340 1382 m 514 1208 l 514 1049 l 354 1049 l 354 1208 l 514 1208 z "},"":{"ha":1215,"x_min":7,"x_max":1035,"o":"m 861 1208 l 861 1049 l 701 1049 l 701 1208 l 861 1208 m 688 -181 l 688 -340 l 528 -340 l 528 -181 l 688 -181 m 688 -7 l 688 -167 l 528 -167 l 528 -7 l 688 -7 m 688 1556 l 688 1396 l 528 1396 l 528 1556 l 688 1556 m 688 1382 l 688 1222 l 528 1222 l 528 1382 l 688 1382 m 861 1035 l 861 875 l 701 875 l 701 1035 l 861 1035 m 1035 340 l 1035 181 l 875 181 l 875 340 l 1035 340 m 1035 1035 l 1035 875 l 875 875 l 875 1035 l 1035 1035 m 861 167 l 861 7 l 701 7 l 701 167 l 861 167 m 1035 1208 l 1035 1049 l 875 1049 l 875 1208 l 1035 1208 m 514 1035 l 514 875 l 354 875 l 354 1035 l 514 1035 m 514 861 l 514 701 l 354 701 l 354 861 l 514 861 m 514 688 l 514 528 l 354 528 l 354 688 l 514 688 m 514 514 l 514 354 l 354 354 l 354 514 l 514 514 m 514 340 l 514 181 l 354 181 l 354 340 l 514 340 m 340 167 l 340 7 l 181 7 l 181 167 l 340 167 m 167 340 l 167 181 l 7 181 l 7 340 l 167 340 m 514 167 l 514 7 l 354 7 l 354 167 l 514 167 m 340 340 l 340 181 l 181 181 l 181 340 l 340 340 m 167 514 l 167 354 l 7 354 l 7 514 l 167 514 m 688 167 l 688 7 l 528 7 l 528 167 l 688 167 m 340 514 l 340 354 l 181 354 l 181 514 l 340 514 m 167 688 l 167 528 l 7 528 l 7 688 l 167 688 m 340 688 l 340 528 l 181 528 l 181 688 l 340 688 m 167 861 l 167 701 l 7 701 l 7 861 l 167 861 m 340 861 l 340 701 l 181 701 l 181 861 l 340 861 m 167 1035 l 167 875 l 7 875 l 7 1035 l 167 1035 m 340 1035 l 340 875 l 181 875 l 181 1035 l 340 1035 m 340 1208 l 340 1049 l 181 1049 l 181 1208 l 340 1208 m 514 1208 l 514 1049 l 354 1049 l 354 1208 l 514 1208 m 688 1208 l 688 1049 l 528 1049 l 528 1208 l 688 1208 z "},"":{"ha":1215,"x_min":7,"x_max":1035,"o":"m 1035 1208 l 1035 1049 l 875 1049 l 875 1208 l 1035 1208 m 688 -7 l 688 -167 l 528 -167 l 528 -7 l 688 -7 m 861 -7 l 861 -167 l 701 -167 l 701 -7 l 861 -7 m 1035 167 l 1035 7 l 875 7 l 875 167 l 1035 167 m 861 688 l 861 528 l 701 528 l 701 688 l 861 688 m 1035 340 l 1035 181 l 875 181 l 875 340 l 1035 340 m 1035 1035 l 1035 875 l 875 875 l 875 1035 l 1035 1035 m 514 1208 l 514 1049 l 354 1049 l 354 1208 l 514 1208 m 340 1035 l 340 875 l 181 875 l 181 1035 l 340 1035 m 340 861 l 340 701 l 181 701 l 181 861 l 340 861 m 340 688 l 340 528 l 181 528 l 181 688 l 340 688 m 340 514 l 340 354 l 181 354 l 181 514 l 340 514 m 340 340 l 340 181 l 181 181 l 181 340 l 340 340 m 340 167 l 340 7 l 181 7 l 181 167 l 340 167 m 514 167 l 514 7 l 354 7 l 354 167 l 514 167 m 167 167 l 167 7 l 7 7 l 7 167 l 167 167 m 514 340 l 514 181 l 354 181 l 354 340 l 514 340 m 861 167 l 861 7 l 701 7 l 701 167 l 861 167 m 514 514 l 514 354 l 354 354 l 354 514 l 514 514 m 688 514 l 688 354 l 528 354 l 528 514 l 688 514 m 514 688 l 514 528 l 354 528 l 354 688 l 514 688 m 688 688 l 688 528 l 528 528 l 528 688 l 688 688 m 514 861 l 514 701 l 354 701 l 354 861 l 514 861 m 688 167 l 688 7 l 528 7 l 528 167 l 688 167 m 688 861 l 688 701 l 528 701 l 528 861 l 688 861 m 514 1035 l 514 875 l 354 875 l 354 1035 l 514 1035 m 1035 688 l 1035 528 l 875 528 l 875 688 l 1035 688 m 688 1035 l 688 875 l 528 875 l 528 1035 l 688 1035 m 688 1208 l 688 1049 l 528 1049 l 528 1208 l 688 1208 m 861 1208 l 861 1049 l 701 1049 l 701 1208 l 861 1208 z "}}}
